<?xml version="1.0" standalone="no"?>
<!DOCTYPE svg PUBLIC "-//W3C//DTD SVG 1.1//EN" "http://www.w3.org/Graphics/SVG/1.1/DTD/svg11.dtd" >
<svg xmlns="http://www.w3.org/2000/svg" xmlns:xlink="http://www.w3.org/1999/xlink" version="1.1">
<metadata>
Created by FontForge 20170731 at Sat Jul  9 09:51:51 2022
 By Aleksey,,,
Copyright (C) 2001, 2008 Hoefler &#38; Co. http://www.typography.com
</metadata>
<defs>
<font id="GothamCondensed-Light" horiz-adv-x="491" >
  <font-face 
    font-family="Gotham Condensed Light"
    font-weight="300"
    font-stretch="condensed"
    units-per-em="2048"
    panose-1="0 0 0 0 0 0 0 0 0 0"
    ascent="1638"
    descent="-410"
    x-height="1075"
    cap-height="1434"
    bbox="-264 -410 1487 1872"
    underline-thickness="102"
    underline-position="-307"
    unicode-range="U+0020-FB04"
  />
<missing-glyph horiz-adv-x="1024" 
d="M0 -410v2048h1024v-2048h-1024zM145 1536l367 -799l367 799h-734zM102 -156l353 770l-353 770v-1540zM922 1384l-353 -770l353 -770v1540zM512 492l-367 -799h734z" />
    <glyph glyph-name="f_f" unicode="ff" horiz-adv-x="884" 
d="M594 0v995h-111v80h111v125q0 136 63 199q53 53 146 53q31 0 63 -8v-84q-32 8 -61 8q-125 0 -125 -170v-123h176v-80h-176v-995h-86zM152 0v995h-111v80h111v125q0 136 63 199q53 53 145 53q32 0 64 -8v-84q-32 8 -62 8q-124 0 -124 -170v-123h176v-80h-176v-995h-86z
" />
    <glyph glyph-name="fi" unicode="fi" horiz-adv-x="770" 
d="M152 0v995h-111v80h111v125q0 136 63 199q53 53 145 53q32 0 64 -8v-84q-32 8 -62 8q-124 0 -124 -170v-123h176v-80h-176v-995h-86zM563 0v1075h86v-1075h-86zM559 1305v143h94v-143h-94z" />
    <glyph glyph-name="fl" unicode="fl" horiz-adv-x="770" 
d="M152 0v995h-111v80h111v125q0 136 63 199q53 53 145 53q32 0 64 -8v-84q-32 8 -62 8q-124 0 -124 -170v-123h176v-80h-176v-995h-86zM563 0v1448h86v-1448h-86z" />
    <glyph glyph-name="f_f_i" unicode="ffi" horiz-adv-x="1212" 
d="M594 0v995h-111v80h111v125q0 136 63 199q53 53 146 53q31 0 63 -8v-84q-32 8 -61 8q-125 0 -125 -170v-123h176v-80h-176v-995h-86zM152 0v995h-111v80h111v125q0 136 63 199q53 53 145 53q32 0 64 -8v-84q-32 8 -62 8q-124 0 -124 -170v-123h176v-80h-176v-995h-86z
M1006 0v1075h86v-1075h-86zM1001 1305v143h95v-143h-95z" />
    <glyph glyph-name="f_f_l" unicode="ffl" horiz-adv-x="1212" 
d="M594 0v995h-111v80h111v125q0 136 63 199q53 53 146 53q31 0 63 -8v-84q-32 8 -61 8q-125 0 -125 -170v-123h176v-80h-176v-995h-86zM152 0v995h-111v80h111v125q0 136 63 199q53 53 145 53q32 0 64 -8v-84q-32 8 -62 8q-124 0 -124 -170v-123h176v-80h-176v-995h-86z
M1006 0v1448h86v-1448h-86z" />
    <glyph glyph-name=".notdef" horiz-adv-x="1024" 
d="M0 -410v2048h1024v-2048h-1024zM145 1536l367 -799l367 799h-734zM102 -156l353 770l-353 770v-1540zM922 1384l-353 -770l353 -770v1540zM512 492l-367 -799h734z" />
    <glyph glyph-name=".null" horiz-adv-x="0" 
 />
    <glyph glyph-name="nonmarkingreturn" horiz-adv-x="682" 
 />
    <glyph glyph-name="space" unicode=" " horiz-adv-x="337" 
 />
    <glyph glyph-name="exclam" unicode="!" horiz-adv-x="393" 
d="M174 375l-31 915v144h107v-144l-31 -915h-45zM135 0v168h123v-168h-123z" />
    <glyph glyph-name="quotedbl" unicode="&#x22;" horiz-adv-x="473" 
d="M305 938v496h103v-19l-64 -477h-39zM90 938v496h103v-19l-64 -477h-39z" />
    <glyph glyph-name="numbersign" unicode="#" horiz-adv-x="794" 
d="M711 463v-82h-154l-29 -381h-71l28 381h-227l-29 -381h-71l28 381h-141v82h148l38 508h-147v82h154l28 381h72l-29 -381h228l28 381h72l-29 -381h142v-82h-148l-39 -508h148zM303 971l-39 -508h228l38 508h-227z" />
    <glyph glyph-name="dollar" unicode="$" horiz-adv-x="696" 
d="M592 1374v-94q-124 79 -213 84v-586q134 -92 195 -194t61 -230v-6q0 -137 -69 -235t-187 -119v-197h-70v191q-130 3 -248 69v95q69 -45 126 -63.5t122 -20.5v645q-63 41 -106 78t-78.5 85t-52.5 107t-17 133v4q0 122 70.5 210t183.5 108v135h70v-129q104 -3 213 -70z
M549 354q0 102 -42.5 179.5t-127.5 140.5v-600q84 21 127 96.5t43 179.5v4zM141 1116q0 -107 42.5 -174.5t125.5 -126.5v541q-77 -19 -122.5 -82.5t-45.5 -153.5v-4z" />
    <glyph glyph-name="percent" unicode="%" horiz-adv-x="1024" 
d="M266 764q-89 0 -150 89t-61 243v16q0 154 61 243t150 89t150 -89t61 -243v-16q0 -154 -61 -243t-150 -89zM266 1366q-60 0 -97.5 -68.5t-37.5 -185.5v-16q0 -117 37.5 -185.5t97.5 -68.5t97.5 68.5t37.5 185.5v16q0 117 -37.5 185.5t-97.5 68.5zM481 731l314 703h75
l-327 -732l-314 -702h-75zM758 -10q-89 0 -150 89t-61 243v16q0 154 61 243t150 89t150 -89t61 -243v-16q0 -154 -61 -243t-150 -89zM758 68q60 0 97.5 68.5t37.5 185.5v16q0 117 -37.5 185.5t-97.5 68.5t-97.5 -68.5t-37.5 -185.5v-16q0 -117 37.5 -185.5t97.5 -68.5z" />
    <glyph glyph-name="ampersand" unicode="&#x26;" horiz-adv-x="839" 
d="M741 -14l-112 209q-57 -99 -126 -154t-165 -55q-127 0 -205 102.5t-78 243.5v14q0 121 58 240t172 221q-78 133 -110 212.5t-32 151.5v11q0 106 68.5 187t173.5 81q107 0 169 -77.5t62 -178.5v-12q0 -106 -56 -196.5t-171 -197.5l232 -428q40 128 65 326l78 -12
q-29 -224 -92 -398l141 -247zM350 852q180 157 180 330v6q0 76 -39.5 130t-105.5 54q-70 0 -113 -55t-43 -133v-4q0 -68 25.5 -139t95.5 -189zM342 68q77 0 134.5 51.5t107.5 148.5l-262 475q-177 -157 -177 -391v-12q0 -116 55 -194t142 -78z" />
    <glyph glyph-name="quotesingle" unicode="'" horiz-adv-x="237" 
d="M90 938v496h103v-19l-64 -477h-39z" />
    <glyph glyph-name="parenleft" unicode="(" horiz-adv-x="481" 
d="M451 -281q-172 122 -274.5 344.5t-102.5 530.5t102.5 530t274.5 344v-71q-291 -277 -291 -803t291 -803v-72z" />
    <glyph glyph-name="parenright" unicode=")" horiz-adv-x="481" 
d="M31 -281v72q291 277 291 803t-291 803v71q172 -122 274.5 -344t102.5 -530t-102.5 -530.5t-274.5 -344.5z" />
    <glyph glyph-name="asterisk" unicode="*" horiz-adv-x="569" 
d="M248 885l16 237l-170 -127l-39 64l193 102l-193 103l39 63l170 -127l-16 238h74l-17 -238l170 127l39 -63l-192 -103l192 -102l-39 -64l-170 127l17 -237h-74z" />
    <glyph glyph-name="plus" unicode="+" horiz-adv-x="696" 
d="M307 424v256h-248v82h248v256h82v-256h248v-82h-248v-256h-82z" />
    <glyph glyph-name="comma" unicode="," horiz-adv-x="307" 
d="M66 -211l-25 51q60 26 84.5 63.5t19.5 96.5h-55v168h127v-145q0 -94 -32.5 -144t-118.5 -90z" />
    <glyph glyph-name="hyphen" unicode="-" horiz-adv-x="548" 
d="M82 565v82h385v-82h-385z" />
    <glyph glyph-name="period" unicode="." horiz-adv-x="307" 
d="M90 0v168h127v-168h-127z" />
    <glyph glyph-name="slash" unicode="/" horiz-adv-x="532" 
d="M-8 -201l446 1774h78l-446 -1774h-78z" />
    <glyph glyph-name="zero" unicode="0" horiz-adv-x="761" 
d="M381 -16q-141 0 -221 174t-80 540v33q0 186 22 326t62 225t94.5 126.5t122.5 41.5t122 -41t95 -125.5t62.5 -223.5t21.5 -325v-33q0 -186 -22 -325.5t-62 -224.5t-94.5 -126.5t-122.5 -41.5zM381 66q98 0 154.5 160t56.5 472v33q0 313 -56.5 475t-154.5 162t-154.5 -160
t-56.5 -473v-33q0 -313 56.5 -474.5t154.5 -161.5z" />
    <glyph glyph-name="one" unicode="1" horiz-adv-x="419" 
d="M197 0v1323l-150 -88v102l158 97h80v-1434h-88z" />
    <glyph glyph-name="two" unicode="2" horiz-adv-x="673" 
d="M51 0v59l346 711q52 109 76.5 188.5t24.5 167.5q0 107 -55 170.5t-146 63.5q-106 0 -209 -66v97q98 59 213 59q131 0 210 -86.5t79 -226.5v-9q0 -96 -28 -183.5t-93 -221.5l-307 -635h440v-88h-551z" />
    <glyph glyph-name="three" unicode="3" horiz-adv-x="634" 
d="M229 -16q-97 0 -180 34v88q84 -38 184 -38q103 0 177.5 93.5t74.5 250.5v12q0 144 -78 217.5t-229 87.5v64l283 548h-412v93h520v-60l-295 -575q62 -12 114 -38.5t95 -70t67.5 -111t24.5 -153.5v-14q0 -195 -100.5 -311.5t-245.5 -116.5z" />
    <glyph glyph-name="four" unicode="4" horiz-adv-x="702" 
d="M469 0v330h-430v69l436 1045h76v-1036h113v-78h-113v-330h-82zM125 408h344v829z" />
    <glyph glyph-name="five" unicode="5" horiz-adv-x="671" 
d="M250 -16q-96 0 -170 36v89q84 -41 172 -41q109 0 182.5 105.5t73.5 270.5v9q0 166 -63.5 242.5t-161.5 76.5q-66 0 -140 -29l-61 41l29 650h434v-88h-357l-22 -512q63 24 125 24q133 0 220 -100.5t87 -302.5v-9q0 -203 -99 -332.5t-249 -129.5z" />
    <glyph glyph-name="six" unicode="6" horiz-adv-x="724" 
d="M371 -16q-91 0 -152 61q-135 135 -135 557v62q0 207 26 360.5t73.5 245.5t110.5 136t142 44q70 0 137 -29v-94q-72 35 -143 35q-66 0 -117 -50t-80 -135t-44 -183t-17 -206q103 103 213 103q117 0 197 -108.5t80 -323.5v-8q0 -207 -83.5 -337t-207.5 -130zM373 63
q92 0 147 111t55 275v8q0 172 -57 262t-141 90q-91 0 -205 -111v-112q0 -147 17 -253.5t47 -163t63.5 -81.5t73.5 -25z" />
    <glyph glyph-name="seven" unicode="7" horiz-adv-x="630" 
d="M139 0l332 1346h-405v88h493v-78l-332 -1356h-88z" />
    <glyph glyph-name="eight" unicode="8" horiz-adv-x="671" 
d="M336 -16q-126 0 -204.5 106t-78.5 275v14q0 125 50.5 222t136.5 138q-75 44 -118.5 132t-43.5 208v13q0 166 74.5 262t183.5 96t183.5 -96t74.5 -262v-13q0 -120 -43.5 -208t-118.5 -132q86 -41 136 -138t50 -222v-14q0 -169 -78 -275t-204 -106zM336 778q74 0 122 90.5
t48 212.5v9q0 126 -47 203t-123 77t-123 -77t-47 -203v-9q0 -122 48 -212.5t122 -90.5zM336 63q88 0 142 86.5t54 219.5v6q0 139 -56 231t-140 92t-140.5 -92t-56.5 -231v-6q0 -132 54.5 -219t142.5 -87z" />
    <glyph glyph-name="nine" unicode="9" horiz-adv-x="724" 
d="M295 72q66 0 116.5 48.5t79.5 131t43.5 176.5t16.5 199q-104 -101 -211 -101q-118 0 -197.5 110.5t-79.5 330.5v8q0 212 83.5 343.5t207.5 131.5q91 0 152 -61q135 -135 135 -558v-61q0 -207 -26 -360.5t-73.5 -245.5t-110.5 -136t-142 -44q-81 0 -158 34v95
q77 -41 164 -41zM348 608q91 0 205 111v131q0 147 -17 253t-47 162t-63.5 80.5t-73.5 24.5q-62 0 -108.5 -53.5t-70 -142t-23.5 -197.5v-8q0 -180 56.5 -270.5t141.5 -90.5z" />
    <glyph glyph-name="colon" unicode=":" horiz-adv-x="327" 
d="M100 907v168h127v-168h-127zM100 0v168h127v-168h-127z" />
    <glyph glyph-name="semicolon" unicode=";" horiz-adv-x="327" 
d="M100 907v168h127v-168h-127zM76 -211l-25 51q60 26 84.5 64t20.5 96h-56v168h127v-145q0 -94 -32.5 -144t-118.5 -90z" />
    <glyph glyph-name="less" unicode="&#x3c;" horiz-adv-x="696" 
d="M590 371l-508 309v82l508 309v-102l-418 -248l418 -248v-102z" />
    <glyph glyph-name="equal" unicode="=" horiz-adv-x="696" 
d="M70 821v84h557v-84h-557zM70 537v84h557v-84h-557z" />
    <glyph glyph-name="greater" unicode="&#x3e;" horiz-adv-x="696" 
d="M106 371v102l418 248l-418 248v102l508 -309v-82z" />
    <glyph glyph-name="question" unicode="?" horiz-adv-x="620" 
d="M221 375l-16 354l10 14q125 48 192.5 129t67.5 215v9q0 119 -67 190.5t-164 71.5q-91 0 -195 -58v89q94 53 201 53q134 0 224.5 -96t90.5 -242v-12q0 -274 -270 -404l-19 -313h-55zM195 0v168h122v-168h-122z" />
    <glyph glyph-name="at" unicode="@" horiz-adv-x="1298" 
d="M612 -272q-116 0 -213.5 45t-170.5 131t-114.5 222.5t-41.5 309.5q0 159 28 308.5t84 277.5t134 223.5t183.5 150t225.5 54.5q157 0 272 -87.5t171.5 -232t56.5 -327.5q0 -167 -38.5 -315.5t-111 -243t-162.5 -94.5q-81 0 -120 61.5t-27 159.5q-106 -228 -248 -228
q-73 0 -122.5 71t-49.5 185q0 165 47 313.5t124.5 238t162.5 89.5q138 0 166 -202l33 168l80 -17l-103 -526q-12 -65 -12 -137q0 -49 18.5 -81t57.5 -32q71 0 129.5 94.5t88 227.5t29.5 264q0 124 -28 231.5t-82 189.5t-139 129.5t-193 47.5q-115 0 -214 -56t-169 -150
t-120.5 -217t-74.5 -258t-24 -272q0 -321 134 -492t353 -171q94 0 163 22t147 70l28 -45q-88 -53 -161.5 -76.5t-176.5 -23.5zM541 223q48 0 104 56q68 68 120 193.5t52 264.5q0 98 -36.5 161t-92.5 63q-50 0 -98 -48q-74 -74 -116 -217.5t-42 -292.5q0 -86 29.5 -133
t79.5 -47z" />
    <glyph glyph-name="A" unicode="A" horiz-adv-x="839" 
d="M57 0l314 1440h98l313 -1440h-94l-84 401h-373l-84 -401h-90zM248 483h340l-170 815z" />
    <glyph glyph-name="B" unicode="B" horiz-adv-x="763" 
d="M115 0v1434h184q178 0 287 -109q96 -96 96 -250v-4q0 -274 -262 -346q132 -30 206 -118t74 -232v-4q0 -173 -119.5 -272t-320.5 -99h-145zM592 1067v4q0 130 -81 205.5t-216 75.5h-90v-588h63q156 0 240 80t84 223zM610 377q0 147 -87 226t-247 79h-71v-600h57
q164 0 256 75t92 216v4z" />
    <glyph glyph-name="C" unicode="C" horiz-adv-x="673" 
d="M455 -12q-166 0 -272.5 183t-106.5 527v37q0 174 31 311.5t84 223.5t121.5 131t146.5 45q74 0 139 -35v-96q-77 45 -139 45q-126 0 -209.5 -164.5t-83.5 -460.5v-37q0 -296 83.5 -460t209.5 -164q72 0 145 47v-92q-67 -41 -149 -41z" />
    <glyph glyph-name="D" unicode="D" horiz-adv-x="819" 
d="M115 0v1434h170q206 0 332 -182t126 -517v-37q0 -335 -126 -516.5t-332 -181.5h-170zM283 1352h-78v-1270h82q166 0 266 159.5t100 456.5v37q0 296 -102.5 456.5t-267.5 160.5z" />
    <glyph glyph-name="E" unicode="E" horiz-adv-x="665" 
d="M115 0v1434h487v-82h-397v-588h362v-82h-362v-600h403v-82h-493z" />
    <glyph glyph-name="F" unicode="F" horiz-adv-x="626" 
d="M115 0v1434h469v-82h-379v-609h344v-81h-344v-662h-90z" />
    <glyph glyph-name="G" unicode="G" horiz-adv-x="804" 
d="M506 -14q-90 0 -167 45.5t-136 132.5t-93 224t-34 310v37q0 172 35.5 310t96 224t138 131.5t164.5 45.5q95 0 174 -45v-98q-91 57 -176 57q-67 0 -128 -40t-109 -115.5t-76.5 -197t-28.5 -272.5v-37q0 -303 96.5 -466.5t249.5 -163.5q53 0 98 18v565h-213v82h299v-698
q-55 -29 -95 -39t-95 -10z" />
    <glyph glyph-name="H" unicode="H" horiz-adv-x="851" 
d="M115 0v1434h90v-672h442v672h90v-1434h-90v680h-442v-680h-90z" />
    <glyph glyph-name="I" unicode="I" horiz-adv-x="348" 
d="M129 0v1434h90v-1434h-90z" />
    <glyph glyph-name="J" unicode="J" horiz-adv-x="483" 
d="M145 -10q-56 0 -104 16v84q61 -16 102 -16q65 0 104.5 43t39.5 127v1190h90v-1192q0 -121 -70 -191q-61 -61 -162 -61z" />
    <glyph glyph-name="K" unicode="K" horiz-adv-x="757" 
d="M115 0v1434h90v-813l397 813h103l-330 -648l370 -786h-98l-323 688l-119 -233v-455h-90z" />
    <glyph glyph-name="L" unicode="L" horiz-adv-x="581" 
d="M115 0v1434h90v-1352h360v-82h-450z" />
    <glyph glyph-name="M" unicode="M" horiz-adv-x="978" 
d="M115 0v1434h110l264 -801l267 801h108v-1434h-86v1235l-284 -834h-9l-284 834v-1235h-86z" />
    <glyph glyph-name="N" unicode="N" horiz-adv-x="860" 
d="M115 0v1434h98l446 -1205v1205h86v-1434h-88l-456 1233v-1233h-86z" />
    <glyph glyph-name="O" unicode="O" horiz-adv-x="831" 
d="M416 -16q-152 0 -246 186t-94 530v33q0 344 94 530.5t246 186.5t246 -186.5t94 -530.5v-33q0 -344 -94 -530t-246 -186zM416 66q110 0 180 165.5t70 468.5v33q0 303 -70 469t-180 166t-180 -166t-70 -469v-33q0 -303 70 -468.5t180 -165.5z" />
    <glyph glyph-name="P" unicode="P" horiz-adv-x="745" 
d="M115 0v1434h178q190 0 301 -121t111 -326v-4q0 -208 -110.5 -331.5t-309.5 -123.5h-80v-528h-90zM205 608h88q154 0 237.5 98.5t83.5 274.5v4q0 173 -87 270t-238 97h-84v-744z" />
    <glyph glyph-name="Q" unicode="Q" horiz-adv-x="831" 
d="M776 12l-63 -53l-105 133q-82 -108 -192 -108q-152 0 -246 186t-94 530v33q0 344 94 530.5t246 186.5t246 -186.5t94 -530.5v-33q0 -338 -105 -540zM416 66q84 0 143 86l-147 176l63 53l123 -156q68 168 68 475v33q0 303 -70 469t-180 166t-180 -166t-70 -469v-33
q0 -303 70 -468.5t180 -165.5z" />
    <glyph glyph-name="R" unicode="R" horiz-adv-x="784" 
d="M115 0v1434h178q188 0 299 -111q113 -113 113 -311v-4q0 -148 -65 -252.5t-183 -149.5l274 -606h-106l-260 584q-38 -6 -80 -6h-80v-578h-90zM205 657h88q149 0 235 91.5t86 257.5v4q0 169 -87 255.5t-238 86.5h-84v-695z" />
    <glyph glyph-name="S" unicode="S" horiz-adv-x="681" 
d="M317 -16q-115 0 -247 75v103q143 -92 249 -92q91 0 145 55.5t54 150.5v5q0 87 -39.5 164.5t-161.5 242.5q-148 199 -192.5 284.5t-44.5 180.5v4q0 126 81 209.5t199 83.5q109 0 218 -64v-102q-118 80 -220 80q-83 0 -135.5 -56t-52.5 -145v-4q0 -79 41 -156t162 -231
q134 -169 184.5 -270.5t50.5 -214.5v-4q0 -135 -82 -217t-209 -82z" />
    <glyph glyph-name="T" unicode="T" horiz-adv-x="606" 
d="M258 0v1352h-233v82h557v-82h-234v-1352h-90z" />
    <glyph glyph-name="U" unicode="U" horiz-adv-x="833" 
d="M416 -18q-143 0 -226.5 104.5t-83.5 282.5v1065h91v-1067q0 -145 58.5 -224.5t160.5 -79.5t161.5 79.5t59.5 224.5v1067h90v-1065q0 -178 -84 -282.5t-227 -104.5z" />
    <glyph glyph-name="V" unicode="V" horiz-adv-x="802" 
d="M356 -10l-299 1444h95l251 -1274l252 1274h90l-299 -1444h-90z" />
    <glyph glyph-name="W" unicode="W" horiz-adv-x="1251" 
d="M309 -10l-248 1444h97l194 -1252l234 1252h84l231 -1252l197 1252h92l-248 -1444h-84l-231 1251l-234 -1251h-84z" />
    <glyph glyph-name="X" unicode="X" horiz-adv-x="731" 
d="M567 1434h90l-239 -670l272 -764h-92l-236 666l-231 -666h-90l270 756l-243 678h92l202 -580z" />
    <glyph glyph-name="Y" unicode="Y" horiz-adv-x="720" 
d="M315 0v618l-299 816h99l247 -703l250 703h93l-299 -816v-618h-91z" />
    <glyph glyph-name="Z" unicode="Z" horiz-adv-x="688" 
d="M61 0v53l476 1305h-453v76h547v-52l-475 -1304h475v-78h-570z" />
    <glyph glyph-name="bracketleft" unicode="[" horiz-adv-x="518" 
d="M160 -266v1700h284v-68h-198v-1565h198v-67h-284z" />
    <glyph glyph-name="backslash" unicode="\" horiz-adv-x="532" 
d="M463 -201l-447 1774h78l447 -1774h-78z" />
    <glyph glyph-name="bracketright" unicode="]" horiz-adv-x="518" 
d="M74 -266v67h198v1565h-198v68h284v-1700h-284z" />
    <glyph glyph-name="asciicircum" unicode="^" horiz-adv-x="614" 
d="M129 1092l143 313h70l143 -313h-82l-98 213l-98 -213h-78z" />
    <glyph glyph-name="underscore" unicode="_" horiz-adv-x="925" 
d="M-4 -324v72h934v-72h-934z" />
    <glyph glyph-name="grave" unicode="`" horiz-adv-x="1024" 
d="M571 1180l-168 204l97 52l131 -256h-60z" />
    <glyph glyph-name="a" unicode="a" horiz-adv-x="706" 
d="M303 -18q-108 0 -177 94t-69 237v17q0 153 75.5 248.5t207.5 95.5q93 0 180 -41v135q0 114 -52 176t-153 62q-108 0 -198 -50v84q96 47 202 47q132 0 209 -77q35 -35 56.5 -96t21.5 -136v-778h-86v156q-71 -174 -217 -174zM315 57q91 0 148 83.5t57 195.5v215
q-91 43 -176 43q-97 0 -149 -71.5t-52 -188.5v-17q0 -114 45 -187t127 -73z" />
    <glyph glyph-name="b" unicode="b" horiz-adv-x="770" 
d="M420 -16q-77 0 -133.5 61t-91.5 162v-207h-86v1448h86v-580q35 101 91.5 162.5t133.5 61.5q117 0 198.5 -143.5t81.5 -391.5v-39q0 -246 -82 -390t-198 -144zM410 59q87 0 145.5 123.5t58.5 337.5v35q0 214 -58.5 337.5t-145.5 123.5q-88 0 -154 -123.5t-66 -329.5v-51
q0 -206 66 -329.5t154 -123.5z" />
    <glyph glyph-name="c" unicode="c" horiz-adv-x="575" 
d="M393 -14q-65 0 -122.5 32t-104 95.5t-73.5 169t-27 241.5v21q0 135 28 242t74.5 171.5t104 98t120.5 33.5q72 0 129 -37v-95q-64 50 -131 50q-43 0 -84.5 -28t-76.5 -82t-56.5 -144.5t-21.5 -204.5v-29q0 -117 21 -206.5t56.5 -141.5t78.5 -78t91 -26q65 0 123 49v-90
q-57 -41 -129 -41z" />
    <glyph glyph-name="d" unicode="d" horiz-adv-x="770" 
d="M350 -16q-117 0 -198.5 143t-81.5 391v39q0 246 82 390.5t198 144.5q77 0 133.5 -61.5t91.5 -162.5v580h87v-1448h-87v207q-35 -101 -91.5 -162t-133.5 -61zM360 59q88 0 154 123.5t66 329.5v51q0 206 -66 329.5t-154 123.5q-87 0 -145.5 -123.5t-58.5 -337.5v-35
q0 -214 58.5 -337.5t145.5 -123.5z" />
    <glyph glyph-name="e" unicode="e" horiz-adv-x="712" 
d="M408 -14q-144 0 -243 139t-99 393v19q0 267 84 411t210 144q124 0 202.5 -140.5t78.5 -386.5v-63h-489q3 -209 78 -321.5t190 -112.5q50 0 92 14t94 49l10 -88q-58 -33 -102 -45t-106 -12zM152 578h405q0 187 -55.5 310.5t-141.5 123.5q-88 0 -145 -113t-63 -321z" />
    <glyph glyph-name="f" unicode="f" horiz-adv-x="438" 
d="M152 0v995h-111v80h111v125q0 136 63 199q53 53 145 53q32 0 64 -8v-84q-32 8 -62 8q-124 0 -124 -170v-123h176v-80h-176v-995h-86z" />
    <glyph glyph-name="g" unicode="g" horiz-adv-x="770" 
d="M350 -270q-117 0 -235 43v88q128 -51 239 -51q221 0 221 217v254q-35 -101 -91.5 -162.5t-133.5 -61.5q-114 0 -197 136t-83 372v19q0 233 83 370.5t197 137.5q77 0 133.5 -61.5t91.5 -162.5v207h87v-1044q0 -145 -76 -221q-80 -80 -236 -80zM360 133q85 0 152.5 119
t67.5 313v19q0 194 -67.5 313t-152.5 119q-84 0 -144 -116.5t-60 -317.5v-15q0 -201 60 -317.5t144 -116.5z" />
    <glyph glyph-name="h" unicode="h" horiz-adv-x="761" 
d="M109 0v1448h86v-530q72 174 221 174q111 0 178.5 -89.5t67.5 -250.5v-752h-87v743q0 133 -45.5 204t-130.5 71q-87 0 -145.5 -81t-58.5 -210v-727h-86z" />
    <glyph glyph-name="i" unicode="i" horiz-adv-x="327" 
d="M117 1305v143h94v-143h-94zM121 0v1075h86v-1075h-86z" />
    <glyph glyph-name="j" unicode="j" horiz-adv-x="342" 
d="M131 1305v143h94v-143h-94zM18 -270q-36 0 -59 10v80q24 -8 51 -8q73 0 99 48.5t26 141.5v1073h86v-1104q0 -48 -9.5 -88.5t-31.5 -76t-63.5 -56t-98.5 -20.5z" />
    <glyph glyph-name="k" unicode="k" horiz-adv-x="671" 
d="M109 0v1448h86v-969l309 596h96l-240 -432l263 -643h-95l-219 553l-114 -207v-346h-86z" />
    <glyph glyph-name="l" unicode="l" horiz-adv-x="327" 
d="M121 0v1448h86v-1448h-86z" />
    <glyph glyph-name="m" unicode="m" horiz-adv-x="1204" 
d="M109 0v1075h86v-157q72 174 215 174q151 0 211 -183q81 183 237 183q113 0 179.5 -87.5t66.5 -248.5v-756h-86v748q0 132 -44.5 201t-125.5 69q-85 0 -142 -79.5t-57 -207.5v-731h-86v748q0 132 -44.5 201t-125.5 69q-85 0 -141.5 -79.5t-56.5 -207.5v-731h-86z" />
    <glyph glyph-name="n" unicode="n" horiz-adv-x="761" 
d="M109 0v1075h86v-157q72 174 221 174q111 0 178.5 -89.5t67.5 -250.5v-752h-87v743q0 133 -45.5 204t-130.5 71q-87 0 -145.5 -81t-58.5 -210v-727h-86z" />
    <glyph glyph-name="o" unicode="o" horiz-adv-x="741" 
d="M371 -16q-126 0 -215.5 149.5t-89.5 394.5v19q0 245 90 395t217 150q126 0 214.5 -149.5t88.5 -395.5v-19q0 -245 -89.5 -394.5t-215.5 -149.5zM371 63q93 0 156 128.5t63 336.5v19q0 208 -63 336.5t-156 128.5t-156 -128.5t-63 -336.5v-19q0 -208 63 -336.5t156 -128.5z
" />
    <glyph glyph-name="p" unicode="p" horiz-adv-x="770" 
d="M109 -266v1341h86v-207q35 101 91.5 162.5t133.5 61.5q117 0 198.5 -143.5t81.5 -391.5v-39q0 -246 -82 -390t-198 -144q-77 0 -133.5 61t-91.5 162v-473h-86zM410 59q87 0 145.5 123.5t58.5 337.5v35q0 214 -58.5 337.5t-145.5 123.5q-88 0 -154 -123.5t-66 -329.5v-51
q0 -206 66 -329.5t154 -123.5z" />
    <glyph glyph-name="q" unicode="q" horiz-adv-x="770" 
d="M575 -266v473q-35 -101 -91.5 -162t-133.5 -61q-117 0 -198.5 143t-81.5 391v39q0 246 82 390.5t198 144.5q77 0 133.5 -61.5t91.5 -162.5v207h87v-1341h-87zM360 59q88 0 154 123.5t66 329.5v51q0 206 -66 329.5t-154 123.5q-87 0 -145.5 -123.5t-58.5 -337.5v-35
q0 -214 58.5 -337.5t145.5 -123.5z" />
    <glyph glyph-name="r" unicode="r" horiz-adv-x="479" 
d="M109 0v1075h86v-157q33 80 97 127.5t154 41.5v-92h-4q-108 0 -177.5 -70t-69.5 -204v-721h-86z" />
    <glyph glyph-name="s" unicode="s" horiz-adv-x="571" 
d="M266 -12q-107 0 -215 51v90q116 -61 219 -61q70 0 117 43t47 116v4q0 58 -38.5 121t-131.5 152q-120 114 -165.5 188t-45.5 156v4q0 108 71.5 171.5t172.5 63.5q100 0 178 -34v-90q-89 45 -182 45q-67 0 -110.5 -41.5t-43.5 -110.5v-4q0 -58 36 -112.5t134 -151.5
q117 -116 164 -192t47 -160v-5q0 -110 -75.5 -176.5t-178.5 -66.5z" />
    <glyph glyph-name="t" unicode="t" horiz-adv-x="460" 
d="M332 -8q-191 0 -191 188v815h-102v80h102v303h86v-303h174v-80h-174v-802q0 -67 28.5 -93t84.5 -26q39 0 66 10v-80q-30 -12 -74 -12z" />
    <glyph glyph-name="u" unicode="u" horiz-adv-x="761" 
d="M346 -16q-111 0 -178.5 89.5t-67.5 250.5v751h86v-743q0 -133 45.5 -204t130.5 -71q88 0 146.5 81t58.5 210v727h86v-1075h-86v158q-72 -174 -221 -174z" />
    <glyph glyph-name="v" unicode="v" horiz-adv-x="712" 
d="M319 -6l-264 1081h88l213 -930l217 930h84l-264 -1081h-74z" />
    <glyph glyph-name="w" unicode="w" horiz-adv-x="1091" 
d="M289 -6l-223 1081h90l172 -932l182 932h78l178 -932l176 932h84l-223 -1081h-78l-180 905l-178 -905h-78z" />
    <glyph glyph-name="x" unicode="x" horiz-adv-x="690" 
d="M162 1075l182 -442l182 442h86l-221 -516l240 -559h-88l-201 481l-199 -481h-86l238 555l-221 520h88z" />
    <glyph glyph-name="y" unicode="y" horiz-adv-x="708" 
d="M354 158l213 917h86l-325 -1341h-82l67 276l-260 1065h88z" />
    <glyph glyph-name="z" unicode="z" horiz-adv-x="593" 
d="M53 0v51l391 948h-370v76h465v-51l-392 -948h381v-76h-475z" />
    <glyph glyph-name="braceleft" unicode="{" horiz-adv-x="544" 
d="M500 -279q-153 7 -223 77.5t-70 185.5q0 65 41 185.5t41 195.5q0 34 -12.5 67t-38.5 63t-73 48t-108 18h-18v62h18q117 0 174.5 61.5t57.5 136.5q0 72 -41 197.5t-41 204.5q0 44 16 84t49 75t92 57.5t136 26.5v-63q-100 -3 -153.5 -55t-53.5 -134q0 -70 41 -188t41 -188
q0 -55 -17 -103.5t-63 -89.5t-115 -53q102 -20 148.5 -88.5t46.5 -155.5q0 -71 -41 -188.5t-41 -188.5q0 -81 53.5 -132t153.5 -54v-64z" />
    <glyph glyph-name="bar" unicode="|" horiz-adv-x="442" 
d="M184 -201v1774h74v-1774h-74z" />
    <glyph glyph-name="braceright" unicode="}" horiz-adv-x="544" 
d="M45 -279v64q100 3 153.5 54.5t53.5 133.5q0 71 -41 188.5t-41 188.5q0 55 17 103.5t63 89.5t115 53q-102 20 -148.5 88.5t-46.5 155.5q0 70 41 188t41 189q0 81 -53.5 132t-153.5 54v63q153 -7 223 -77t70 -185q0 -65 -41 -185.5t-41 -195.5q0 -34 12.5 -67t38 -63
t72.5 -48t108 -18h19v-62h-19q-61 0 -108 -18.5t-72.5 -49t-38 -63.5t-12.5 -67q0 -72 41 -197.5t41 -204.5q0 -44 -16 -84t-49 -75.5t-92 -58t-136 -26.5z" />
    <glyph glyph-name="asciitilde" unicode="~" horiz-adv-x="602" 
d="M391 512q-30 0 -50.5 11.5t-51.5 41.5q-50 47 -70 47q-32 0 -57 -92l-62 17q38 153 111 153q30 0 50.5 -11.5t51.5 -41.5q50 -47 70 -47q32 0 57 92l62 -16q-38 -154 -111 -154z" />
    <glyph glyph-name="uni00A0" unicode="&#xa0;" horiz-adv-x="337" 
 />
    <glyph glyph-name="exclamdown" unicode="&#xa1;" horiz-adv-x="393" 
d="M135 1266v168h123v-168h-123zM143 0v143l31 916h45l31 -916v-143h-107z" />
    <glyph glyph-name="cent" unicode="&#xa2;" horiz-adv-x="593" 
d="M383 1440v-170q71 -2 145 -45v-88q-74 44 -145 49v-940q74 3 145 51v-86q-64 -42 -145 -45v-176h-70v180q-115 24 -178 156t-63 379v20q0 247 63.5 380t177.5 159v176h70zM158 700q0 -386 155 -444v920q-155 -59 -155 -447v-29z" />
    <glyph glyph-name="sterling" unicode="&#xa3;" horiz-adv-x="659" 
d="M66 0v43l102 37v590h-111v75h111v353q0 176 96 272q78 78 195 78q62 0 121 -23v-86q-60 27 -117 27q-84 0 -139 -55q-68 -68 -68 -215v-351h262v-75h-262v-590h379v-80h-569z" />
    <glyph glyph-name="yen" unicode="&#xa5;" horiz-adv-x="700" 
d="M109 563v72h184l-283 799h99l243 -725l244 725h94l-284 -799h186v-72h-199v-203h199v-71h-199v-289h-86v289h-198v71h198v203h-198z" />
    <glyph glyph-name="section" unicode="&#xa7;" horiz-adv-x="737" 
d="M459 430q69 -51 97 -98t28 -113v-6q0 -97 -72 -162t-184 -65q-97 0 -172 34v91q86 -45 178 -45q73 0 118.5 41t45.5 104v6q0 63 -44.5 109.5t-162.5 115.5q-141 83 -193.5 144t-52.5 143v4q0 170 234 271q-69 51 -97 97.5t-28 112.5v7q0 97 72 162t184 65q95 0 172 -35
v-90q-86 45 -179 45q-73 0 -118 -40.5t-45 -104.5v-6q0 -64 44.5 -110.5t161.5 -115.5q142 -84 194 -144.5t52 -141.5v-5q0 -166 -233 -270zM393 475q213 87 213 221v4q0 58 -42.5 104.5t-153.5 113.5q-8 5 -21.5 13t-24.5 14.5t-20 12.5q-213 -87 -213 -221v-4
q0 -57 43 -103t154 -114q49 -30 65 -41z" />
    <glyph glyph-name="dieresis" unicode="&#xa8;" horiz-adv-x="1024" 
d="M567 1200v137h95v-137h-95zM362 1200v137h95v-137h-95z" />
    <glyph glyph-name="copyright" unicode="&#xa9;" horiz-adv-x="1071" 
d="M535 -20q-145 0 -257 95.5t-170.5 254.5t-58.5 352v72q0 194 58.5 353t170.5 254t257 95t257 -95t171 -254t59 -353v-72q0 -193 -59 -352t-171 -254.5t-257 -95.5zM535 31q132 0 232 90t151 236.5t51 324.5v72q0 178 -51 324.5t-151 236.5t-232 90t-232 -90
t-150.5 -236.5t-50.5 -324.5v-72q0 -178 50.5 -324.5t150.5 -236.5t232 -90zM553 311q-94 0 -154.5 101t-60.5 295v22q0 193 62 293t159 100q49 0 88 -22v-78q-51 29 -84 29q-64 0 -107.5 -82t-43.5 -236v-33q0 -155 42.5 -236t108.5 -81q39 0 86 31v-76q-47 -27 -96 -27z
" />
    <glyph glyph-name="ordfeminine" unicode="&#xaa;" horiz-adv-x="512" 
d="M223 825q-58 0 -96.5 51t-38.5 132v12q0 85 42 136.5t112 51.5q47 0 88 -20v63q0 56 -27 87.5t-74 31.5q-51 0 -108 -29v68q53 29 115 29q87 0 129 -58q34 -43 34 -123v-421h-69v69q-41 -80 -107 -80zM88 659v58h338v-58h-338zM233 887q41 0 69 43t28 102v96
q-48 19 -82 19q-44 0 -68 -34.5t-24 -90.5v-10q0 -57 19.5 -91t57.5 -34z" />
    <glyph glyph-name="guillemotleft" unicode="&#xab;" horiz-adv-x="694" 
d="M313 88l-247 426v16l247 426l62 -32l-217 -400l217 -403zM563 88l-248 426v16l248 426l62 -32l-217 -400l217 -403z" />
    <glyph glyph-name="registered" unicode="&#xae;" horiz-adv-x="638" 
d="M319 727q-114 0 -187 100.5t-73 251.5v37q0 151 73 251.5t187 100.5t187.5 -100.5t73.5 -251.5v-37q0 -151 -73.5 -251.5t-187.5 -100.5zM319 764q101 0 161.5 90t60.5 225v37q0 134 -61 225t-161 91t-160.5 -91t-60.5 -225v-37q0 -135 60.5 -225t160.5 -90zM233 909v391
h74q57 0 89 -32t32 -86v-2q0 -79 -61 -109l73 -162h-49l-67 150q-12 -2 -25 -2h-20v-148h-46zM279 1098h28q35 0 56.5 21t21.5 61q0 36 -21 56.5t-57 20.5h-28v-159z" />
    <glyph glyph-name="macron" unicode="&#xaf;" horiz-adv-x="1024" 
d="M328 1204v80h368v-80h-368z" />
    <glyph glyph-name="degree" unicode="&#xb0;" horiz-adv-x="507" 
d="M254 823q-88 0 -145.5 82t-57.5 223v17q0 141 57.5 223t145.5 82t145.5 -82t57.5 -223v-17q0 -141 -57.5 -223t-145.5 -82zM254 895q59 0 94 63t35 170v17q0 107 -35 170t-94 63t-94 -63t-35 -170v-17q0 -107 35 -170t94 -63z" />
    <glyph glyph-name="plusminus" unicode="&#xb1;" horiz-adv-x="696" 
d="M637 680h-248v-256h-82v256h-248v82h248v256h82v-256h248v-82zM637 199h-578v84h578v-84z" />
    <glyph glyph-name="two.sup" unicode="&#xb2;" 
d="M49 954v45l234 330q67 98 67 166q0 51 -32.5 79t-79.5 28q-87 0 -164 -89v84q70 74 170 74q77 0 128.5 -47t51.5 -127q0 -55 -20 -100t-62 -103l-188 -270h278v-70h-383z" />
    <glyph glyph-name="three.sup" unicode="&#xb3;" 
d="M207 946q-84 0 -144 49v80q61 -61 148 -61q59 0 100 34t41 103q0 137 -209 143h-2v49l187 250h-265v70h359v-51l-195 -258q91 -13 145 -62.5t54 -138.5q0 -96 -62 -151.5t-157 -55.5z" />
    <glyph glyph-name="acute" unicode="&#xb4;" horiz-adv-x="1024" 
d="M393 1180l131 256l97 -52l-168 -204h-60z" />
    <glyph glyph-name="paragraph" unicode="&#xb6;" horiz-adv-x="665" 
d="M461 0v528q-199 0 -309.5 123.5t-110.5 331.5v4q0 205 111 326t301 121h98v-1434h-90z" />
    <glyph glyph-name="periodcentered" unicode="&#xb7;" horiz-adv-x="311" 
d="M90 522v174h131v-174h-131z" />
    <glyph glyph-name="cedilla" unicode="&#xb8;" horiz-adv-x="1024" 
d="M479 -225l-94 39l121 206h63z" />
    <glyph glyph-name="one.sup" unicode="&#xb9;" horiz-adv-x="399" 
d="M254 954h-72v623l-137 -76v74l143 88h66v-709z" />
    <glyph glyph-name="ordmasculine" unicode="&#xba;" horiz-adv-x="512" 
d="M256 825q-79 0 -125.5 82t-46.5 215v21q0 133 46.5 215t125.5 82t125.5 -82t46.5 -215v-21q0 -133 -46.5 -215t-125.5 -82zM96 659v58h324v-58h-324zM256 891q52 0 77 65.5t25 165.5v21q0 100 -25 165.5t-77 65.5t-77 -65.5t-25 -165.5v-21q0 -100 25 -165.5t77 -65.5z
" />
    <glyph glyph-name="guillemotright" unicode="&#xbb;" horiz-adv-x="694" 
d="M381 956l248 -426v-16l-248 -426l-62 33l218 399l-218 404zM131 956l248 -426v-16l-248 -426l-61 33l217 399l-217 404z" />
    <glyph glyph-name="onequarter" unicode="&#xbc;" horiz-adv-x="1013" 
d="M260 725h-72v623l-137 -76v74l144 88h65v-709zM168 0l297 733l283 703h71l-297 -734l-284 -702h-70zM885 147v-147h-66v147h-276v52l260 514h82v-504h71v-62h-71zM819 209v389h-8l-193 -389h201z" />
    <glyph glyph-name="onehalf" unicode="&#xbd;" horiz-adv-x="1013" 
d="M561 0v45l234 330q67 98 67 166q0 51 -32.5 78.5t-79.5 27.5q-88 0 -164 -88v84q70 74 170 74q77 0 128.5 -47t51.5 -127q0 -55 -20 -100t-62 -103l-188 -270h278v-70h-383zM109 0l297 733l282 703h72l-297 -734l-285 -702h-69zM260 725h-72v623l-137 -76v74l144 88h65
v-709z" />
    <glyph glyph-name="threequarters" unicode="&#xbe;" horiz-adv-x="1105" 
d="M985 147v-147h-65v147h-277v52l260 514h82v-504h72v-62h-72zM920 209v389h-9l-192 -389h201zM266 0l297 733l283 703h72l-297 -734l-285 -702h-70zM209 717q-83 0 -143 49v80q62 -62 147 -62q58 0 99.5 34.5t41.5 103.5q0 137 -209 143h-2v49l187 250h-264v70h358v-52
l-195 -258q91 -13 145 -62t54 -138q0 -96 -62 -151.5t-157 -55.5z" />
    <glyph glyph-name="questiondown" unicode="&#xbf;" horiz-adv-x="620" 
d="M303 1266v168h123v-168h-123zM371 -8q-134 0 -225 96.5t-91 241.5v12q0 273 271 403l18 314h55l17 -354l-10 -15q-126 -48 -193.5 -129t-67.5 -215v-8q0 -119 67.5 -190.5t164.5 -71.5q92 0 194 57v-88q-94 -53 -200 -53z" />
    <glyph glyph-name="Agrave" unicode="&#xc0;" horiz-adv-x="839" 
d="M57 0l314 1440h98l313 -1440h-94l-84 401h-373l-84 -401h-90zM248 483h340l-170 815zM457 1526h-66l-160 168l99 45z" />
    <glyph glyph-name="Aacute" unicode="&#xc1;" horiz-adv-x="839" 
d="M57 0l314 1440h98l313 -1440h-94l-84 401h-373l-84 -401h-90zM248 483h340l-170 815zM383 1526l127 213l98 -45l-159 -168h-66z" />
    <glyph glyph-name="Acircumflex" unicode="&#xc2;" horiz-adv-x="839" 
d="M57 0l314 1440h98l313 -1440h-94l-84 401h-373l-84 -401h-90zM248 483h340l-170 815zM231 1526l148 198h82l147 -198h-86l-104 119l-105 -119h-82z" />
    <glyph glyph-name="Atilde" unicode="&#xc3;" horiz-adv-x="839" 
d="M57 0l314 1440h98l313 -1440h-94l-84 401h-373l-84 -401h-90zM248 483h340l-170 815zM279 1538l-66 16q46 134 117 134q21 0 40 -6t30 -13t36 -24q56 -37 74 -37q34 0 59 71l66 -16q-46 -133 -117 -133q-21 0 -40 6t-30 13t-36 24q-56 37 -74 37q-19 0 -32.5 -17.5
t-26.5 -54.5z" />
    <glyph glyph-name="Adieresis" unicode="&#xc4;" horiz-adv-x="839" 
d="M57 0l314 1440h98l313 -1440h-94l-84 401h-373l-84 -401h-90zM248 483h340l-170 815zM475 1546v129h103v-129h-103zM262 1546v129h103v-129h-103z" />
    <glyph glyph-name="Aring" unicode="&#xc5;" horiz-adv-x="839" 
d="M57 0l297 1364q-44 15 -71 53.5t-27 87.5q0 64 48 108t116 44t114 -44t46 -108q0 -46 -26.5 -83t-70.5 -56l299 -1366h-94l-84 401h-373l-84 -401h-90zM248 483h340l-170 815zM418 1409q43 0 70.5 27.5t27.5 68.5t-28 69t-70 28q-43 0 -71 -28t-28 -69t28 -68.5t71 -27.5
z" />
    <glyph glyph-name="AE" unicode="&#xc6;" horiz-adv-x="1042" 
d="M6 0l404 1434h569v-82h-397v-588h362v-82h-362v-600h403v-82h-493v401h-285l-113 -401h-88zM229 483h263v869h-21z" />
    <glyph glyph-name="Ccedilla" unicode="&#xc7;" horiz-adv-x="673" 
d="M367 -225l-95 39l107 184q-137 39 -220 218t-83 482v37q0 174 31 311.5t84 223.5t121.5 131t146.5 45q74 0 139 -35v-96q-77 45 -139 45q-126 0 -209.5 -164.5t-83.5 -460.5v-37q0 -296 83.5 -460t209.5 -164q72 0 145 47v-92q-67 -41 -149 -41h-11z" />
    <glyph glyph-name="Egrave" unicode="&#xc8;" horiz-adv-x="665" 
d="M115 0v1434h487v-82h-397v-588h362v-82h-362v-600h403v-82h-493zM399 1516h-65l-160 167l98 46z" />
    <glyph glyph-name="Eacute" unicode="&#xc9;" horiz-adv-x="665" 
d="M115 0v1434h487v-82h-397v-588h362v-82h-362v-600h403v-82h-493zM326 1516l127 213l98 -46l-160 -167h-65z" />
    <glyph glyph-name="Ecircumflex" unicode="&#xca;" horiz-adv-x="665" 
d="M115 0v1434h487v-82h-397v-588h362v-82h-362v-600h403v-82h-493zM174 1526l148 198h81l148 -198h-86l-105 119l-104 -119h-82z" />
    <glyph glyph-name="Edieresis" unicode="&#xcb;" horiz-adv-x="665" 
d="M115 0v1434h487v-82h-397v-588h362v-82h-362v-600h403v-82h-493zM418 1536v129h102v-129h-102zM205 1536v129h102v-129h-102z" />
    <glyph glyph-name="Igrave" unicode="&#xcc;" horiz-adv-x="348" 
d="M129 0v1434h90v-1434h-90zM211 1516h-66l-159 167l98 46z" />
    <glyph glyph-name="Iacute" unicode="&#xcd;" horiz-adv-x="348" 
d="M129 0v1434h90v-1434h-90zM137 1516l127 213l98 -46l-159 -167h-66z" />
    <glyph glyph-name="Icircumflex" unicode="&#xce;" horiz-adv-x="348" 
d="M129 0v1434h90v-1434h-90zM-14 1526l147 198h82l147 -198h-86l-104 119l-104 -119h-82z" />
    <glyph glyph-name="Idieresis" unicode="&#xcf;" horiz-adv-x="348" 
d="M129 0v1434h90v-1434h-90zM229 1536v129h103v-129h-103zM16 1536v129h103v-129h-103z" />
    <glyph glyph-name="Eth" unicode="&#xd0;" horiz-adv-x="831" 
d="M127 0v682h-113v78h113v674h170q206 0 332.5 -182t126.5 -517v-37q0 -335 -126.5 -516.5t-332.5 -181.5h-170zM397 682h-180v-600h82q166 0 266.5 159.5t100.5 456.5v37q0 295 -102.5 456t-268.5 161h-78v-592h180v-78z" />
    <glyph glyph-name="Ntilde" unicode="&#xd1;" horiz-adv-x="860" 
d="M115 0v1434h98l446 -1205v1205h86v-1434h-88l-456 1233v-1233h-86zM289 1518l-66 16q46 133 117 133q21 0 40 -6t30 -13t36 -24q56 -37 74 -37q34 0 60 72l65 -17q-46 -133 -117 -133q-21 0 -40 6t-30 13t-36 24q-56 37 -74 37q-34 0 -59 -71z" />
    <glyph glyph-name="Ograve" unicode="&#xd2;" horiz-adv-x="831" 
d="M416 -16q-152 0 -246 186t-94 530v33q0 344 94 530.5t246 186.5t246 -186.5t94 -530.5v-33q0 -344 -94 -530t-246 -186zM416 66q110 0 180 165.5t70 468.5v33q0 303 -70 469t-180 166t-180 -166t-70 -469v-33q0 -303 70 -468.5t180 -165.5zM453 1526h-66l-160 168l99 45z
" />
    <glyph glyph-name="Oacute" unicode="&#xd3;" horiz-adv-x="831" 
d="M416 -16q-152 0 -246 186t-94 530v33q0 344 94 530.5t246 186.5t246 -186.5t94 -530.5v-33q0 -344 -94 -530t-246 -186zM416 66q110 0 180 165.5t70 468.5v33q0 303 -70 469t-180 166t-180 -166t-70 -469v-33q0 -303 70 -468.5t180 -165.5zM379 1526l127 213l98 -45
l-160 -168h-65z" />
    <glyph glyph-name="Ocircumflex" unicode="&#xd4;" horiz-adv-x="831" 
d="M416 -16q-152 0 -246 186t-94 530v33q0 344 94 530.5t246 186.5t246 -186.5t94 -530.5v-33q0 -344 -94 -530t-246 -186zM416 66q110 0 180 165.5t70 468.5v33q0 303 -70 469t-180 166t-180 -166t-70 -469v-33q0 -303 70 -468.5t180 -165.5zM227 1536l148 199h82l147 -199
h-86l-104 119l-105 -119h-82z" />
    <glyph glyph-name="Otilde" unicode="&#xd5;" horiz-adv-x="831" 
d="M416 -16q-152 0 -246 186t-94 530v33q0 344 94 530.5t246 186.5t246 -186.5t94 -530.5v-33q0 -344 -94 -530t-246 -186zM416 66q110 0 180 165.5t70 468.5v33q0 303 -70 469t-180 166t-180 -166t-70 -469v-33q0 -303 70 -468.5t180 -165.5zM274 1538l-65 16
q46 134 117 134q21 0 40 -6t30 -13t36 -24q56 -37 74 -37q34 0 59 71l66 -16q-46 -133 -117 -133q-21 0 -40 6t-30 13t-36 24q-56 37 -74 37q-34 0 -60 -72z" />
    <glyph glyph-name="Odieresis" unicode="&#xd6;" horiz-adv-x="831" 
d="M416 -16q-152 0 -246 186t-94 530v33q0 344 94 530.5t246 186.5t246 -186.5t94 -530.5v-33q0 -344 -94 -530t-246 -186zM416 66q110 0 180 165.5t70 468.5v33q0 303 -70 469t-180 166t-180 -166t-70 -469v-33q0 -303 70 -468.5t180 -165.5zM471 1546v129h102v-129h-102z
M258 1546v129h102v-129h-102z" />
    <glyph glyph-name="multiply" unicode="&#xd7;" horiz-adv-x="696" 
d="M535 453l-187 209l-186 -209l-60 53l193 215l-193 215l60 53l186 -209l187 209l59 -53l-193 -215l193 -215z" />
    <glyph glyph-name="Oslash" unicode="&#xd8;" horiz-adv-x="831" 
d="M670 1450h88l-86 -209q84 -189 84 -508v-33q0 -344 -94 -530t-246 -186q-123 0 -205 116l-49 -116h-88l86 209q-84 189 -84 507v33q0 344 94 530.5t246 186.5q123 0 205 -119zM164 700q0 -244 43 -395l379 926q-66 139 -170 139q-110 0 -181 -167t-71 -470v-33zM416 63
q110 0 181 167t71 470v33q0 231 -43 393l-379 -925q66 -138 170 -138z" />
    <glyph glyph-name="Ugrave" unicode="&#xd9;" horiz-adv-x="833" 
d="M416 -18q-143 0 -226.5 104.5t-83.5 282.5v1065h91v-1067q0 -145 58.5 -224.5t160.5 -79.5t161.5 79.5t59.5 224.5v1067h90v-1065q0 -178 -84 -282.5t-227 -104.5zM453 1505h-66l-160 168l99 45z" />
    <glyph glyph-name="Uacute" unicode="&#xda;" horiz-adv-x="833" 
d="M416 -18q-143 0 -226.5 104.5t-83.5 282.5v1065h91v-1067q0 -145 58.5 -224.5t160.5 -79.5t161.5 79.5t59.5 224.5v1067h90v-1065q0 -178 -84 -282.5t-227 -104.5zM379 1505l127 213l98 -45l-160 -168h-65z" />
    <glyph glyph-name="Ucircumflex" unicode="&#xdb;" horiz-adv-x="833" 
d="M416 -18q-143 0 -226.5 104.5t-83.5 282.5v1065h91v-1067q0 -145 58.5 -224.5t160.5 -79.5t161.5 79.5t59.5 224.5v1067h90v-1065q0 -178 -84 -282.5t-227 -104.5zM227 1516l148 198h82l147 -198h-86l-104 118l-105 -118h-82z" />
    <glyph glyph-name="Udieresis" unicode="&#xdc;" horiz-adv-x="833" 
d="M416 -18q-143 0 -226.5 104.5t-83.5 282.5v1065h91v-1067q0 -145 58.5 -224.5t160.5 -79.5t161.5 79.5t59.5 224.5v1067h90v-1065q0 -178 -84 -282.5t-227 -104.5zM471 1526v129h102v-129h-102zM258 1526v129h102v-129h-102z" />
    <glyph glyph-name="Yacute" unicode="&#xdd;" horiz-adv-x="720" 
d="M315 0v618l-299 816h99l247 -703l250 703h93l-299 -816v-618h-91zM324 1505l127 213l98 -45l-160 -168h-65z" />
    <glyph glyph-name="Thorn" unicode="&#xde;" horiz-adv-x="745" 
d="M115 0v1434h90v-250h88q190 0 301 -121t111 -326v-4q0 -208 -110.5 -331t-309.5 -123h-80v-279h-90zM205 358h88q154 0 237.5 98.5t83.5 274.5v4q0 173 -87 270t-238 97h-84v-744z" />
    <glyph glyph-name="germandbls" unicode="&#xdf;" horiz-adv-x="745" 
d="M315 -4v74q142 9 213.5 90t71.5 215v6q0 275 -285 328v67q86 30 142.5 89t78 123.5t21.5 137.5v7q0 114 -50 176.5t-126 62.5q-86 0 -136 -77.5t-50 -211.5v-1083h-86v1077q0 177 74 277t200 100q113 0 186.5 -86t73.5 -229v-11q0 -135 -61.5 -231.5t-165.5 -142.5
q270 -88 270 -365v-12q0 -170 -98 -273.5t-273 -107.5z" />
    <glyph glyph-name="agrave" unicode="&#xe0;" horiz-adv-x="706" 
d="M303 -18q-108 0 -177 94t-69 237v17q0 153 75.5 248.5t207.5 95.5q93 0 180 -41v135q0 114 -52 176t-153 62q-108 0 -198 -50v84q96 47 202 47q132 0 209 -77q35 -35 56.5 -96t21.5 -136v-778h-86v156q-71 -174 -217 -174zM315 57q91 0 148 83.5t57 195.5v215
q-91 43 -176 43q-97 0 -149 -71.5t-52 -188.5v-17q0 -114 45 -187t127 -73zM328 1180l-168 204l96 52l131 -256h-59z" />
    <glyph glyph-name="aacute" unicode="&#xe1;" horiz-adv-x="706" 
d="M303 -18q-108 0 -177 94t-69 237v17q0 153 75.5 248.5t207.5 95.5q93 0 180 -41v135q0 114 -52 176t-153 62q-108 0 -198 -50v84q96 47 202 47q132 0 209 -77q35 -35 56.5 -96t21.5 -136v-778h-86v156q-71 -174 -217 -174zM315 57q91 0 148 83.5t57 195.5v215
q-91 43 -176 43q-97 0 -149 -71.5t-52 -188.5v-17q0 -114 45 -187t127 -73zM313 1180l131 256l97 -52l-168 -204h-60z" />
    <glyph glyph-name="acircumflex" unicode="&#xe2;" horiz-adv-x="706" 
d="M303 -18q-108 0 -177 94t-69 237v17q0 153 75.5 248.5t207.5 95.5q93 0 180 -41v135q0 114 -52 176t-153 62q-108 0 -198 -50v84q96 47 202 47q132 0 209 -77q35 -35 56.5 -96t21.5 -136v-778h-86v156q-71 -174 -217 -174zM315 57q91 0 148 83.5t57 195.5v215
q-91 43 -176 43q-97 0 -149 -71.5t-52 -188.5v-17q0 -114 45 -187t127 -73zM178 1190l137 250h70l137 -250h-76l-98 153l-98 -153h-72z" />
    <glyph glyph-name="atilde" unicode="&#xe3;" horiz-adv-x="706" 
d="M303 -18q-108 0 -177 94t-69 237v17q0 153 75.5 248.5t207.5 95.5q93 0 180 -41v135q0 114 -52 176t-153 62q-108 0 -198 -50v84q96 47 202 47q132 0 209 -77q35 -35 56.5 -96t21.5 -136v-778h-86v156q-71 -174 -217 -174zM315 57q91 0 148 83.5t57 195.5v215
q-91 43 -176 43q-97 0 -149 -71.5t-52 -188.5v-17q0 -114 45 -187t127 -73zM444 1184q-30 0 -50.5 11.5t-51.5 41.5q-50 47 -70 47q-32 0 -57 -92l-61 16q38 154 110 154q30 0 51 -12t52 -41q30 -28 43.5 -37.5t25.5 -9.5q33 0 58 92l61 -17q-38 -153 -111 -153z" />
    <glyph glyph-name="adieresis" unicode="&#xe4;" horiz-adv-x="706" 
d="M303 -18q-108 0 -177 94t-69 237v17q0 153 75.5 248.5t207.5 95.5q93 0 180 -41v135q0 114 -52 176t-153 62q-108 0 -198 -50v84q96 47 202 47q132 0 209 -77q35 -35 56.5 -96t21.5 -136v-778h-86v156q-71 -174 -217 -174zM315 57q91 0 148 83.5t57 195.5v215
q-91 43 -176 43q-97 0 -149 -71.5t-52 -188.5v-17q0 -114 45 -187t127 -73zM406 1200v137h94v-137h-94zM201 1200v137h94v-137h-94z" />
    <glyph glyph-name="aring" unicode="&#xe5;" horiz-adv-x="706" 
d="M303 -18q-108 0 -177 94t-69 237v17q0 153 75.5 248.5t207.5 95.5q93 0 180 -41v135q0 114 -52 176t-153 62q-108 0 -198 -50v84q96 47 202 47q132 0 209 -77q35 -35 56.5 -96t21.5 -136v-778h-86v156q-71 -174 -217 -174zM315 57q91 0 148 83.5t57 195.5v215
q-91 43 -176 43q-97 0 -149 -71.5t-52 -188.5v-17q0 -114 45 -187t127 -73zM348 1182q-69 0 -114.5 46.5t-45.5 114.5t47.5 115t116.5 47q68 0 114 -47t46 -115t-47.5 -114.5t-116.5 -46.5zM350 1235q44 0 73.5 31t29.5 77t-29.5 77.5t-73.5 31.5t-73 -31.5t-29 -77.5
t29 -77t73 -31z" />
    <glyph glyph-name="ae" unicode="&#xe6;" horiz-adv-x="1155" 
d="M303 -18q-108 0 -177 94t-69 237v17q0 153 75.5 248.5t207.5 95.5q93 0 180 -41v135q0 114 -52 176t-153 62q-108 0 -198 -50v84q96 47 202 47q207 0 261 -182q38 91 96 139t127 48q123 0 201.5 -140.5t78.5 -386.5v-63h-489q3 -209 78 -321.5t190 -112.5q93 0 187 63
l10 -88q-57 -33 -101.5 -45t-107.5 -12q-94 0 -171 62t-120 181q-33 -108 -97 -177.5t-159 -69.5zM594 578h405q0 187 -55 310.5t-141 123.5q-87 0 -145 -113.5t-64 -320.5zM315 57q80 0 137 80t80 191q-21 118 -16 227q-95 39 -172 39q-97 0 -149 -71.5t-52 -188.5v-17
q0 -114 45 -187t127 -73z" />
    <glyph glyph-name="ccedilla" unicode="&#xe7;" horiz-adv-x="575" 
d="M301 -225l-94 39l106 184q-109 36 -178 169t-69 357v21q0 135 28 242t74.5 171.5t104 98t120.5 33.5q72 0 129 -37v-95q-64 50 -131 50q-43 0 -84.5 -28t-76.5 -82t-56.5 -144.5t-21.5 -204.5v-29q0 -117 21 -206.5t56.5 -141.5t78.5 -78t91 -26q65 0 123 49v-90
q-57 -41 -129 -41h-14z" />
    <glyph glyph-name="egrave" unicode="&#xe8;" horiz-adv-x="712" 
d="M408 -14q-144 0 -243 139t-99 393v19q0 267 84 411t210 144q124 0 202.5 -140.5t78.5 -386.5v-63h-489q3 -209 78 -321.5t190 -112.5q50 0 92 14t94 49l10 -88q-58 -33 -102 -45t-106 -12zM152 578h405q0 187 -55.5 310.5t-141.5 123.5q-88 0 -145 -113t-63 -321z
M338 1180l-168 204l96 52l131 -256h-59z" />
    <glyph glyph-name="eacute" unicode="&#xe9;" horiz-adv-x="712" 
d="M408 -14q-144 0 -243 139t-99 393v19q0 267 84 411t210 144q124 0 202.5 -140.5t78.5 -386.5v-63h-489q3 -209 78 -321.5t190 -112.5q50 0 92 14t94 49l10 -88q-58 -33 -102 -45t-106 -12zM152 578h405q0 187 -55.5 310.5t-141.5 123.5q-88 0 -145 -113t-63 -321z
M324 1180l131 256l96 -52l-168 -204h-59z" />
    <glyph glyph-name="ecircumflex" unicode="&#xea;" horiz-adv-x="712" 
d="M408 -14q-144 0 -243 139t-99 393v19q0 267 84 411t210 144q124 0 202.5 -140.5t78.5 -386.5v-63h-489q3 -209 78 -321.5t190 -112.5q50 0 92 14t94 49l10 -88q-58 -33 -102 -45t-106 -12zM152 578h405q0 187 -55.5 310.5t-141.5 123.5q-88 0 -145 -113t-63 -321z
M188 1190l138 250h69l137 -250h-75l-99 153l-98 -153h-72z" />
    <glyph glyph-name="edieresis" unicode="&#xeb;" horiz-adv-x="712" 
d="M408 -14q-144 0 -243 139t-99 393v19q0 267 84 411t210 144q124 0 202.5 -140.5t78.5 -386.5v-63h-489q3 -209 78 -321.5t190 -112.5q50 0 92 14t94 49l10 -88q-58 -33 -102 -45t-106 -12zM152 578h405q0 187 -55.5 310.5t-141.5 123.5q-88 0 -145 -113t-63 -321z
M416 1200v137h94v-137h-94zM211 1200v137h94v-137h-94z" />
    <glyph glyph-name="igrave" unicode="&#xec;" horiz-adv-x="327" 
d="M121 0v1075h86v-1075h-86zM141 1180l-168 204l97 52l131 -256h-60z" />
    <glyph glyph-name="iacute" unicode="&#xed;" horiz-adv-x="327" 
d="M121 0v1075h86v-1075h-86zM127 1180l131 256l96 -52l-168 -204h-59z" />
    <glyph glyph-name="icircumflex" unicode="&#xee;" horiz-adv-x="327" 
d="M121 0v1075h86v-1075h-86zM-8 1190l137 250h70l137 -250h-76l-98 153l-99 -153h-71z" />
    <glyph glyph-name="idieresis" unicode="&#xef;" horiz-adv-x="327" 
d="M121 0v1075h86v-1075h-86zM219 1200v137h94v-137h-94zM14 1200v137h95v-137h-95z" />
    <glyph glyph-name="eth" unicode="&#xf0;" horiz-adv-x="739" 
d="M580 1391l-136 -84q228 -349 228 -725v-31q0 -137 -25 -247.5t-68 -179t-96.5 -104.5t-113.5 -36q-124 0 -213.5 148.5t-89.5 395.5v19q0 244 87 394.5t205 150.5q84 0 166 -111q-50 143 -147 285l-144 -90l-38 61l141 88q-39 51 -100 123h106q1 -2 25.5 -33.5
t35.5 -48.5l138 86zM369 63q90 0 153.5 127.5t63.5 337.5v19q0 217 -66 341t-155 124q-88 0 -150.5 -129.5t-62.5 -335.5v-19q0 -207 63.5 -336t153.5 -129z" />
    <glyph glyph-name="ntilde" unicode="&#xf1;" horiz-adv-x="761" 
d="M109 0v1075h86v-157q72 174 221 174q111 0 178.5 -89.5t67.5 -250.5v-752h-87v743q0 133 -45.5 204t-130.5 71q-87 0 -145.5 -81t-58.5 -210v-727h-86zM477 1184q-30 0 -50.5 11.5t-51.5 41.5q-50 47 -70 47q-32 0 -57 -92l-62 16q38 154 111 154q30 0 50.5 -11.5
t51.5 -41.5q50 -47 70 -47q32 0 57 92l62 -17q-38 -153 -111 -153z" />
    <glyph glyph-name="ograve" unicode="&#xf2;" horiz-adv-x="741" 
d="M371 -16q-126 0 -215.5 149.5t-89.5 394.5v19q0 245 90 395t217 150q126 0 214.5 -149.5t88.5 -395.5v-19q0 -245 -89.5 -394.5t-215.5 -149.5zM371 63q93 0 156 128.5t63 336.5v19q0 208 -63 336.5t-156 128.5t-156 -128.5t-63 -336.5v-19q0 -208 63 -336.5t156 -128.5z
M348 1180l-168 204l96 52l132 -256h-60z" />
    <glyph glyph-name="oacute" unicode="&#xf3;" horiz-adv-x="741" 
d="M371 -16q-126 0 -215.5 149.5t-89.5 394.5v19q0 245 90 395t217 150q126 0 214.5 -149.5t88.5 -395.5v-19q0 -245 -89.5 -394.5t-215.5 -149.5zM371 63q93 0 156 128.5t63 336.5v19q0 208 -63 336.5t-156 128.5t-156 -128.5t-63 -336.5v-19q0 -208 63 -336.5t156 -128.5z
M334 1180l131 256l96 -52l-168 -204h-59z" />
    <glyph glyph-name="ocircumflex" unicode="&#xf4;" horiz-adv-x="741" 
d="M371 -16q-126 0 -215.5 149.5t-89.5 394.5v19q0 245 90 395t217 150q126 0 214.5 -149.5t88.5 -395.5v-19q0 -245 -89.5 -394.5t-215.5 -149.5zM371 63q93 0 156 128.5t63 336.5v19q0 208 -63 336.5t-156 128.5t-156 -128.5t-63 -336.5v-19q0 -208 63 -336.5t156 -128.5z
M199 1190l137 250h70l137 -250h-76l-98 153l-99 -153h-71z" />
    <glyph glyph-name="otilde" unicode="&#xf5;" horiz-adv-x="741" 
d="M371 -16q-126 0 -215.5 149.5t-89.5 394.5v19q0 245 90 395t217 150q126 0 214.5 -149.5t88.5 -395.5v-19q0 -245 -89.5 -394.5t-215.5 -149.5zM371 63q93 0 156 128.5t63 336.5v19q0 208 -63 336.5t-156 128.5t-156 -128.5t-63 -336.5v-19q0 -208 63 -336.5t156 -128.5z
M465 1184q-30 0 -51 12t-52 41q-30 28 -43.5 37.5t-25.5 9.5q-32 0 -57 -92l-62 16q38 154 111 154q30 0 50.5 -11.5t51.5 -41.5q50 -47 70 -47q32 0 57 92l61 -17q-38 -153 -110 -153z" />
    <glyph glyph-name="odieresis" unicode="&#xf6;" horiz-adv-x="741" 
d="M371 -16q-126 0 -215.5 149.5t-89.5 394.5v19q0 245 90 395t217 150q126 0 214.5 -149.5t88.5 -395.5v-19q0 -245 -89.5 -394.5t-215.5 -149.5zM371 63q93 0 156 128.5t63 336.5v19q0 208 -63 336.5t-156 128.5t-156 -128.5t-63 -336.5v-19q0 -208 63 -336.5t156 -128.5z
M426 1200v137h94v-137h-94zM221 1200v137h94v-137h-94z" />
    <glyph glyph-name="divide" unicode="&#xf7;" horiz-adv-x="696" 
d="M293 909v146h110v-146h-110zM637 676h-578v90h578v-90zM293 387v145h110v-145h-110z" />
    <glyph glyph-name="oslash" unicode="&#xf8;" horiz-adv-x="741" 
d="M586 1083h82l-74 -153q82 -157 82 -383v-19q0 -245 -89.5 -394.5t-215.5 -149.5q-96 0 -176 92l-39 -84h-82l73 155q-81 146 -81 381v19q0 245 90 395t217 150q94 0 174 -93zM371 61q93 0 157 129.5t64 337.5v19q0 173 -43 291l-322 -678q57 -99 144 -99zM150 528
q0 -180 40 -290l324 677q-62 99 -143 99q-93 0 -157 -129.5t-64 -337.5v-19z" />
    <glyph glyph-name="ugrave" unicode="&#xf9;" horiz-adv-x="761" 
d="M346 -16q-111 0 -178.5 89.5t-67.5 250.5v751h86v-743q0 -133 45.5 -204t130.5 -71q88 0 146.5 81t58.5 210v727h86v-1075h-86v158q-72 -174 -221 -174zM354 1169l-168 205l97 51l131 -256h-60z" />
    <glyph glyph-name="uacute" unicode="&#xfa;" horiz-adv-x="761" 
d="M346 -16q-111 0 -178.5 89.5t-67.5 250.5v751h86v-743q0 -133 45.5 -204t130.5 -71q88 0 146.5 81t58.5 210v727h86v-1075h-86v158q-72 -174 -221 -174zM340 1169l131 256l96 -51l-168 -205h-59z" />
    <glyph glyph-name="ucircumflex" unicode="&#xfb;" horiz-adv-x="761" 
d="M346 -16q-111 0 -178.5 89.5t-67.5 250.5v751h86v-743q0 -133 45.5 -204t130.5 -71q88 0 146.5 81t58.5 210v727h86v-1075h-86v158q-72 -174 -221 -174zM205 1180l137 250h70l137 -250h-76l-98 153l-99 -153h-71z" />
    <glyph glyph-name="udieresis" unicode="&#xfc;" horiz-adv-x="761" 
d="M346 -16q-111 0 -178.5 89.5t-67.5 250.5v751h86v-743q0 -133 45.5 -204t130.5 -71q88 0 146.5 81t58.5 210v727h86v-1075h-86v158q-72 -174 -221 -174zM432 1190v137h94v-137h-94zM227 1190v137h95v-137h-95z" />
    <glyph glyph-name="yacute" unicode="&#xfd;" horiz-adv-x="708" 
d="M354 158l213 917h86l-325 -1341h-82l67 276l-260 1065h88zM315 1169l131 256l97 -51l-168 -205h-60z" />
    <glyph glyph-name="thorn" unicode="&#xfe;" horiz-adv-x="770" 
d="M109 -266v1714h86v-580q35 101 91.5 162.5t133.5 61.5q117 0 198.5 -143.5t81.5 -391.5v-39q0 -246 -82 -390t-198 -144q-77 0 -133.5 61t-91.5 162v-473h-86zM410 59q87 0 145.5 123.5t58.5 337.5v35q0 214 -58.5 337.5t-145.5 123.5q-88 0 -154 -123.5t-66 -329.5v-51
q0 -206 66 -329.5t154 -123.5z" />
    <glyph glyph-name="ydieresis" unicode="&#xff;" horiz-adv-x="708" 
d="M354 158l213 917h86l-325 -1341h-82l67 276l-260 1065h88zM203 1190v137h94v-137h-94zM408 1190v137h94v-137h-94z" />
    <glyph glyph-name="Amacron" unicode="&#x100;" horiz-adv-x="839" 
d="M57 0l314 1440h98l313 -1440h-94l-84 401h-373l-84 -401h-90zM248 483h340l-170 815zM223 1550v84h393v-84h-393z" />
    <glyph glyph-name="amacron" unicode="&#x101;" horiz-adv-x="706" 
d="M303 -18q-108 0 -177 94t-69 237v17q0 153 75.5 248.5t207.5 95.5q93 0 180 -41v135q0 114 -52 176t-153 62q-108 0 -198 -50v84q96 47 202 47q132 0 209 -77q35 -35 56.5 -96t21.5 -136v-778h-86v156q-71 -174 -217 -174zM315 57q91 0 148 83.5t57 195.5v215
q-91 43 -176 43q-97 0 -149 -71.5t-52 -188.5v-17q0 -114 45 -187t127 -73zM166 1204v80h369v-80h-369z" />
    <glyph glyph-name="Abreve" unicode="&#x102;" horiz-adv-x="839" 
d="M57 0l314 1440h98l313 -1440h-94l-84 401h-373l-84 -401h-90zM248 483h340l-170 815zM420 1532q-79 0 -131 41.5t-62 120.5h76q23 -80 117 -80t117 80h75q-10 -80 -61.5 -121t-130.5 -41z" />
    <glyph glyph-name="abreve" unicode="&#x103;" horiz-adv-x="706" 
d="M303 -18q-108 0 -177 94t-69 237v17q0 153 75.5 248.5t207.5 95.5q93 0 180 -41v135q0 114 -52 176t-153 62q-108 0 -198 -50v84q96 47 202 47q132 0 209 -77q35 -35 56.5 -96t21.5 -136v-778h-86v156q-71 -174 -217 -174zM315 57q91 0 148 83.5t57 195.5v215
q-91 43 -176 43q-97 0 -149 -71.5t-52 -188.5v-17q0 -114 45 -187t127 -73zM350 1186q-80 0 -130.5 48t-59.5 144h73q10 -58 38.5 -85t78.5 -27t78.5 27t38.5 85h74q-9 -96 -60 -144t-131 -48z" />
    <glyph glyph-name="Aogonek" unicode="&#x104;" horiz-adv-x="839" 
d="M793 -178v-66q-23 -2 -41 -2q-127 0 -127 96q0 64 80 150h-17l-84 401h-373l-84 -401h-90l314 1440h98l313 -1440h-18q-57 -79 -57 -125q0 -29 20.5 -41t65.5 -12zM248 483h340l-170 815z" />
    <glyph glyph-name="aogonek" unicode="&#x105;" horiz-adv-x="706" 
d="M621 -178v-66q-23 -2 -41 -2q-127 0 -127 96q0 65 79 150h-12v156q-71 -174 -217 -174q-108 0 -177 94t-69 237v17q0 153 75.5 248.5t207.5 95.5q93 0 180 -41v135q0 114 -52 176t-153 62q-108 0 -198 -50v84q96 47 202 47q132 0 209 -77q35 -35 56.5 -96t21.5 -136v-778
h-14q-57 -79 -57 -125q0 -29 20.5 -41t65.5 -12zM315 57q91 0 148 83.5t57 195.5v215q-91 43 -176 43q-97 0 -149 -71.5t-52 -188.5v-17q0 -114 45 -187t127 -73z" />
    <glyph glyph-name="Cacute" unicode="&#x106;" horiz-adv-x="673" 
d="M455 -12q-166 0 -272.5 183t-106.5 527v37q0 174 31 311.5t84 223.5t121.5 131t146.5 45q74 0 139 -35v-96q-77 45 -139 45q-126 0 -209.5 -164.5t-83.5 -460.5v-37q0 -296 83.5 -460t209.5 -164q72 0 145 47v-92q-67 -41 -149 -41zM383 1526l127 213l98 -45l-159 -168
h-66z" />
    <glyph glyph-name="cacute" unicode="&#x107;" horiz-adv-x="575" 
d="M393 -14q-65 0 -122.5 32t-104 95.5t-73.5 169t-27 241.5v21q0 135 28 242t74.5 171.5t104 98t120.5 33.5q72 0 129 -37v-95q-64 50 -131 50q-43 0 -84.5 -28t-76.5 -82t-56.5 -144.5t-21.5 -204.5v-29q0 -117 21 -206.5t56.5 -141.5t78.5 -78t91 -26q65 0 123 49v-90
q-57 -41 -129 -41zM326 1180l131 256l96 -52l-168 -204h-59z" />
    <glyph glyph-name="Cdotaccent" unicode="&#x10a;" horiz-adv-x="673" 
d="M455 -12q-166 0 -272.5 183t-106.5 527v37q0 174 31 311.5t84 223.5t121.5 131t146.5 45q74 0 139 -35v-96q-77 45 -139 45q-126 0 -209.5 -164.5t-83.5 -460.5v-37q0 -296 83.5 -460t209.5 -164q72 0 145 47v-92q-67 -41 -149 -41zM367 1546v129h106v-129h-106z" />
    <glyph glyph-name="cdotaccent" unicode="&#x10b;" horiz-adv-x="575" 
d="M393 -14q-65 0 -122.5 32t-104 95.5t-73.5 169t-27 241.5v21q0 135 28 242t74.5 171.5t104 98t120.5 33.5q72 0 129 -37v-95q-64 50 -131 50q-43 0 -84.5 -28t-76.5 -82t-56.5 -144.5t-21.5 -204.5v-29q0 -117 21 -206.5t56.5 -141.5t78.5 -78t91 -26q65 0 123 49v-90
q-57 -41 -129 -41zM311 1200v137h103v-137h-103z" />
    <glyph glyph-name="Ccaron" unicode="&#x10c;" horiz-adv-x="673" 
d="M455 -12q-166 0 -272.5 183t-106.5 527v37q0 174 31 311.5t84 223.5t121.5 131t146.5 45q74 0 139 -35v-96q-77 45 -139 45q-126 0 -209.5 -164.5t-83.5 -460.5v-37q0 -296 83.5 -460t209.5 -164q72 0 145 47v-92q-67 -41 -149 -41zM608 1735l-147 -199h-82l-148 199h86
l105 -119l104 119h82z" />
    <glyph glyph-name="ccaron" unicode="&#x10d;" horiz-adv-x="575" 
d="M393 -14q-65 0 -122.5 32t-104 95.5t-73.5 169t-27 241.5v21q0 135 28 242t74.5 171.5t104 98t120.5 33.5q72 0 129 -37v-95q-64 50 -131 50q-43 0 -84.5 -28t-76.5 -82t-56.5 -144.5t-21.5 -204.5v-29q0 -117 21 -206.5t56.5 -141.5t78.5 -78t91 -26q65 0 123 49v-90
q-57 -41 -129 -41zM535 1440l-138 -250h-69l-138 250h76l99 -154l98 154h72z" />
    <glyph glyph-name="Dcaron" unicode="&#x10e;" horiz-adv-x="819" 
d="M115 0v1434h170q206 0 332 -182t126 -517v-37q0 -335 -126 -516.5t-332 -181.5h-170zM283 1352h-78v-1270h82q166 0 266 159.5t100 456.5v37q0 296 -102.5 456.5t-267.5 160.5zM582 1724l-148 -198h-82l-147 198h86l104 -118l105 118h82z" />
    <glyph glyph-name="dcaron" unicode="&#x10f;" horiz-adv-x="770" 
d="M350 -16q-117 0 -198.5 143t-81.5 391v39q0 246 82 390.5t198 144.5q77 0 133.5 -61.5t91.5 -162.5v580h87v-1448h-87v207q-35 -101 -91.5 -162t-133.5 -61zM360 59q88 0 154 123.5t66 329.5v51q0 206 -66 329.5t-154 123.5q-87 0 -145.5 -123.5t-58.5 -337.5v-35
q0 -214 58.5 -337.5t145.5 -123.5zM727 1145l14 303h78v-4l-51 -299h-41z" />
    <glyph glyph-name="Dcroat" unicode="&#x110;" horiz-adv-x="831" 
d="M127 0v682h-113v78h113v674h170q206 0 332.5 -182t126.5 -517v-37q0 -335 -126.5 -516.5t-332.5 -181.5h-170zM397 682h-180v-600h82q166 0 266.5 159.5t100.5 456.5v37q0 295 -102.5 456t-268.5 161h-78v-592h180v-78z" />
    <glyph glyph-name="dcroat" unicode="&#x111;" horiz-adv-x="770" 
d="M358 1227v73h217v148h87v-148h98v-73h-98v-1227h-87v207q-35 -101 -91.5 -162t-133.5 -61q-117 0 -198.5 143t-81.5 391v39q0 246 82 390.5t198 144.5q77 0 133.5 -61.5t91.5 -162.5v359h-217zM360 59q88 0 154 123.5t66 329.5v51q0 206 -66 329.5t-154 123.5
q-87 0 -145.5 -123.5t-58.5 -337.5v-35q0 -214 58.5 -337.5t145.5 -123.5z" />
    <glyph glyph-name="Emacron" unicode="&#x112;" horiz-adv-x="665" 
d="M115 0v1434h487v-82h-397v-588h362v-82h-362v-600h403v-82h-493zM166 1540v84h393v-84h-393z" />
    <glyph glyph-name="emacron" unicode="&#x113;" horiz-adv-x="712" 
d="M408 -14q-144 0 -243 139t-99 393v19q0 267 84 411t210 144q124 0 202.5 -140.5t78.5 -386.5v-63h-489q3 -209 78 -321.5t190 -112.5q50 0 92 14t94 49l10 -88q-58 -33 -102 -45t-106 -12zM152 578h405q0 187 -55.5 310.5t-141.5 123.5q-88 0 -145 -113t-63 -321z
M176 1204v80h369v-80h-369z" />
    <glyph glyph-name="Ebreve" unicode="&#x114;" horiz-adv-x="665" 
d="M115 0v1434h487v-82h-397v-588h362v-82h-362v-600h403v-82h-493zM362 1522q-79 0 -130.5 41t-61.5 120h76q23 -79 116 -79q94 0 117 79h76q-10 -79 -62 -120t-131 -41z" />
    <glyph glyph-name="ebreve" unicode="&#x115;" horiz-adv-x="712" 
d="M408 -14q-144 0 -243 139t-99 393v19q0 267 84 411t210 144q124 0 202.5 -140.5t78.5 -386.5v-63h-489q3 -209 78 -321.5t190 -112.5q50 0 92 14t94 49l10 -88q-58 -33 -102 -45t-106 -12zM152 578h405q0 187 -55.5 310.5t-141.5 123.5q-88 0 -145 -113t-63 -321z
M360 1186q-80 0 -130.5 48t-59.5 144h74q10 -58 38 -85t78 -27t78.5 27t38.5 85h74q-9 -96 -60 -144t-131 -48z" />
    <glyph glyph-name="Edotaccent" unicode="&#x116;" horiz-adv-x="665" 
d="M115 0v1434h487v-82h-397v-588h362v-82h-362v-600h403v-82h-493zM309 1536v129h107v-129h-107z" />
    <glyph glyph-name="edotaccent" unicode="&#x117;" horiz-adv-x="712" 
d="M408 -14q-144 0 -243 139t-99 393v19q0 267 84 411t210 144q124 0 202.5 -140.5t78.5 -386.5v-63h-489q3 -209 78 -321.5t190 -112.5q50 0 92 14t94 49l10 -88q-58 -33 -102 -45t-106 -12zM152 578h405q0 187 -55.5 310.5t-141.5 123.5q-88 0 -145 -113t-63 -321z
M309 1200v137h103v-137h-103z" />
    <glyph glyph-name="Eogonek" unicode="&#x118;" horiz-adv-x="665" 
d="M115 0v1434h487v-82h-397v-588h362v-82h-362v-600h403v-82h-22q-58 -81 -58 -125q0 -29 20.5 -41t65.5 -12v-66q-23 -2 -41 -2q-127 0 -127 96q0 64 80 150h-411z" />
    <glyph glyph-name="eogonek" unicode="&#x119;" horiz-adv-x="712" 
d="M606 131l8 -72q-106 -123 -106 -184q0 -29 20.5 -41t65.5 -12v-66q-23 -2 -41 -2q-127 0 -127 96q0 64 76 146q-48 -10 -94 -10q-144 0 -243 139t-99 393v19q0 267 84 411t210 144q124 0 202.5 -140.5t78.5 -386.5v-63h-489q3 -209 78 -321.5t190 -112.5q50 0 92 14
t94 49zM152 578h405q0 187 -55.5 310.5t-141.5 123.5q-88 0 -145 -113t-63 -321z" />
    <glyph glyph-name="Ecaron" unicode="&#x11a;" horiz-adv-x="665" 
d="M115 0v1434h487v-82h-397v-588h362v-82h-362v-600h403v-82h-493zM551 1724l-148 -198h-81l-148 198h86l105 -118l104 118h82z" />
    <glyph glyph-name="ecaron" unicode="&#x11b;" horiz-adv-x="712" 
d="M408 -14q-144 0 -243 139t-99 393v19q0 267 84 411t210 144q124 0 202.5 -140.5t78.5 -386.5v-63h-489q3 -209 78 -321.5t190 -112.5q50 0 92 14t94 49l10 -88q-58 -33 -102 -45t-106 -12zM152 578h405q0 187 -55.5 310.5t-141.5 123.5q-88 0 -145 -113t-63 -321z
M532 1440l-137 -250h-69l-138 250h76l98 -154l99 154h71z" />
    <glyph glyph-name="Gbreve" unicode="&#x11e;" horiz-adv-x="804" 
d="M506 -14q-90 0 -167 45.5t-136 132.5t-93 224t-34 310v37q0 172 35.5 310t96 224t138 131.5t164.5 45.5q95 0 174 -45v-98q-91 57 -176 57q-67 0 -128 -40t-109 -115.5t-76.5 -197t-28.5 -272.5v-37q0 -303 96.5 -466.5t249.5 -163.5q53 0 98 18v565h-213v82h299v-698
q-55 -29 -95 -39t-95 -10zM459 1532q-79 0 -131 41.5t-62 120.5h76q23 -80 117 -80q93 0 116 80h76q-10 -80 -61.5 -121t-130.5 -41z" />
    <glyph glyph-name="gbreve" unicode="&#x11f;" horiz-adv-x="770" 
d="M350 -270q-117 0 -235 43v88q128 -51 239 -51q221 0 221 217v254q-35 -101 -91.5 -162.5t-133.5 -61.5q-114 0 -197 136t-83 372v19q0 233 83 370.5t197 137.5q77 0 133.5 -61.5t91.5 -162.5v207h87v-1044q0 -145 -76 -221q-80 -80 -236 -80zM360 133q85 0 152.5 119
t67.5 313v19q0 194 -67.5 313t-152.5 119q-84 0 -144 -116.5t-60 -317.5v-15q0 -201 60 -317.5t144 -116.5zM395 1186q-80 0 -130.5 48t-59.5 144h74q10 -58 38 -85t78 -27t78.5 27t38.5 85h74q-9 -96 -60 -144t-131 -48z" />
    <glyph glyph-name="Gdotaccent" unicode="&#x120;" horiz-adv-x="804" 
d="M506 -14q-90 0 -167 45.5t-136 132.5t-93 224t-34 310v37q0 172 35.5 310t96 224t138 131.5t164.5 45.5q95 0 174 -45v-98q-91 57 -176 57q-67 0 -128 -40t-109 -115.5t-76.5 -197t-28.5 -272.5v-37q0 -303 96.5 -466.5t249.5 -163.5q53 0 98 18v565h-213v82h299v-698
q-55 -29 -95 -39t-95 -10zM406 1546v129h106v-129h-106z" />
    <glyph glyph-name="gdotaccent" unicode="&#x121;" horiz-adv-x="770" 
d="M350 -270q-117 0 -235 43v88q128 -51 239 -51q221 0 221 217v254q-35 -101 -91.5 -162.5t-133.5 -61.5q-114 0 -197 136t-83 372v19q0 233 83 370.5t197 137.5q77 0 133.5 -61.5t91.5 -162.5v207h87v-1044q0 -145 -76 -221q-80 -80 -236 -80zM360 133q85 0 152.5 119
t67.5 313v19q0 194 -67.5 313t-152.5 119q-84 0 -144 -116.5t-60 -317.5v-15q0 -201 60 -317.5t144 -116.5zM344 1200v137h102v-137h-102z" />
    <glyph glyph-name="Gcommaaccent" unicode="&#x122;" horiz-adv-x="804" 
d="M506 -14q-90 0 -167 45.5t-136 132.5t-93 224t-34 310v37q0 172 35.5 310t96 224t138 131.5t164.5 45.5q95 0 174 -45v-98q-91 57 -176 57q-67 0 -128 -40t-109 -115.5t-76.5 -197t-28.5 -272.5v-37q0 -303 96.5 -466.5t249.5 -163.5q53 0 98 18v565h-213v82h299v-698
q-55 -29 -95 -39t-95 -10zM414 -389l-23 37q34 19 47.5 43t10.5 63h-43v119h102v-111q0 -59 -21 -91.5t-73 -59.5z" />
    <glyph glyph-name="gcommaaccent" unicode="&#x123;" horiz-adv-x="770" 
d="M350 -270q-117 0 -235 43v88q128 -51 239 -51q221 0 221 217v254q-35 -101 -91.5 -162.5t-133.5 -61.5q-114 0 -197 136t-83 372v19q0 233 83 370.5t197 137.5q77 0 133.5 -61.5t91.5 -162.5v207h87v-1044q0 -145 -76 -221q-80 -80 -236 -80zM360 133q85 0 152.5 119
t67.5 313v19q0 194 -67.5 313t-152.5 119q-84 0 -144 -116.5t-60 -317.5v-15q0 -201 60 -317.5t144 -116.5zM434 1491l23 -37q-34 -19 -47.5 -43t-10.5 -63h43v-119h-102v110q0 59 21 92t73 60z" />
    <glyph glyph-name="Hbar" unicode="&#x126;" horiz-adv-x="876" 
d="M14 1137v77h113v220h90v-220h442v220h91v-220h112v-77h-112v-1137h-91v680h-442v-680h-90v1137h-113zM217 762h442v377h-442v-377z" />
    <glyph glyph-name="hbar" unicode="&#x127;" horiz-adv-x="761" 
d="M412 1227h-217v-309q72 174 221 174q111 0 178.5 -89.5t67.5 -250.5v-752h-87v743q0 133 -45.5 204t-130.5 71q-87 0 -145.5 -81t-58.5 -210v-727h-86v1227h-99v73h99v148h86v-148h217v-73z" />
    <glyph glyph-name="Imacron" unicode="&#x12a;" horiz-adv-x="348" 
d="M129 0v1434h90v-1434h-90zM-23 1540v84h394v-84h-394z" />
    <glyph glyph-name="imacron" unicode="&#x12b;" horiz-adv-x="327" 
d="M121 0v1075h86v-1075h-86zM-20 1204v80h368v-80h-368z" />
    <glyph glyph-name="Ibreve" unicode="&#x12c;" horiz-adv-x="348" 
d="M129 0v1434h90v-1434h-90zM174 1522q-79 0 -130.5 41t-61.5 120h75q23 -79 117 -79t117 79h76q-10 -79 -62 -120t-131 -41z" />
    <glyph glyph-name="ibreve" unicode="&#x12d;" horiz-adv-x="327" 
d="M121 0v1075h86v-1075h-86zM164 1186q-80 0 -131 48t-60 144h74q10 -58 38.5 -85t78.5 -27t78.5 27t38.5 85h73q-9 -96 -59.5 -144t-130.5 -48z" />
    <glyph glyph-name="Iogonek" unicode="&#x12e;" horiz-adv-x="348" 
d="M129 0v1434h90v-1434h-12q-57 -79 -57 -125q0 -29 20.5 -41t65.5 -12v-66q-23 -2 -41 -2q-127 0 -127 96q0 65 79 150h-18z" />
    <glyph glyph-name="iogonek" unicode="&#x12f;" horiz-adv-x="327" 
d="M121 0v1075h86v-1075h-12q-58 -81 -58 -125q0 -29 20.5 -41t65.5 -12v-66q-23 -2 -41 -2q-127 0 -127 96q0 64 80 150h-14zM117 1305v143h94v-143h-94z" />
    <glyph glyph-name="Idotaccent" unicode="&#x130;" horiz-adv-x="348" 
d="M129 0v1434h90v-1434h-90zM121 1536v129h106v-129h-106z" />
    <glyph glyph-name="dotlessi" unicode="&#x131;" horiz-adv-x="327" 
d="M121 0v1075h86v-1075h-86z" />
    <glyph glyph-name="Kcommaaccent" unicode="&#x136;" horiz-adv-x="757" 
d="M115 0v1434h90v-813l397 813h103l-330 -648l370 -786h-98l-323 688l-119 -233v-455h-90zM346 -369l-22 37q34 19 47 43t10 64h-43v119h102v-111q0 -59 -21 -92t-73 -60z" />
    <glyph glyph-name="kcommaaccent" unicode="&#x137;" horiz-adv-x="671" 
d="M109 0v1448h86v-969l309 596h96l-240 -432l263 -643h-95l-219 553l-114 -207v-346h-86zM301 -369l-22 37q34 19 47 43t10 64h-43v119h102v-111q0 -59 -21 -92t-73 -60z" />
    <glyph glyph-name="Lacute" unicode="&#x139;" horiz-adv-x="581" 
d="M115 0v1434h90v-1352h360v-82h-450zM141 1516l127 213l99 -46l-160 -167h-66z" />
    <glyph glyph-name="lacute" unicode="&#x13a;" horiz-adv-x="327" 
d="M121 0v1448h86v-1448h-86zM131 1516l127 213l98 -46l-159 -167h-66z" />
    <glyph glyph-name="Lcommaaccent" unicode="&#x13b;" horiz-adv-x="581" 
d="M115 0v1434h90v-1352h360v-82h-450zM289 -379l-23 37q34 19 47.5 43t10.5 63h-43v119h102v-110q0 -59 -21 -92t-73 -60z" />
    <glyph glyph-name="lcommaaccent" unicode="&#x13c;" horiz-adv-x="327" 
d="M121 0v1448h86v-1448h-86zM119 -379l-23 37q34 19 47.5 43t10.5 63h-43v119h102v-110q0 -59 -21 -92t-73 -60z" />
    <glyph glyph-name="Lcaron" unicode="&#x13d;" horiz-adv-x="581" 
d="M115 0v1434h90v-1352h360v-82h-450zM283 1130l14 304h78v-4l-51 -300h-41z" />
    <glyph glyph-name="lcaron" unicode="&#x13e;" horiz-adv-x="327" 
d="M121 0v1448h86v-1448h-86zM272 1145l15 303h78v-4l-52 -299h-41z" />
    <glyph glyph-name="Ldot" unicode="&#x13f;" horiz-adv-x="581" 
d="M389 670v137h103v-137h-103zM115 0v1434h90v-1352h360v-82h-450z" />
    <glyph glyph-name="ldot" unicode="&#x140;" horiz-adv-x="425" 
d="M330 655v154h94v-154h-94zM121 0v1448h86v-1448h-86z" />
    <glyph glyph-name="Lslash" unicode="&#x141;" horiz-adv-x="593" 
d="M397 784l-180 -122v-580h361v-82h-451v600l-113 -78v101l113 73v738h90v-676l180 127v-101z" />
    <glyph glyph-name="lslash" unicode="&#x142;" horiz-adv-x="348" 
d="M338 801l-121 -80v-721h-86v662l-121 -82v100l121 80v688h86v-631l121 84v-100z" />
    <glyph glyph-name="Nacute" unicode="&#x143;" horiz-adv-x="860" 
d="M115 0v1434h98l446 -1205v1205h86v-1434h-88l-456 1233v-1233h-86zM393 1505l127 213l98 -45l-159 -168h-66z" />
    <glyph glyph-name="nacute" unicode="&#x144;" horiz-adv-x="761" 
d="M109 0v1075h86v-157q72 174 221 174q111 0 178.5 -89.5t67.5 -250.5v-752h-87v743q0 133 -45.5 204t-130.5 71q-87 0 -145.5 -81t-58.5 -210v-727h-86zM346 1180l131 256l96 -52l-167 -204h-60z" />
    <glyph glyph-name="Ncommaaccent" unicode="&#x145;" horiz-adv-x="860" 
d="M115 0v1434h98l446 -1205v1205h86v-1434h-88l-456 1233v-1233h-86zM385 -369l-23 37q34 19 47.5 43.5t10.5 63.5h-43v119h102v-111q0 -59 -21 -92t-73 -60z" />
    <glyph glyph-name="ncommaaccent" unicode="&#x146;" horiz-adv-x="761" 
d="M109 0v1075h86v-157q72 174 221 174q111 0 178.5 -89.5t67.5 -250.5v-752h-87v743q0 133 -45.5 204t-130.5 71q-87 0 -145.5 -81t-58.5 -210v-727h-86zM338 -369l-23 37q34 19 47.5 43.5t10.5 63.5h-43v119h102v-111q0 -59 -21 -92t-73 -60z" />
    <glyph glyph-name="Ncaron" unicode="&#x147;" horiz-adv-x="860" 
d="M115 0v1434h98l446 -1205v1205h86v-1434h-88l-456 1233v-1233h-86zM618 1714l-147 -198h-82l-147 198h86l104 -119l105 119h81z" />
    <glyph glyph-name="ncaron" unicode="&#x148;" horiz-adv-x="761" 
d="M109 0v1075h86v-157q72 174 221 174q111 0 178.5 -89.5t67.5 -250.5v-752h-87v743q0 133 -45.5 204t-130.5 71q-87 0 -145.5 -81t-58.5 -210v-727h-86zM555 1440l-137 -250h-70l-137 250h76l98 -154l98 154h72z" />
    <glyph glyph-name="Omacron" unicode="&#x14c;" horiz-adv-x="831" 
d="M416 -16q-152 0 -246 186t-94 530v33q0 344 94 530.5t246 186.5t246 -186.5t94 -530.5v-33q0 -344 -94 -530t-246 -186zM416 66q110 0 180 165.5t70 468.5v33q0 303 -70 469t-180 166t-180 -166t-70 -469v-33q0 -303 70 -468.5t180 -165.5zM219 1550v84h393v-84h-393z
" />
    <glyph glyph-name="omacron" unicode="&#x14d;" horiz-adv-x="741" 
d="M371 -16q-126 0 -215.5 149.5t-89.5 394.5v19q0 245 90 395t217 150q126 0 214.5 -149.5t88.5 -395.5v-19q0 -245 -89.5 -394.5t-215.5 -149.5zM371 63q93 0 156 128.5t63 336.5v19q0 208 -63 336.5t-156 128.5t-156 -128.5t-63 -336.5v-19q0 -208 63 -336.5t156 -128.5z
M186 1204v80h369v-80h-369z" />
    <glyph glyph-name="Obreve" unicode="&#x14e;" horiz-adv-x="831" 
d="M416 -16q-152 0 -246 186t-94 530v33q0 344 94 530.5t246 186.5t246 -186.5t94 -530.5v-33q0 -344 -94 -530t-246 -186zM416 66q110 0 180 165.5t70 468.5v33q0 303 -70 469t-180 166t-180 -166t-70 -469v-33q0 -303 70 -468.5t180 -165.5zM416 1532q-79 0 -131 41.5
t-62 120.5h76q23 -80 117 -80q93 0 116 80h76q-10 -80 -61.5 -121t-130.5 -41z" />
    <glyph glyph-name="obreve" unicode="&#x14f;" horiz-adv-x="741" 
d="M371 -16q-126 0 -215.5 149.5t-89.5 394.5v19q0 245 90 395t217 150q126 0 214.5 -149.5t88.5 -395.5v-19q0 -245 -89.5 -394.5t-215.5 -149.5zM371 63q93 0 156 128.5t63 336.5v19q0 208 -63 336.5t-156 128.5t-156 -128.5t-63 -336.5v-19q0 -208 63 -336.5t156 -128.5z
M371 1186q-80 0 -131 48t-60 144h74q10 -58 38.5 -85t78.5 -27t78 27t38 85h74q-9 -96 -59.5 -144t-130.5 -48z" />
    <glyph glyph-name="Ohungarumlaut" unicode="&#x150;" horiz-adv-x="831" 
d="M416 -16q-152 0 -246 186t-94 530v33q0 344 94 530.5t246 186.5t246 -186.5t94 -530.5v-33q0 -344 -94 -530t-246 -186zM416 66q110 0 180 165.5t70 468.5v33q0 303 -70 469t-180 166t-180 -166t-70 -469v-33q0 -303 70 -468.5t180 -165.5zM279 1526l127 213l92 -43
l-156 -170h-63zM463 1526l127 213l92 -43l-156 -170h-63z" />
    <glyph glyph-name="ohungarumlaut" unicode="&#x151;" horiz-adv-x="741" 
d="M371 -16q-126 0 -215.5 149.5t-89.5 394.5v19q0 245 90 395t217 150q126 0 214.5 -149.5t88.5 -395.5v-19q0 -245 -89.5 -394.5t-215.5 -149.5zM371 63q93 0 156 128.5t63 336.5v19q0 208 -63 336.5t-156 128.5t-156 -128.5t-63 -336.5v-19q0 -208 63 -336.5t156 -128.5z
M422 1180l131 256l88 -47l-160 -209h-59zM229 1180l131 256l89 -47l-160 -209h-60z" />
    <glyph glyph-name="OE" unicode="&#x152;" horiz-adv-x="1144" 
d="M535 0q-206 0 -332.5 181.5t-126.5 516.5v37q0 335 126.5 517t332.5 182h546v-82h-397v-588h363v-82h-363v-600h403v-82h-552zM537 82h57v1270h-62q-166 0 -266 -160t-100 -457v-37q0 -295 102.5 -455.5t268.5 -160.5z" />
    <glyph glyph-name="oe" unicode="&#x153;" horiz-adv-x="1228" 
d="M371 -16q-126 0 -215.5 149.5t-89.5 394.5v19q0 245 90 395t217 150q83 0 150 -69.5t104 -193.5q34 127 102 195t148 68q123 0 201.5 -140.5t78.5 -386.5v-63h-489q3 -209 78 -321.5t190 -112.5q50 0 92 14t94 49l11 -88q-57 -33 -101.5 -45t-107.5 -12q-103 0 -182.5 71
t-112.5 197q-37 -128 -105 -199t-153 -71zM668 578h405q0 187 -55 310.5t-141 123.5q-87 0 -145 -113.5t-64 -320.5zM371 63q93 0 156 128.5t63 336.5v19q0 208 -63 336.5t-156 128.5t-156 -128.5t-63 -336.5v-19q0 -208 63 -336.5t156 -128.5z" />
    <glyph glyph-name="Racute" unicode="&#x154;" horiz-adv-x="784" 
d="M115 0v1434h178q188 0 299 -111q113 -113 113 -311v-4q0 -148 -65 -252.5t-183 -149.5l274 -606h-106l-260 584q-38 -6 -80 -6h-80v-578h-90zM205 657h88q149 0 235 91.5t86 257.5v4q0 169 -87 255.5t-238 86.5h-84v-695zM322 1516l127 213l98 -46l-160 -167h-65z" />
    <glyph glyph-name="racute" unicode="&#x155;" horiz-adv-x="479" 
d="M109 0v1075h86v-157q33 80 97 127.5t154 41.5v-92h-4q-108 0 -177.5 -70t-69.5 -204v-721h-86zM221 1180l131 256l97 -52l-168 -204h-60z" />
    <glyph glyph-name="Rcommaaccent" unicode="&#x156;" horiz-adv-x="784" 
d="M115 0v1434h178q188 0 299 -111q113 -113 113 -311v-4q0 -148 -65 -252.5t-183 -149.5l274 -606h-106l-260 584q-38 -6 -80 -6h-80v-578h-90zM205 657h88q149 0 235 91.5t86 257.5v4q0 169 -87 255.5t-238 86.5h-84v-695zM330 -369l-23 37q34 19 47.5 43.5t10.5 63.5h-43
v119h102v-111q0 -59 -21 -92t-73 -60z" />
    <glyph glyph-name="rcommaaccent" unicode="&#x157;" horiz-adv-x="479" 
d="M109 0v1075h86v-157q33 80 97 127.5t154 41.5v-92h-4q-108 0 -177.5 -70t-69.5 -204v-721h-86zM111 -379l-23 37q34 19 47 43t10 63h-43v119h103v-110q0 -59 -21 -92t-73 -60z" />
    <glyph glyph-name="Rcaron" unicode="&#x158;" horiz-adv-x="784" 
d="M115 0v1434h178q188 0 299 -111q113 -113 113 -311v-4q0 -148 -65 -252.5t-183 -149.5l274 -606h-106l-260 584q-38 -6 -80 -6h-80v-578h-90zM205 657h88q149 0 235 91.5t86 257.5v4q0 169 -87 255.5t-238 86.5h-84v-695zM547 1724l-148 -198h-82l-147 198h86l104 -118
l105 118h82z" />
    <glyph glyph-name="rcaron" unicode="&#x159;" horiz-adv-x="479" 
d="M109 0v1075h86v-157q33 80 97 127.5t154 41.5v-92h-4q-108 0 -177.5 -70t-69.5 -204v-721h-86zM430 1440l-137 -250h-70l-137 250h76l98 -154l98 154h72z" />
    <glyph glyph-name="Sacute" unicode="&#x15a;" horiz-adv-x="681" 
d="M317 -16q-115 0 -247 75v103q143 -92 249 -92q91 0 145 55.5t54 150.5v5q0 87 -39.5 164.5t-161.5 242.5q-148 199 -192.5 284.5t-44.5 180.5v4q0 126 81 209.5t199 83.5q109 0 218 -64v-102q-118 80 -220 80q-83 0 -135.5 -56t-52.5 -145v-4q0 -79 41 -156t162 -231
q134 -169 184.5 -270.5t50.5 -214.5v-4q0 -135 -82 -217t-209 -82zM317 1526l127 213l99 -45l-160 -168h-66z" />
    <glyph glyph-name="sacute" unicode="&#x15b;" horiz-adv-x="571" 
d="M266 -12q-107 0 -215 51v90q116 -61 219 -61q70 0 117 43t47 116v4q0 58 -38.5 121t-131.5 152q-120 114 -165.5 188t-45.5 156v4q0 108 71.5 171.5t172.5 63.5q100 0 178 -34v-90q-89 45 -182 45q-67 0 -110.5 -41.5t-43.5 -110.5v-4q0 -58 36 -112.5t134 -151.5
q117 -116 164 -192t47 -160v-5q0 -110 -75.5 -176.5t-178.5 -66.5zM250 1180l131 256l96 -52l-168 -204h-59z" />
    <glyph glyph-name="Scedilla" unicode="&#x15e;" horiz-adv-x="681" 
d="M301 -225l-94 39l98 170q-109 3 -235 75v103q143 -92 249 -92q91 0 145 55.5t54 150.5v5q0 87 -39.5 164.5t-161.5 242.5q-148 199 -192.5 284.5t-44.5 180.5v4q0 126 81 209.5t199 83.5q109 0 218 -64v-102q-118 80 -220 80q-83 0 -135.5 -56t-52.5 -145v-4
q0 -79 41 -156t162 -231q134 -169 184.5 -270.5t50.5 -214.5v-4q0 -118 -63 -196t-166 -97z" />
    <glyph glyph-name="scedilla" unicode="&#x15f;" horiz-adv-x="571" 
d="M242 -225l-95 39l101 174q-99 3 -197 51v90q116 -61 219 -61q70 0 117 43t47 116v4q0 58 -38.5 121t-131.5 152q-120 114 -165.5 188t-45.5 156v4q0 108 71.5 171.5t172.5 63.5q100 0 178 -34v-90q-89 45 -182 45q-67 0 -110.5 -41.5t-43.5 -110.5v-4q0 -58 36 -112.5
t134 -151.5q117 -116 164 -192t47 -160v-5q0 -95 -56 -158t-142 -79z" />
    <glyph glyph-name="Scaron" unicode="&#x160;" horiz-adv-x="681" 
d="M317 -16q-115 0 -247 75v103q143 -92 249 -92q91 0 145 55.5t54 150.5v5q0 87 -39.5 164.5t-161.5 242.5q-148 199 -192.5 284.5t-44.5 180.5v4q0 126 81 209.5t199 83.5q109 0 218 -64v-102q-118 80 -220 80q-83 0 -135.5 -56t-52.5 -145v-4q0 -79 41 -156t162 -231
q134 -169 184.5 -270.5t50.5 -214.5v-4q0 -135 -82 -217t-209 -82zM543 1735l-148 -199h-82l-147 199h86l104 -119l105 119h82z" />
    <glyph glyph-name="scaron" unicode="&#x161;" horiz-adv-x="571" 
d="M266 -12q-107 0 -215 51v90q116 -61 219 -61q70 0 117 43t47 116v4q0 58 -38.5 121t-131.5 152q-120 114 -165.5 188t-45.5 156v4q0 108 71.5 171.5t172.5 63.5q100 0 178 -34v-90q-89 45 -182 45q-67 0 -110.5 -41.5t-43.5 -110.5v-4q0 -58 36 -112.5t134 -151.5
q117 -116 164 -192t47 -160v-5q0 -110 -75.5 -176.5t-178.5 -66.5zM459 1440l-137 -250h-70l-137 250h75l99 -154l98 154h72z" />
    <glyph glyph-name="Tcommaaccent" unicode="&#x162;" horiz-adv-x="606" 
d="M258 0v1352h-233v82h557v-82h-234v-1352h-90zM258 -379l-22 37q34 19 47 43t10 63h-43v119h102v-110q0 -59 -21 -92t-73 -60z" />
    <glyph glyph-name="tcommaaccent" unicode="&#x163;" horiz-adv-x="460" 
d="M332 -8q-191 0 -191 188v815h-102v80h102v303h86v-303h174v-80h-174v-802q0 -67 28.5 -93t84.5 -26q39 0 66 10v-80q-30 -12 -74 -12zM227 -379l-22 37q34 19 47 43t10 63h-43v119h103v-110q0 -59 -21.5 -92t-73.5 -60z" />
    <glyph glyph-name="Tcaron" unicode="&#x164;" horiz-adv-x="606" 
d="M258 0v1352h-233v82h557v-82h-234v-1352h-90zM492 1724l-148 -198h-82l-147 198h86l104 -118l105 118h82z" />
    <glyph glyph-name="tcaron" unicode="&#x165;" horiz-adv-x="460" 
d="M332 -8q-191 0 -191 188v815h-102v80h102v303h86v-303h174v-80h-174v-802q0 -67 28.5 -93t84.5 -26q39 0 66 10v-80q-30 -12 -74 -12zM313 1145l15 303h78v-4l-52 -299h-41z" />
    <glyph glyph-name="Umacron" unicode="&#x16a;" horiz-adv-x="833" 
d="M416 -18q-143 0 -226.5 104.5t-83.5 282.5v1065h91v-1067q0 -145 58.5 -224.5t160.5 -79.5t161.5 79.5t59.5 224.5v1067h90v-1065q0 -178 -84 -282.5t-227 -104.5zM219 1530v84h393v-84h-393z" />
    <glyph glyph-name="umacron" unicode="&#x16b;" horiz-adv-x="761" 
d="M346 -16q-111 0 -178.5 89.5t-67.5 250.5v751h86v-743q0 -133 45.5 -204t130.5 -71q88 0 146.5 81t58.5 210v727h86v-1075h-86v158q-72 -174 -221 -174zM193 1194v80h368v-80h-368z" />
    <glyph glyph-name="Ubreve" unicode="&#x16c;" horiz-adv-x="833" 
d="M416 -18q-143 0 -226.5 104.5t-83.5 282.5v1065h91v-1067q0 -145 58.5 -224.5t160.5 -79.5t161.5 79.5t59.5 224.5v1067h90v-1065q0 -178 -84 -282.5t-227 -104.5zM416 1511q-79 0 -131 41.5t-62 120.5h76q23 -80 117 -80q93 0 116 80h76q-10 -80 -61.5 -121t-130.5 -41z
" />
    <glyph glyph-name="ubreve" unicode="&#x16d;" horiz-adv-x="761" 
d="M346 -16q-111 0 -178.5 89.5t-67.5 250.5v751h86v-743q0 -133 45.5 -204t130.5 -71q88 0 146.5 81t58.5 210v727h86v-1075h-86v158q-72 -174 -221 -174zM377 1176q-80 0 -131 48t-60 144h74q20 -113 117 -113t117 113h73q-9 -96 -59.5 -144t-130.5 -48z" />
    <glyph glyph-name="Uring" unicode="&#x16e;" horiz-adv-x="833" 
d="M416 -18q-143 0 -226.5 104.5t-83.5 282.5v1065h91v-1067q0 -145 58.5 -224.5t160.5 -79.5t161.5 79.5t59.5 224.5v1067h90v-1065q0 -178 -84 -282.5t-227 -104.5zM414 1487q-68 0 -114 43.5t-46 107.5t48 108t116 44t114 -44t46 -108t-48 -107.5t-116 -43.5zM416 1542
q43 0 70.5 27.5t27.5 68.5q0 42 -28 69.5t-70 27.5q-43 0 -71 -28t-28 -69t28 -68.5t71 -27.5z" />
    <glyph glyph-name="uring" unicode="&#x16f;" horiz-adv-x="761" 
d="M346 -16q-111 0 -178.5 89.5t-67.5 250.5v751h86v-743q0 -133 45.5 -204t130.5 -71q88 0 146.5 81t58.5 210v727h86v-1075h-86v158q-72 -174 -221 -174zM375 1151q-68 0 -114 47t-46 115t47.5 115t116.5 47q68 0 114 -47t46 -115t-47.5 -115t-116.5 -47zM377 1204
q44 0 73 31.5t29 77.5t-29 77t-73 31t-73.5 -31t-29.5 -77t29.5 -77.5t73.5 -31.5z" />
    <glyph glyph-name="Uhungarumlaut" unicode="&#x170;" horiz-adv-x="833" 
d="M416 -18q-143 0 -226.5 104.5t-83.5 282.5v1065h91v-1067q0 -145 58.5 -224.5t160.5 -79.5t161.5 79.5t59.5 224.5v1067h90v-1065q0 -178 -84 -282.5t-227 -104.5zM279 1505l127 213l92 -43l-156 -170h-63zM463 1505l127 213l92 -43l-156 -170h-63z" />
    <glyph glyph-name="uhungarumlaut" unicode="&#x171;" horiz-adv-x="761" 
d="M346 -16q-111 0 -178.5 89.5t-67.5 250.5v751h86v-743q0 -133 45.5 -204t130.5 -71q88 0 146.5 81t58.5 210v727h86v-1075h-86v158q-72 -174 -221 -174zM428 1169l131 256l88 -47l-160 -209h-59zM236 1169l131 256l88 -47l-160 -209h-59z" />
    <glyph glyph-name="Uogonek" unicode="&#x172;" horiz-adv-x="833" 
d="M492 -178v-66q-23 -2 -41 -2q-127 0 -127 96q0 59 63 134q-131 9 -206 112t-75 273v1065h91v-1067q0 -145 58.5 -224.5t160.5 -79.5t161.5 79.5t59.5 224.5v1067h90v-1065q0 -167 -74 -270t-202 -115q-45 -64 -45 -109q0 -29 20.5 -41t65.5 -12z" />
    <glyph glyph-name="uogonek" unicode="&#x173;" horiz-adv-x="761" 
d="M670 -178v-66q-23 -2 -41 -2q-127 0 -127 96q0 64 80 150h-15v158q-72 -174 -221 -174q-111 0 -178.5 89.5t-67.5 250.5v751h86v-743q0 -133 45.5 -204t130.5 -71q88 0 146.5 81t58.5 210v727h86v-1075h-12q-57 -79 -57 -125q0 -29 20.5 -41t65.5 -12z" />
    <glyph glyph-name="Wcircumflex" unicode="&#x174;" horiz-adv-x="1251" 
d="M309 -10l-248 1444h97l194 -1252l234 1252h84l231 -1252l197 1252h92l-248 -1444h-84l-231 1251l-234 -1251h-84zM436 1526l148 198h82l147 -198h-86l-104 119l-105 -119h-82z" />
    <glyph glyph-name="wcircumflex" unicode="&#x175;" horiz-adv-x="1091" 
d="M289 -6l-223 1081h90l172 -932l182 932h78l178 -932l176 932h84l-223 -1081h-78l-180 905l-178 -905h-78zM373 1180l137 250h70l137 -250h-76l-98 153l-99 -153h-71z" />
    <glyph glyph-name="Ycircumflex" unicode="&#x176;" horiz-adv-x="720" 
d="M315 0v618l-299 816h99l247 -703l250 703h93l-299 -816v-618h-91zM172 1516l147 198h82l148 -198h-86l-105 118l-104 -118h-82z" />
    <glyph glyph-name="ycircumflex" unicode="&#x177;" horiz-adv-x="708" 
d="M354 158l213 917h86l-325 -1341h-82l67 276l-260 1065h88zM180 1180l137 250h70l137 -250h-75l-99 153l-98 -153h-72z" />
    <glyph glyph-name="Ydieresis" unicode="&#x178;" horiz-adv-x="720" 
d="M315 0v618l-299 816h99l247 -703l250 703h93l-299 -816v-618h-91zM416 1526v129h102v-129h-102zM203 1526v129h102v-129h-102z" />
    <glyph glyph-name="Zacute" unicode="&#x179;" horiz-adv-x="688" 
d="M61 0v53l476 1305h-453v76h547v-52l-475 -1304h475v-78h-570zM315 1516l127 213l99 -46l-160 -167h-66z" />
    <glyph glyph-name="zacute" unicode="&#x17a;" horiz-adv-x="593" 
d="M53 0v51l391 948h-370v76h465v-51l-392 -948h381v-76h-475zM266 1180l131 256l97 -52l-168 -204h-60z" />
    <glyph glyph-name="Zdotaccent" unicode="&#x17b;" horiz-adv-x="688" 
d="M61 0v53l476 1305h-453v76h547v-52l-475 -1304h475v-78h-570zM299 1536v129h107v-129h-107z" />
    <glyph glyph-name="zdotaccent" unicode="&#x17c;" horiz-adv-x="593" 
d="M53 0v51l391 948h-370v76h465v-51l-392 -948h381v-76h-475zM252 1200v137h102v-137h-102z" />
    <glyph glyph-name="Zcaron" unicode="&#x17d;" horiz-adv-x="688" 
d="M61 0v53l476 1305h-453v76h547v-52l-475 -1304h475v-78h-570zM541 1724l-148 -198h-82l-147 198h86l104 -118l105 118h82z" />
    <glyph glyph-name="zcaron" unicode="&#x17e;" horiz-adv-x="593" 
d="M53 0v51l391 948h-370v76h465v-51l-392 -948h381v-76h-475zM475 1440l-137 -250h-70l-137 250h76l98 -154l98 154h72z" />
    <glyph glyph-name="florin" unicode="&#x192;" horiz-adv-x="661" 
d="M100 -10q-35 0 -82 14v84q42 -14 82 -14q99 0 113 153l57 570h-116v73h122l35 342q11 111 65 171.5t144 60.5q57 0 113 -23v-90q-55 25 -113 25q-51 0 -83.5 -41t-39.5 -119l-32 -326h202v-73h-209l-57 -576q-12 -119 -61.5 -175t-139.5 -56z" />
    <glyph glyph-name="Aringacute" unicode="&#x1fa;" horiz-adv-x="839" 
d="M57 0l297 1364q-44 15 -71 53.5t-27 87.5q0 64 48 108t116 44t114 -44t46 -108q0 -46 -26.5 -83t-70.5 -56l299 -1366h-94l-84 401h-373l-84 -401h-90zM248 483h340l-170 815zM418 1409q43 0 70.5 27.5t27.5 68.5t-28 69t-70 28q-43 0 -71 -28t-28 -69t28 -68.5t71 -27.5
zM383 1700l129 172l92 -41l-151 -131h-70z" />
    <glyph glyph-name="aringacute" unicode="&#x1fb;" horiz-adv-x="706" 
d="M311 1569l138 205l88 -48l-162 -157h-64zM303 -18q-108 0 -177 94t-69 237v17q0 153 75.5 248.5t207.5 95.5q93 0 180 -41v135q0 114 -52 176t-153 62q-108 0 -198 -50v84q96 47 202 47q132 0 209 -77q35 -35 56.5 -96t21.5 -136v-778h-86v156q-71 -174 -217 -174z
M315 57q91 0 148 83.5t57 195.5v215q-91 43 -176 43q-97 0 -149 -71.5t-52 -188.5v-17q0 -114 45 -187t127 -73zM348 1182q-69 0 -114.5 46.5t-45.5 114.5t47.5 115t116.5 47q68 0 114 -47t46 -115t-47.5 -114.5t-116.5 -46.5zM350 1235q44 0 73.5 31t29.5 77t-29.5 77.5
t-73.5 31.5t-73 -31.5t-29 -77.5t29 -77t73 -31z" />
    <glyph glyph-name="AEacute" unicode="&#x1fc;" horiz-adv-x="1042" 
d="M6 0l404 1434h569v-82h-397v-588h362v-82h-362v-600h403v-82h-493v401h-285l-113 -401h-88zM229 483h263v869h-21zM539 1516l127 213l98 -46l-160 -167h-65z" />
    <glyph glyph-name="aeacute" unicode="&#x1fd;" horiz-adv-x="1155" 
d="M303 -18q-108 0 -177 94t-69 237v17q0 153 75.5 248.5t207.5 95.5q93 0 180 -41v135q0 114 -52 176t-153 62q-108 0 -198 -50v84q96 47 202 47q207 0 261 -182q38 91 96 139t127 48q123 0 201.5 -140.5t78.5 -386.5v-63h-489q3 -209 78 -321.5t190 -112.5q93 0 187 63
l10 -88q-57 -33 -101.5 -45t-107.5 -12q-94 0 -171 62t-120 181q-33 -108 -97 -177.5t-159 -69.5zM594 578h405q0 187 -55 310.5t-141 123.5q-87 0 -145 -113.5t-64 -320.5zM315 57q80 0 137 80t80 191q-21 118 -16 227q-95 39 -172 39q-97 0 -149 -71.5t-52 -188.5v-17
q0 -114 45 -187t127 -73zM532 1180l132 256l96 -52l-168 -204h-60z" />
    <glyph glyph-name="Oslashacute" unicode="&#x1fe;" horiz-adv-x="831" 
d="M670 1450h88l-86 -209q84 -189 84 -508v-33q0 -344 -94 -530t-246 -186q-123 0 -205 116l-49 -116h-88l86 209q-84 189 -84 507v33q0 344 94 530.5t246 186.5q123 0 205 -119zM164 700q0 -244 43 -395l379 926q-66 139 -170 139q-110 0 -181 -167t-71 -470v-33zM416 63
q110 0 181 167t71 470v33q0 231 -43 393l-379 -925q66 -138 170 -138zM383 1526l127 213l98 -45l-159 -168h-66z" />
    <glyph glyph-name="oslashacute" unicode="&#x1ff;" horiz-adv-x="741" 
d="M586 1083h82l-74 -153q82 -157 82 -383v-19q0 -245 -89.5 -394.5t-215.5 -149.5q-96 0 -176 92l-39 -84h-82l73 155q-81 146 -81 381v19q0 245 90 395t217 150q94 0 174 -93zM371 61q93 0 157 129.5t64 337.5v19q0 173 -43 291l-322 -678q57 -99 144 -99zM150 528
q0 -180 40 -290l324 677q-62 99 -143 99q-93 0 -157 -129.5t-64 -337.5v-19zM334 1180l131 256l96 -52l-168 -204h-59z" />
    <glyph glyph-name="Scommaaccent" unicode="&#x218;" horiz-adv-x="681" 
d="M317 -16q-115 0 -247 75v103q143 -92 249 -92q91 0 145 55.5t54 150.5v5q0 87 -39.5 164.5t-161.5 242.5q-148 199 -192.5 284.5t-44.5 180.5v4q0 126 81 209.5t199 83.5q109 0 218 -64v-102q-118 80 -220 80q-83 0 -135.5 -56t-52.5 -145v-4q0 -79 41 -156t162 -231
q134 -169 184.5 -270.5t50.5 -214.5v-4q0 -135 -82 -217t-209 -82zM276 -379l-22 37q34 19 47 43t10 63h-43v119h103v-110q0 -59 -21.5 -92t-73.5 -60z" />
    <glyph glyph-name="scommaaccent" unicode="&#x219;" horiz-adv-x="571" 
d="M266 -12q-107 0 -215 51v90q116 -61 219 -61q70 0 117 43t47 116v4q0 58 -38.5 121t-131.5 152q-120 114 -165.5 188t-45.5 156v4q0 108 71.5 171.5t172.5 63.5q100 0 178 -34v-90q-89 45 -182 45q-67 0 -110.5 -41.5t-43.5 -110.5v-4q0 -58 36 -112.5t134 -151.5
q117 -116 164 -192t47 -160v-5q0 -110 -75.5 -176.5t-178.5 -66.5zM229 -379l-22 37q34 19 47 43t10 63h-43v119h103v-110q0 -59 -21.5 -92t-73.5 -60z" />
    <glyph glyph-name="schwa" unicode="&#x259;" horiz-adv-x="712" 
d="M305 1090q144 0 243 -139.5t99 -393.5v-18q0 -267 -84.5 -411t-210.5 -144q-123 0 -201.5 140t-78.5 386v63h489q-3 210 -78.5 322.5t-189.5 112.5q-92 0 -187 -64l-10 88q58 33 102.5 45.5t106.5 12.5zM561 498h-405q0 -187 55 -311t141 -124q88 0 145.5 113.5
t63.5 321.5z" />
    <glyph glyph-name="circumflex" unicode="&#x2c6;" horiz-adv-x="1024" 
d="M340 1190l137 250h70l137 -250h-76l-98 153l-98 -153h-72z" />
    <glyph glyph-name="caron" unicode="&#x2c7;" horiz-adv-x="1024" 
d="M684 1440l-137 -250h-70l-137 250h76l98 -154l98 154h72z" />
    <glyph glyph-name="breve" unicode="&#x2d8;" horiz-adv-x="1024" 
d="M512 1186q-80 0 -130.5 48t-59.5 144h73q10 -58 38.5 -85t78.5 -27t78.5 27t38.5 85h73q-9 -96 -59.5 -144t-130.5 -48z" />
    <glyph glyph-name="dotaccent" unicode="&#x2d9;" horiz-adv-x="1024" 
d="M461 1200v137h102v-137h-102z" />
    <glyph glyph-name="ring" unicode="&#x2da;" horiz-adv-x="1024" 
d="M510 1182q-69 0 -114.5 46.5t-45.5 114.5t47.5 115t116.5 47q68 0 114 -47t46 -115t-47.5 -114.5t-116.5 -46.5zM512 1235q44 0 73 31t29 77t-29 77.5t-73 31.5t-73 -31.5t-29 -77.5t29 -77t73 -31z" />
    <glyph glyph-name="ogonek" unicode="&#x2db;" horiz-adv-x="1024" 
d="M592 -178v-66q-23 -2 -41 -2q-127 0 -127 96q0 64 88 158h57q-63 -88 -63 -133q0 -29 20.5 -41t65.5 -12z" />
    <glyph glyph-name="tilde" unicode="&#x2dc;" horiz-adv-x="1024" 
d="M602 1184q-30 0 -50.5 11.5t-51.5 41.5q-50 47 -70 47q-32 0 -57 -92l-62 16q39 154 111 154q30 0 50.5 -11.5t51.5 -41.5q50 -47 70 -47q32 0 57 92l62 -17q-38 -153 -111 -153z" />
    <glyph glyph-name="hungarumlaut" unicode="&#x2dd;" horiz-adv-x="1024" 
d="M489 1180l132 256l88 -47l-160 -209h-60zM297 1180l131 256l88 -47l-160 -209h-59z" />
    <glyph glyph-name="commaaccent" unicode="&#x326;" horiz-adv-x="1024" 
d="M475 -379l-22 37q34 19 47 43t10 63h-43v119h102v-110q0 -59 -21 -92t-73 -60z" />
    <glyph glyph-name="baht" unicode="&#xe3f;" horiz-adv-x="763" 
d="M326 -246h-76l24 246h-34h-125v1434h172q59 0 114 -15l19 176h74l-21 -200q92 -43 144.5 -127t52.5 -193v-4q0 -269 -262 -344v-4q128 -32 200 -119.5t72 -228.5v-4q0 -147 -87.5 -241.5t-240.5 -121.5zM205 764h43q59 0 100 8l49 563q-60 17 -114 17h-78v-588zM590 377
q0 219 -187 282l-49 -567q113 24 174.5 95t61.5 186v4zM205 82h37q33 0 47 2l51 592q-41 6 -84 6h-51v-600zM580 1071q0 159 -121 234l-45 -512q166 72 166 274v4z" />
    <glyph glyph-name="Wgrave" unicode="&#x1e80;" horiz-adv-x="1251" 
d="M309 -10l-248 1444h97l194 -1252l234 1252h84l231 -1252l197 1252h92l-248 -1444h-84l-231 1251l-234 -1251h-84zM662 1516h-66l-160 167l99 46z" />
    <glyph glyph-name="wgrave" unicode="&#x1e81;" horiz-adv-x="1091" 
d="M289 -6l-223 1081h90l172 -932l182 932h78l178 -932l176 932h84l-223 -1081h-78l-180 905l-178 -905h-78zM522 1180l-168 204l97 52l131 -256h-60z" />
    <glyph glyph-name="Wacute" unicode="&#x1e82;" horiz-adv-x="1251" 
d="M309 -10l-248 1444h97l194 -1252l234 1252h84l231 -1252l197 1252h92l-248 -1444h-84l-231 1251l-234 -1251h-84zM588 1516l127 213l98 -46l-160 -167h-65z" />
    <glyph glyph-name="wacute" unicode="&#x1e83;" horiz-adv-x="1091" 
d="M289 -6l-223 1081h90l172 -932l182 932h78l178 -932l176 932h84l-223 -1081h-78l-180 905l-178 -905h-78zM508 1180l131 256l96 -52l-168 -204h-59z" />
    <glyph glyph-name="Wdieresis" unicode="&#x1e84;" horiz-adv-x="1251" 
d="M309 -10l-248 1444h97l194 -1252l234 1252h84l231 -1252l197 1252h92l-248 -1444h-84l-231 1251l-234 -1251h-84zM680 1536v129h102v-129h-102zM467 1536v129h102v-129h-102z" />
    <glyph glyph-name="wdieresis" unicode="&#x1e85;" horiz-adv-x="1091" 
d="M289 -6l-223 1081h90l172 -932l182 932h78l178 -932l176 932h84l-223 -1081h-78l-180 905l-178 -905h-78zM600 1200v137h94v-137h-94zM395 1200v137h94v-137h-94z" />
    <glyph glyph-name="Ygrave" unicode="&#x1ef2;" horiz-adv-x="720" 
d="M315 0v618l-299 816h99l247 -703l250 703h93l-299 -816v-618h-91zM397 1505h-65l-160 168l98 45z" />
    <glyph glyph-name="ygrave" unicode="&#x1ef3;" horiz-adv-x="708" 
d="M354 158l213 917h86l-325 -1341h-82l67 276l-260 1065h88zM330 1169l-168 205l96 51l131 -256h-59z" />
    <glyph glyph-name="enspace" unicode="&#x2002;" horiz-adv-x="1024" 
 />
    <glyph glyph-name="emspace" unicode="&#x2003;" horiz-adv-x="2048" 
 />
    <glyph glyph-name="threeperemspace" unicode="&#x2004;" horiz-adv-x="681" 
 />
    <glyph glyph-name="fourperemspace" unicode="&#x2005;" horiz-adv-x="512" 
 />
    <glyph glyph-name="figurespace" unicode="&#x2007;" horiz-adv-x="737" 
 />
    <glyph glyph-name="thinspace" unicode="&#x2009;" horiz-adv-x="204" 
 />
    <glyph glyph-name="hairspace" unicode="&#x200a;" horiz-adv-x="102" 
 />
    <glyph glyph-name="endash" unicode="&#x2013;" horiz-adv-x="815" 
d="M82 565v82h651v-82h-651z" />
    <glyph glyph-name="emdash" unicode="&#x2014;" horiz-adv-x="1183" 
d="M82 565v82h1020v-82h-1020z" />
    <glyph glyph-name="quoteleft" unicode="&#x2018;" horiz-adv-x="307" 
d="M86 1051v151q0 94 33 144t119 90l24 -52q-60 -26 -84.5 -63t-19.5 -96h55v-174h-127z" />
    <glyph glyph-name="quoteright" unicode="&#x2019;" horiz-adv-x="307" 
d="M70 1055l-25 51q60 26 84.5 64t20.5 96h-56v168h127v-146q0 -94 -32.5 -143.5t-118.5 -89.5z" />
    <glyph glyph-name="quotesinglbase" unicode="&#x201a;" horiz-adv-x="307" 
d="M66 -211l-25 51q60 26 84.5 63.5t19.5 96.5h-55v168h127v-145q0 -94 -32.5 -144t-118.5 -90z" />
    <glyph glyph-name="quotedblleft" unicode="&#x201c;" horiz-adv-x="573" 
d="M352 1051v151q0 94 33 144t119 90l24 -52q-60 -26 -84.5 -63t-19.5 -96h55v-174h-127zM86 1051v151q0 94 33 144t119 90l24 -52q-60 -26 -84.5 -63t-19.5 -96h55v-174h-127z" />
    <glyph glyph-name="quotedblright" unicode="&#x201d;" horiz-adv-x="573" 
d="M336 1055l-25 51q60 26 84.5 64t20.5 96h-56v168h127v-146q0 -94 -32.5 -143.5t-118.5 -89.5zM70 1055l-25 51q60 26 84.5 64t20.5 96h-56v168h127v-146q0 -94 -32.5 -143.5t-118.5 -89.5z" />
    <glyph glyph-name="quotedblbase" unicode="&#x201e;" horiz-adv-x="573" 
d="M332 -211l-25 51q60 26 84.5 64t20.5 96h-56v168h127v-145q0 -94 -32.5 -144t-118.5 -90zM66 -211l-25 51q60 26 84.5 63.5t19.5 96.5h-55v168h127v-145q0 -94 -32.5 -144t-118.5 -90z" />
    <glyph glyph-name="dagger" unicode="&#x2020;" horiz-adv-x="473" 
d="M195 487l16 594l-174 -20v88l174 -21l-23 306h99l-23 -306l172 21v-88l-172 20l17 -594h-86z" />
    <glyph glyph-name="daggerdbl" unicode="&#x2021;" horiz-adv-x="522" 
d="M211 0l25 305l-175 -20v88l175 -21l-21 365l21 364l-175 -20v88l175 -21l-23 306h98l-22 -306l172 21v-88l-172 20l20 -364l-20 -365l172 21v-88l-172 20l20 -305h-98z" />
    <glyph glyph-name="bullet" unicode="&#x2022;" horiz-adv-x="636" 
d="M319 500q-75 0 -120 54.5t-45 158.5v24q0 104 45 158.5t120 54.5t120.5 -54.5t45.5 -158.5v-24q0 -104 -45.5 -158.5t-120.5 -54.5z" />
    <glyph glyph-name="ellipsis" unicode="&#x2026;" horiz-adv-x="962" 
d="M743 0v174h131v-174h-131zM416 0v174h131v-174h-131zM88 0v174h131v-174h-131z" />
    <glyph glyph-name="perthousand" unicode="&#x2030;" horiz-adv-x="1542" 
d="M266 842q60 0 97.5 68.5t37.5 185.5v16q0 117 -37.5 185.5t-97.5 68.5t-97.5 -68.5t-37.5 -185.5v-16q0 -117 37.5 -185.5t97.5 -68.5zM266 764q-89 0 -150 89t-61 243v16q0 154 61 243t150 89t150 -89t61 -243v-16q0 -154 -61 -243t-150 -89zM870 1434l-327 -732
l-314 -702h-75l327 731l314 703h75zM758 68q60 0 97.5 68.5t37.5 185.5v16q0 117 -37.5 185.5t-97.5 68.5t-97.5 -68.5t-37.5 -185.5v-16q0 -117 37.5 -185.5t97.5 -68.5zM758 -10q-89 0 -150 89t-61 243v16q0 154 61 243t150 89t150 -89t61 -243v-16q0 -154 -61 -243
t-150 -89zM1276 68q60 0 97.5 68.5t37.5 185.5v16q0 117 -37.5 185.5t-97.5 68.5t-97.5 -68.5t-37.5 -185.5v-16q0 -117 37.5 -185.5t97.5 -68.5zM1276 -10q-89 0 -150 89t-61 243v16q0 154 61 243t150 89t150 -89t61 -243v-16q0 -154 -61 -243t-150 -89z" />
    <glyph glyph-name="guilsinglleft" unicode="&#x2039;" horiz-adv-x="444" 
d="M313 88l-247 426v16l247 426l62 -32l-217 -400l217 -403z" />
    <glyph glyph-name="guilsinglright" unicode="&#x203a;" horiz-adv-x="444" 
d="M131 956l248 -426v-16l-248 -426l-61 33l217 399l-217 404z" />
    <glyph glyph-name="fraction" unicode="&#x2044;" horiz-adv-x="122" 
d="M-264 0l297 733l282 703h72l-297 -734l-285 -702h-69z" />
    <glyph glyph-name="zero.sup" unicode="&#x2070;" 
d="M246 946q-193 0 -193 354v15q0 356 193 356q95 0 143.5 -85t48.5 -269v-14q0 -357 -192 -357zM246 1604q-119 0 -119 -287v-14q0 -145 31.5 -217t87.5 -72t87.5 70.5t31.5 215.5v15q0 289 -119 289z" />
    <glyph glyph-name="four.sup" unicode="&#x2074;" 
d="M383 1102v-148h-66v148h-276v51l260 514h82v-504h72v-61h-72zM317 1163v389h-8l-192 -389h200z" />
    <glyph glyph-name="five.sup" unicode="&#x2075;" 
d="M215 946q-82 0 -143 43v80q62 -55 143 -55q68 0 101.5 43.5t33.5 116.5q0 77 -36 113t-95 36q-54 0 -96 -25l-49 23l22 342h297v-70h-233l-19 -217q43 15 84 15q90 0 145.5 -55.5t55.5 -159.5q0 -103 -58 -166.5t-153 -63.5z" />
    <glyph glyph-name="six.sup" unicode="&#x2076;" 
d="M248 946q-72 0 -117 45q-72 75 -72 262v29q0 200 62.5 294.5t169.5 94.5q55 0 98 -24v-76q-51 31 -98 31q-70 0 -110 -64t-48 -184q59 51 129 51q76 0 126 -56t50 -167q0 -105 -53 -170.5t-137 -65.5zM250 1014q56 0 86.5 46t30.5 124q0 76 -31.5 114.5t-83.5 38.5
q-70 0 -119 -55v-41q0 -227 117 -227z" />
    <glyph glyph-name="seven.sup" unicode="&#x2077;" 
d="M182 954h-73l245 639h-293v70h367v-59z" />
    <glyph glyph-name="eight.sup" unicode="&#x2078;" 
d="M246 946q-87 0 -139 53.5t-52 143.5q0 60 29 107.5t80 70.5q-41 22 -66.5 66t-25.5 98q0 87 50 136.5t124 49.5t124 -49.5t50 -136.5q0 -54 -25.5 -98t-66.5 -66q51 -23 79.5 -70t28.5 -106q0 -92 -51.5 -145.5t-138.5 -53.5zM246 1606q-47 0 -76 -33.5t-29 -87.5
q0 -57 29.5 -95t75.5 -38t75 38t29 95q0 54 -28.5 87.5t-75.5 33.5zM246 1286q-53 0 -87 -40t-34 -101q0 -58 32.5 -95.5t88.5 -37.5t88.5 37.5t32.5 95.5q0 61 -34 101t-87 40z" />
    <glyph glyph-name="nine.sup" unicode="&#x2079;" 
d="M250 1671q72 0 117 -45q71 -74 71 -262v-29q0 -200 -62 -294.5t-169 -94.5q-59 0 -113 29v74q54 -33 113 -33q69 0 109.5 62.5t48.5 174.5q-59 -51 -129 -51q-76 0 -126.5 58t-50.5 170q0 108 53.5 174.5t137.5 66.5zM246 1270q70 0 119 55v51q0 228 -117 228
q-56 0 -86.5 -48t-30.5 -129q0 -80 31.5 -118.5t83.5 -38.5z" />
    <glyph glyph-name="zero.inf" unicode="&#x2080;" 
d="M246 -279q-193 0 -193 355v14q0 356 193 356q95 0 143.5 -85t48.5 -269v-14q0 -357 -192 -357zM246 379q-119 0 -119 -287v-14q0 -145 31.5 -217t87.5 -72t87.5 71t31.5 216v14q0 289 -119 289z" />
    <glyph glyph-name="one.inf" unicode="&#x2081;" horiz-adv-x="399" 
d="M254 -270h-72v622l-137 -76v74l143 88h66v-708z" />
    <glyph glyph-name="two.inf" unicode="&#x2082;" 
d="M49 -270v45l234 329q67 98 67 166q0 51 -32.5 79t-79.5 28q-88 0 -164 -88v84q69 73 170 73q77 0 128.5 -47t51.5 -127q0 -55 -20 -99t-62 -103l-188 -271h278v-69h-383z" />
    <glyph glyph-name="three.inf" unicode="&#x2083;" 
d="M207 -279q-83 0 -144 50v79q61 -61 148 -61q59 0 100 34t41 103q0 138 -209 144h-2v49l187 250h-265v69h359v-51l-195 -258q91 -13 145 -62.5t54 -138.5q0 -96 -62 -151.5t-157 -55.5z" />
    <glyph glyph-name="four.inf" unicode="&#x2084;" 
d="M383 -123v-147h-66v147h-276v51l260 514h82v-503h72v-62h-72zM317 -61v389h-8l-192 -389h200z" />
    <glyph glyph-name="five.inf" unicode="&#x2085;" 
d="M215 -279q-82 0 -143 43v80q62 -55 143 -55q68 0 101.5 43.5t33.5 116.5q0 77 -36 113t-95 36q-55 0 -96 -24l-49 22l22 342h297v-69h-233l-19 -217q40 14 84 14q90 0 145.5 -55.5t55.5 -159.5q0 -103 -58 -166.5t-153 -63.5z" />
    <glyph glyph-name="six.inf" unicode="&#x2086;" 
d="M248 -279q-71 0 -117 46q-72 75 -72 262v28q0 200 62.5 294.5t169.5 94.5q55 0 98 -24v-76q-51 31 -98 31q-70 0 -110 -64t-48 -184q59 51 129 51q76 0 126 -56t50 -167q0 -105 -53 -170.5t-137 -65.5zM250 -211q56 0 86.5 46t30.5 124q0 76 -31.5 115t-83.5 39
q-69 0 -119 -56v-41q0 -227 117 -227z" />
    <glyph glyph-name="seven.inf" unicode="&#x2087;" 
d="M182 -270h-73l245 639h-293v69h367v-59z" />
    <glyph glyph-name="eight.inf" unicode="&#x2088;" 
d="M246 -279q-87 0 -139 53.5t-52 143.5q0 60 29 107.5t80 70.5q-41 22 -66.5 66t-25.5 98q0 87 50 136.5t124 49.5t124 -49.5t50 -136.5q0 -54 -25.5 -98t-66.5 -66q51 -23 79.5 -70t28.5 -106q0 -92 -51.5 -145.5t-138.5 -53.5zM246 381q-47 0 -76 -33.5t-29 -87.5
q0 -57 29.5 -95t75.5 -38t75 38t29 95q0 54 -28.5 87.5t-75.5 33.5zM246 61q-53 0 -87 -40t-34 -101q0 -58 32.5 -95.5t88.5 -37.5t88.5 37.5t32.5 95.5q0 61 -34 101t-87 40z" />
    <glyph glyph-name="nine.inf" unicode="&#x2089;" 
d="M250 446q72 0 117 -45q71 -74 71 -262v-28q0 -200 -62 -295t-169 -95q-59 0 -113 29v74q54 -33 113 -33q69 0 109.5 63t48.5 175q-60 -52 -129 -52q-76 0 -126.5 58t-50.5 170q0 108 53.5 174.5t137.5 66.5zM246 45q70 0 119 55v52q0 227 -117 227q-56 0 -86.5 -47.5
t-30.5 -128.5q0 -80 31.5 -119t83.5 -39z" />
    <glyph glyph-name="colonmonetary" unicode="&#x20a1;" horiz-adv-x="735" 
d="M580 1595h73l-18 -178q18 -9 57 -35v-98q-69 44 -74 47l-131 -1253q10 -2 29 -2q88 0 182 78v-97q-42 -31 -85 -48t-107 -17q-4 0 -11 1t-10 1l-26 -236h-74l27 248q-52 17 -105 60l-33 -308h-73l41 379q-138 192 -138 561v37q0 267 74 438t199 234l18 188h74l-16 -161
q46 8 67 8q19 0 43 -4zM315 186q52 -70 115 -94l131 1260q-21 6 -45 6q-33 0 -80 -15zM190 698q0 -264 74 -428l109 1037q-86 -66 -134.5 -212.5t-48.5 -359.5v-37z" />
    <glyph glyph-name="naira" unicode="&#x20a6;" horiz-adv-x="983" 
d="M950 496h-143v-496h-133l-148 496h-264v-496h-86v496h-143v71h143v307h-143v72h143v488h141l146 -488h258v488h86v-488h143v-72h-143v-307h143v-71zM262 874v-307h236l-95 307h-141zM489 874l95 -307h137v307h-232zM262 1331v-389h121zM604 500l117 -377v377h-117z" />
    <glyph glyph-name="rupee" unicode="&#x20a8;" horiz-adv-x="1200" 
d="M94 0v1434h142q174 0 278 -113.5t104 -314.5v-5q0 -152 -57.5 -257.5t-163.5 -151.5l244 -592h-100l-232 569q-24 -4 -61 -4h-68v-565h-86zM180 641h76q128 0 202 94.5t74 263.5v5q0 172 -81 262t-220 90h-51v-715zM907 -12q-102 0 -207 51v86q114 -62 211 -62
q67 0 112.5 45.5t45.5 118.5v4q0 59 -37 123t-127 152q-116 114 -159.5 187.5t-43.5 154.5v4q0 108 69.5 171.5t166.5 63.5t172 -34v-86q-86 45 -176 45q-65 0 -106.5 -43t-41.5 -113v-4q0 -58 34.5 -114t129.5 -152q113 -117 158 -192t45 -158v-5q0 -110 -73 -176.5
t-173 -66.5z" />
    <glyph glyph-name="won" unicode="&#x20a9;" horiz-adv-x="1267" 
d="M1149 1434l-62 -486h168v-71h-178l-39 -312h217v-71h-225l-63 -500h-109l-84 500h-282l-82 -500h-109l-63 500h-226v71h215l-39 312h-176v71h168l-61 486h92l51 -486h238l78 486h116l78 -486h234l55 486h88zM557 877l-51 -312h254l-49 312h-154zM268 877l35 -312h131
l51 312h-217zM784 877l52 -312h131l32 312h-215zM633 1333l-64 -385h131l-61 385h-6zM354 100h6l64 394h-113zM909 100h6l43 394h-112z" />
    <glyph glyph-name="sheqel" unicode="&#x20aa;" horiz-adv-x="813" 
d="M299 285l-39 430h80l39 -408q11 -126 42.5 -178.5t113.5 -52.5h108v968h82v-1044h-205q-107 0 -158 66.5t-63 218.5zM455 733q0 127 -33.5 181.5t-110.5 54.5h-141v-969h-82v1044h238q104 0 156.5 -73.5t52.5 -233.5v-387h-80v383z" />
    <glyph glyph-name="Euro" unicode="&#x20ac;" horiz-adv-x="735" 
d="M659 1407v-98q-80 47 -139 47q-104 0 -181 -113.5t-101 -316.5h325v-72h-332q-4 -39 -4 -119v-37q0 -73 2 -108h334v-72h-325q24 -210 101.5 -325t180.5 -115q73 0 146 51v-96q-68 -41 -160 -41q-134 0 -233.5 136t-127.5 390h-122v72h116q-2 35 -2 108v37q0 80 4 119
h-118v72h124q30 248 132.5 382t240.5 134q74 0 139 -35z" />
    <glyph glyph-name="peso" unicode="&#x20b1;" horiz-adv-x="882" 
d="M150 0v944h-144v72h144v418h157q183 0 293.5 -113t118.5 -305h143v-72h-145q-9 -194 -119.5 -312t-298.5 -118h-59v-514h-90zM307 594q146 0 229 94t91 258h-387v-352h67zM240 1352v-338h387q-7 160 -93.5 249t-230.5 89h-63z" />
    <glyph glyph-name="published" unicode="&#x2117;" horiz-adv-x="1071" 
d="M535 -20q-145 0 -257 95.5t-170.5 254.5t-58.5 352v72q0 194 58.5 353t170.5 254t257 95t257 -95t171 -254t59 -353v-72q0 -193 -59 -352t-171 -254.5t-257 -95.5zM535 31q132 0 232 90t151 236.5t51 324.5v72q0 178 -51 324.5t-151 236.5t-232 90t-232 -90
t-150.5 -236.5t-50.5 -324.5v-72q0 -178 50.5 -324.5t150.5 -236.5t232 -90zM397 336v788h113q100 0 163.5 -66.5t63.5 -183.5v-4q0 -118 -62.5 -186t-164.5 -70h-43v-278h-70zM467 684h47q73 2 112.5 49t39.5 135v2q0 89 -41.5 137t-112.5 48h-45v-371z" />
    <glyph glyph-name="servicemark" unicode="&#x2120;" horiz-adv-x="849" 
d="M416 788v646h82l98 -316l98 316h80v-646h-61v527l-113 -357h-8l-115 357v-527h-61zM188 782q-63 0 -120 31v72q64 -43 118 -43q37 0 58.5 22.5t21.5 61.5q0 34 -17.5 67t-66.5 90q-67 80 -90.5 121t-23.5 88q0 64 40.5 106t102.5 42q51 0 100 -27v-72q-59 39 -100 39
q-34 0 -56 -23.5t-22 -60.5q0 -31 17.5 -60.5t68.5 -88.5q63 -74 88 -121t25 -98q0 -65 -41.5 -105.5t-102.5 -40.5z" />
    <glyph glyph-name="trademark" unicode="&#x2122;" horiz-adv-x="796" 
d="M362 788v646h82l99 -316l98 316h80v-646h-62v527l-112 -357h-8l-115 357v-527h-62zM111 788v586h-103v60h271v-60h-105v-586h-63z" />
    <glyph glyph-name="onethird" unicode="&#x2153;" horiz-adv-x="1013" 
d="M748 -8q-84 0 -144 49v80q62 -62 148 -62q58 0 99.5 34.5t41.5 103.5q0 137 -209 143h-2v49l186 250h-264v70h359v-52l-195 -258q91 -13 145 -62t54 -138q0 -96 -62 -151.5t-157 -55.5zM258 725h-72v623l-137 -76v74l144 88h65v-709zM106 0l297 733l283 703h72l-297 -734
l-285 -702h-70z" />
    <glyph glyph-name="twothirds" unicode="&#x2154;" horiz-adv-x="1105" 
d="M850 -8q-83 0 -143 49v80q62 -62 147 -62q58 0 99.5 34.5t41.5 103.5q0 137 -209 143h-2v49l187 250h-264v70h358v-52l-195 -258q91 -13 145 -62t54 -138q0 -96 -62 -151.5t-157 -55.5zM41 725v45l233 330q68 100 68 166q0 51 -32.5 78.5t-80.5 27.5q-87 0 -163 -88v84
q70 74 170 74q77 0 128.5 -47t51.5 -127q0 -55 -20 -100t-62 -103l-189 -270h279v-70h-383zM231 0l297 733l283 703h72l-297 -734l-285 -702h-70z" />
    <glyph glyph-name="onefifth" unicode="&#x2155;" horiz-adv-x="1013" 
d="M735 -8q-82 0 -143 43v80q63 -56 143 -56q68 0 101.5 43.5t33.5 116.5q0 77 -36 113.5t-95 36.5q-54 0 -96 -25l-49 23l22 342h297v-70h-233l-18 -217q40 14 83 14q90 0 145.5 -55.5t55.5 -159.5q0 -103 -58 -166t-153 -63zM260 725h-72v623l-137 -76v74l144 88h65v-709z
M109 0l297 733l282 703h72l-297 -734l-285 -702h-69z" />
    <glyph glyph-name="twofifths" unicode="&#x2156;" horiz-adv-x="1105" 
d="M868 -8q-82 0 -143 43v80q63 -56 143 -56q68 0 102 43.5t34 116.5q0 77 -36.5 113.5t-95.5 36.5q-54 0 -96 -25l-49 23l23 342h297v-70h-234l-18 -217q40 14 84 14q90 0 145 -55.5t55 -159.5q0 -103 -58 -166t-153 -63zM242 0l297 733l282 703h72l-297 -734l-285 -702
h-69zM41 725v45l233 330q68 100 68 166q0 51 -32.5 78.5t-80.5 27.5q-87 0 -163 -88v84q70 74 170 74q77 0 128.5 -47t51.5 -127q0 -55 -20 -100t-62 -103l-189 -270h279v-70h-383z" />
    <glyph glyph-name="threefifths" unicode="&#x2157;" horiz-adv-x="1105" 
d="M868 -8q-82 0 -143 43v80q63 -56 143 -56q68 0 102 43.5t34 116.5q0 77 -36.5 113.5t-95.5 36.5q-54 0 -96 -25l-49 23l23 342h297v-70h-234l-18 -217q40 14 84 14q90 0 145 -55.5t55 -159.5q0 -103 -58 -166t-153 -63zM225 0l297 733l283 703h72l-297 -734l-285 -702
h-70zM186 717q-83 0 -143 49v80q62 -62 147 -62q58 0 100 34.5t42 103.5q0 137 -209 143h-2v49l186 250h-264v70h358v-52l-194 -258q91 -13 145 -62t54 -138q0 -96 -62.5 -151.5t-157.5 -55.5z" />
    <glyph glyph-name="fourfifths" unicode="&#x2158;" horiz-adv-x="1105" 
d="M365 872v-147h-66v147h-276v52l260 514h82v-504h71v-62h-71zM299 934v389h-8l-193 -389h201zM868 -8q-82 0 -143 43v80q63 -56 143 -56q68 0 102 43.5t34 116.5q0 77 -36.5 113.5t-95.5 36.5q-54 0 -96 -25l-49 23l23 342h297v-70h-234l-18 -217q40 14 84 14
q90 0 145 -55.5t55 -159.5q0 -103 -58 -166t-153 -63zM229 0l297 733l283 703h72l-297 -734l-285 -702h-70z" />
    <glyph glyph-name="onesixth" unicode="&#x2159;" horiz-adv-x="1013" 
d="M750 -8q-72 0 -117 45q-72 75 -72 262v29q0 200 62.5 294.5t169.5 94.5q53 0 98 -25v-76q-51 31 -98 31q-70 0 -110 -64t-48 -184q60 52 129 52q76 0 126 -56.5t50 -167.5q0 -105 -53 -170t-137 -65zM752 59q56 0 86 46t30 124q0 77 -31 115.5t-83 38.5q-70 0 -119 -55
v-41q0 -228 117 -228zM260 725h-72v623l-137 -76v74l144 88h65v-709zM119 0l297 733l282 703h72l-297 -734l-285 -702h-69z" />
    <glyph glyph-name="fivesixths" unicode="&#x215a;" horiz-adv-x="1105" 
d="M881 -8q-72 0 -117 45q-72 75 -72 262v29q0 200 62.5 294.5t169.5 94.5q53 0 98 -25v-76q-51 31 -98 31q-70 0 -110 -64t-48 -184q60 52 129 52q76 0 126 -56.5t50 -167.5q0 -105 -53 -170t-137 -65zM883 59q56 0 86 46t30 124q0 77 -31 115.5t-83 38.5q-70 0 -119 -55
v-41q0 -228 117 -228zM225 0l297 733l283 703h72l-297 -734l-285 -702h-70zM205 717q-83 0 -144 43v80q63 -56 144 -56q68 0 101.5 43.5t33.5 116.5q0 77 -36 113.5t-95 36.5q-54 0 -96 -25l-50 23l23 342h297v-70h-233l-19 -217q40 14 84 14q90 0 145.5 -55.5t55.5 -159.5
q0 -103 -58 -166t-153 -63z" />
    <glyph glyph-name="oneeighth" unicode="&#x215b;" horiz-adv-x="1013" 
d="M748 -8q-87 0 -139 53t-52 143q0 60 29 108t80 71q-41 23 -67 66t-26 97q0 87 50.5 137t124.5 50t124 -50t50 -137q0 -54 -26 -97t-67 -66q51 -23 80 -70.5t29 -106.5q0 -92 -51.5 -145t-138.5 -53zM748 651q-47 0 -76 -33.5t-29 -87.5q0 -57 29.5 -95t75.5 -38t75 38
t29 95q0 54 -28.5 87.5t-75.5 33.5zM748 332q-52 0 -86.5 -40t-34.5 -102q0 -58 32.5 -95.5t88.5 -37.5t88 37t32 96q0 62 -34 102t-86 40zM260 725h-72v623l-137 -76v74l144 88h65v-709zM119 0l297 733l282 703h72l-297 -734l-285 -702h-69z" />
    <glyph glyph-name="threeeighths" unicode="&#x215c;" horiz-adv-x="1105" 
d="M879 -8q-87 0 -139 53t-52 143q0 60 29 108t80 71q-41 23 -66.5 66t-25.5 97q0 87 50 137t124 50t124 -50t50 -137q0 -54 -25.5 -97t-66.5 -66q51 -23 79.5 -70.5t28.5 -106.5q0 -92 -51.5 -145t-138.5 -53zM879 651q-47 0 -76 -33.5t-29 -87.5q0 -57 29.5 -95t75.5 -38
t75 38t29 95q0 54 -28.5 87.5t-75.5 33.5zM879 332q-52 0 -86.5 -40t-34.5 -102q0 -58 32.5 -95.5t88.5 -37.5t88 37t32 96q0 62 -34 102t-86 40zM225 0l297 733l283 703h72l-297 -734l-285 -702h-70zM199 717q-84 0 -144 49v80q62 -62 148 -62q58 0 99.5 34.5t41.5 103.5
q0 137 -209 143h-2v49l186 250h-264v70h359v-52l-195 -258q91 -13 145 -62t54 -138q0 -96 -62 -151.5t-157 -55.5z" />
    <glyph glyph-name="fiveeighths" unicode="&#x215d;" horiz-adv-x="1105" 
d="M879 -8q-87 0 -139 53t-52 143q0 60 29 108t80 71q-41 23 -66.5 66t-25.5 97q0 87 50 137t124 50t124 -50t50 -137q0 -54 -25.5 -97t-66.5 -66q51 -23 79.5 -70.5t28.5 -106.5q0 -92 -51.5 -145t-138.5 -53zM879 651q-47 0 -76 -33.5t-29 -87.5q0 -57 29.5 -95t75.5 -38
t75 38t29 95q0 54 -28.5 87.5t-75.5 33.5zM879 332q-52 0 -86.5 -40t-34.5 -102q0 -58 32.5 -95.5t88.5 -37.5t88 37t32 96q0 62 -34 102t-86 40zM225 0l297 733l283 703h72l-297 -734l-285 -702h-70zM205 717q-83 0 -144 43v80q63 -56 144 -56q68 0 101.5 43.5t33.5 116.5
q0 77 -36 113.5t-95 36.5q-54 0 -96 -25l-50 23l23 342h297v-70h-233l-19 -217q40 14 84 14q90 0 145.5 -55.5t55.5 -159.5q0 -103 -58 -166t-153 -63z" />
    <glyph glyph-name="seveneighths" unicode="&#x215e;" horiz-adv-x="1105" 
d="M840 -8q-87 0 -139 53t-52 143q0 60 29 108t80 71q-41 23 -66.5 66t-25.5 97q0 87 50 137t124 50t124 -50t50 -137q0 -54 -25.5 -97t-66.5 -66q51 -23 79.5 -70.5t28.5 -106.5q0 -92 -51.5 -145t-138.5 -53zM840 651q-47 0 -76 -33.5t-29 -87.5q0 -57 29.5 -95t75.5 -38
t75 38t29 95q0 54 -28.5 87.5t-75.5 33.5zM840 332q-52 0 -86.5 -40t-34.5 -102q0 -58 32.5 -95.5t88.5 -37.5t88.5 37.5t32.5 95.5q0 62 -34.5 102t-86.5 40zM182 725h-73l245 639h-293v70h367v-60zM154 0l297 733l282 703h72l-297 -734l-285 -702h-69z" />
    <glyph glyph-name="minus" unicode="&#x2212;" horiz-adv-x="696" 
d="M637 676h-578v90h578v-90z" />
    <glyph glyph-name="Q.alt" horiz-adv-x="831" 
d="M676 -199l-152 211q-54 -28 -108 -28q-152 0 -246 186t-94 530v33q0 344 94 530.5t246 186.5t246 -186.5t94 -530.5v-33q0 -229 -44 -390.5t-122 -246.5l188 -262h-102zM416 66q110 0 180 165.5t70 468.5v33q0 303 -70 469t-180 166t-180 -166t-70 -469v-33
q0 -303 70 -468.5t180 -165.5z" />
    <glyph glyph-name="a.alt" horiz-adv-x="770" 
d="M350 -16q-117 0 -198.5 143t-81.5 391v39q0 246 82 390.5t198 144.5q77 0 133.5 -61.5t91.5 -162.5v207h87v-1075h-87v207q-35 -101 -91.5 -162t-133.5 -61zM360 59q88 0 154 123.5t66 329.5v51q0 206 -66 329.5t-154 123.5q-87 0 -145.5 -123.5t-58.5 -337.5v-35
q0 -214 58.5 -337.5t145.5 -123.5z" />
    <glyph glyph-name="aacute.alt" horiz-adv-x="770" 
d="M350 -16q-117 0 -198.5 143t-81.5 391v39q0 246 82 390.5t198 144.5q77 0 133.5 -61.5t91.5 -162.5v207h87v-1075h-87v207q-35 -101 -91.5 -162t-133.5 -61zM360 59q88 0 154 123.5t66 329.5v51q0 206 -66 329.5t-154 123.5q-87 0 -145.5 -123.5t-58.5 -337.5v-35
q0 -214 58.5 -337.5t145.5 -123.5zM358 1180l131 256l97 -52l-168 -204h-60z" />
    <glyph glyph-name="abreve.alt" horiz-adv-x="770" 
d="M350 -16q-117 0 -198.5 143t-81.5 391v39q0 246 82 390.5t198 144.5q77 0 133.5 -61.5t91.5 -162.5v207h87v-1075h-87v207q-35 -101 -91.5 -162t-133.5 -61zM360 59q88 0 154 123.5t66 329.5v51q0 206 -66 329.5t-154 123.5q-87 0 -145.5 -123.5t-58.5 -337.5v-35
q0 -214 58.5 -337.5t145.5 -123.5zM395 1186q-80 0 -130.5 48t-59.5 144h74q10 -58 38 -85t78 -27t78.5 27t38.5 85h74q-9 -96 -60 -144t-131 -48z" />
    <glyph glyph-name="acircumflex.alt" horiz-adv-x="770" 
d="M350 -16q-117 0 -198.5 143t-81.5 391v39q0 246 82 390.5t198 144.5q77 0 133.5 -61.5t91.5 -162.5v207h87v-1075h-87v207q-35 -101 -91.5 -162t-133.5 -61zM360 59q88 0 154 123.5t66 329.5v51q0 206 -66 329.5t-154 123.5q-87 0 -145.5 -123.5t-58.5 -337.5v-35
q0 -214 58.5 -337.5t145.5 -123.5zM223 1190l137 250h70l137 -250h-75l-99 153l-98 -153h-72z" />
    <glyph glyph-name="adieresis.alt" horiz-adv-x="770" 
d="M350 -16q-117 0 -198.5 143t-81.5 391v39q0 246 82 390.5t198 144.5q77 0 133.5 -61.5t91.5 -162.5v207h87v-1075h-87v207q-35 -101 -91.5 -162t-133.5 -61zM360 59q88 0 154 123.5t66 329.5v51q0 206 -66 329.5t-154 123.5q-87 0 -145.5 -123.5t-58.5 -337.5v-35
q0 -214 58.5 -337.5t145.5 -123.5zM451 1200v137h94v-137h-94zM246 1200v137h94v-137h-94z" />
    <glyph glyph-name="agrave.alt" horiz-adv-x="770" 
d="M350 -16q-117 0 -198.5 143t-81.5 391v39q0 246 82 390.5t198 144.5q77 0 133.5 -61.5t91.5 -162.5v207h87v-1075h-87v207q-35 -101 -91.5 -162t-133.5 -61zM360 59q88 0 154 123.5t66 329.5v51q0 206 -66 329.5t-154 123.5q-87 0 -145.5 -123.5t-58.5 -337.5v-35
q0 -214 58.5 -337.5t145.5 -123.5zM373 1180l-168 204l96 52l131 -256h-59z" />
    <glyph glyph-name="amacron.alt" horiz-adv-x="770" 
d="M350 -16q-117 0 -198.5 143t-81.5 391v39q0 246 82 390.5t198 144.5q77 0 133.5 -61.5t91.5 -162.5v207h87v-1075h-87v207q-35 -101 -91.5 -162t-133.5 -61zM360 59q88 0 154 123.5t66 329.5v51q0 206 -66 329.5t-154 123.5q-87 0 -145.5 -123.5t-58.5 -337.5v-35
q0 -214 58.5 -337.5t145.5 -123.5zM211 1204v80h369v-80h-369z" />
    <glyph glyph-name="aogonek.alt" horiz-adv-x="770" 
d="M678 -178v-66q-23 -2 -41 -2q-127 0 -127 96q0 64 80 150h-15v207q-35 -101 -91.5 -162t-133.5 -61q-117 0 -198.5 143t-81.5 391v39q0 246 82 390.5t198 144.5q77 0 133.5 -61.5t91.5 -162.5v207h87v-1075h-13q-57 -79 -57 -125q0 -29 20.5 -41t65.5 -12zM360 59
q88 0 154 123.5t66 329.5v51q0 206 -66 329.5t-154 123.5q-87 0 -145.5 -123.5t-58.5 -337.5v-35q0 -214 58.5 -337.5t145.5 -123.5z" />
    <glyph glyph-name="aring.alt" horiz-adv-x="770" 
d="M350 -16q-117 0 -198.5 143t-81.5 391v39q0 246 82 390.5t198 144.5q77 0 133.5 -61.5t91.5 -162.5v207h87v-1075h-87v207q-35 -101 -91.5 -162t-133.5 -61zM360 59q88 0 154 123.5t66 329.5v51q0 206 -66 329.5t-154 123.5q-87 0 -145.5 -123.5t-58.5 -337.5v-35
q0 -214 58.5 -337.5t145.5 -123.5zM393 1182q-69 0 -114.5 46.5t-45.5 114.5t47.5 115t116.5 47q68 0 114 -47t46 -115t-47.5 -114.5t-116.5 -46.5zM395 1235q44 0 73.5 31t29.5 77t-29.5 77.5t-73.5 31.5t-73 -31.5t-29 -77.5t29 -77t73 -31z" />
    <glyph glyph-name="aring.alt2" horiz-adv-x="706" 
d="M303 -18q-108 0 -177 94t-69 237v17q0 153 75.5 248.5t207.5 95.5q93 0 180 -41v135q0 114 -52 176t-153 62q-108 0 -198 -50v84q68 30 119 39q-48 45 -48 117q0 68 47.5 115t116.5 47q68 0 114 -47t46 -115q0 -84 -70 -131q49 -18 86 -55q35 -35 56.5 -96t21.5 -136
v-778h-86v156q-71 -174 -217 -174zM315 57q91 0 148 83.5t57 195.5v215q-91 43 -176 43q-97 0 -149 -71.5t-52 -188.5v-17q0 -114 45 -187t127 -73zM248 1196q0 -46 29 -77.5t73 -31.5t73.5 31.5t29.5 77.5t-29.5 77.5t-73.5 31.5t-73 -31.5t-29 -77.5z" />
    <glyph glyph-name="aringacute.alt" horiz-adv-x="770" 
d="M356 1569l138 205l88 -48l-162 -157h-64zM350 -16q-117 0 -198.5 143t-81.5 391v39q0 246 82 390.5t198 144.5q77 0 133.5 -61.5t91.5 -162.5v207h87v-1075h-87v207q-35 -101 -91.5 -162t-133.5 -61zM360 59q88 0 154 123.5t66 329.5v51q0 206 -66 329.5t-154 123.5
q-87 0 -145.5 -123.5t-58.5 -337.5v-35q0 -214 58.5 -337.5t145.5 -123.5zM393 1182q-69 0 -114.5 46.5t-45.5 114.5t47.5 115t116.5 47q68 0 114 -47t46 -115t-47.5 -114.5t-116.5 -46.5zM395 1235q44 0 73.5 31t29.5 77t-29.5 77.5t-73.5 31.5t-73 -31.5t-29 -77.5t29 -77
t73 -31z" />
    <glyph glyph-name="aringacute.alt2" horiz-adv-x="706" 
d="M311 1393l138 204l88 -47l-162 -157h-64zM303 -18q-108 0 -177 94t-69 237v17q0 153 75.5 248.5t207.5 95.5q93 0 180 -41v135q0 114 -52 176t-153 62q-108 0 -198 -50v84q68 30 119 39q-48 45 -48 117q0 68 47.5 115t116.5 47q68 0 114 -47t46 -115q0 -84 -70 -131
q49 -18 86 -55q35 -35 56.5 -96t21.5 -136v-778h-86v156q-71 -174 -217 -174zM315 57q91 0 148 83.5t57 195.5v215q-91 43 -176 43q-97 0 -149 -71.5t-52 -188.5v-17q0 -114 45 -187t127 -73zM248 1196q0 -46 29 -77.5t73 -31.5t73.5 31.5t29.5 77.5t-29.5 77.5t-73.5 31.5
t-73 -31.5t-29 -77.5z" />
    <glyph glyph-name="atilde.alt" horiz-adv-x="770" 
d="M350 -16q-117 0 -198.5 143t-81.5 391v39q0 246 82 390.5t198 144.5q77 0 133.5 -61.5t91.5 -162.5v207h87v-1075h-87v207q-35 -101 -91.5 -162t-133.5 -61zM360 59q88 0 154 123.5t66 329.5v51q0 206 -66 329.5t-154 123.5q-87 0 -145.5 -123.5t-58.5 -337.5v-35
q0 -214 58.5 -337.5t145.5 -123.5zM489 1184q-30 0 -50.5 11.5t-51.5 41.5q-50 47 -70 47q-32 0 -57 -92l-61 16q39 154 110 154q30 0 51 -12t52 -41q30 -28 43.5 -37.5t25.5 -9.5q33 0 58 92l61 -17q-38 -153 -111 -153z" />
    <glyph glyph-name="three.alt" horiz-adv-x="634" 
d="M215 -16q-89 0 -172 36v84q93 -38 174 -38q122 0 194 85.5t72 235.5v4q0 152 -81.5 230t-233.5 86v77q135 11 222 101.5t87 226.5v4q0 116 -61.5 184t-169.5 68q-94 0 -180 -51v84q88 49 192 49q148 0 228.5 -93t80.5 -235v-8q0 -133 -68.5 -224t-185.5 -138
q121 -33 190.5 -128t69.5 -235v-4q0 -180 -97.5 -290.5t-260.5 -110.5z" />
    <glyph glyph-name="registered.alt" horiz-adv-x="1071" 
d="M535 -20q-145 0 -257 95.5t-170.5 254.5t-58.5 352v72q0 194 58.5 353t170.5 254t257 95t257 -95t171 -254t59 -353v-72q0 -193 -59 -352t-171 -254.5t-257 -95.5zM535 31q132 0 232 90t151 236.5t51 324.5v72q0 178 -51 324.5t-151 236.5t-232 90t-232 -90
t-150.5 -236.5t-50.5 -324.5v-72q0 -178 50.5 -324.5t150.5 -236.5t232 -90zM383 336v788h121q105 0 166 -61q63 -63 63 -174v-6q0 -78 -33 -134t-90 -83l142 -330h-78l-129 307q-18 -2 -37 -2h-55v-305h-70zM453 709h55q71 0 112.5 43.5t41.5 128.5v4q0 83 -43 126.5
t-115 43.5h-51v-346z" />
    <glyph glyph-name="R_p" horiz-adv-x="1343" 
d="M94 0v1434h142q174 0 278 -113.5t104 -314.5v-5q0 -152 -57.5 -257.5t-163.5 -151.5l244 -592h-100l-232 569q-24 -4 -61 -4h-68v-565h-86zM180 641h76q128 0 202 94.5t74 263.5v5q0 172 -81 262t-220 90h-51v-715zM750 -266v1349h84v-192q33 91 83.5 149t118.5 58
q105 0 178.5 -146t73.5 -395v-39q0 -246 -73.5 -389t-178.5 -143q-129 0 -202 198v-450h-84zM1028 57q77 0 127.5 124t50.5 339v35q0 216 -50.5 343.5t-127.5 127.5q-78 0 -138.5 -128t-60.5 -335v-51q0 -206 60 -330.5t139 -124.5z" />
    <glyph glyph-name="onehalf.alt" horiz-adv-x="1105" 
d="M412 725h-373v66h160v563l-160 -82v78l166 90h65v-649h142v-66zM688 0v45l234 330q67 98 67 166q0 51 -32.5 78.5t-79.5 27.5q-88 0 -164 -88v84q70 74 170 74q77 0 128.5 -47t51.5 -127q0 -55 -20 -100t-62 -103l-188 -270h278v-70h-383zM246 0l297 733l282 703h72
l-297 -734l-285 -702h-69z" />
    <glyph glyph-name="onethird.alt" horiz-adv-x="1105" 
d="M412 725h-373v66h160v563l-160 -82v78l166 90h65v-649h142v-66zM850 -8q-83 0 -143 49v80q62 -62 147 -62q58 0 99.5 34.5t41.5 103.5q0 137 -209 143h-2v49l187 250h-264v70h358v-52l-195 -258q91 -13 145 -62t54 -138q0 -96 -62 -151.5t-157 -55.5zM236 0l296 733
l283 703h72l-297 -734l-285 -702h-69z" />
    <glyph glyph-name="onequarter.alt" horiz-adv-x="1105" 
d="M422 725h-373v66h160v563l-160 -82v78l166 90h66v-649h141v-66zM266 0l297 733l283 703h72l-297 -734l-285 -702h-70zM997 147v-147h-65v147h-277v52l260 514h82v-504h72v-62h-72zM932 209v389h-8l-193 -389h201z" />
    <glyph glyph-name="onefifth.alt" horiz-adv-x="1105" 
d="M412 725h-373v66h160v563l-160 -82v78l166 90h65v-649h142v-66zM858 -8q-82 0 -143 43v80q63 -56 143 -56q68 0 101.5 43.5t33.5 116.5q0 77 -36 113.5t-95 36.5q-54 0 -96 -25l-49 23l22 342h297v-70h-233l-19 -217q40 14 84 14q90 0 145.5 -55.5t55.5 -159.5
q0 -103 -58 -166t-153 -63zM246 0l297 733l282 703h72l-297 -734l-285 -702h-69z" />
    <glyph glyph-name="onesixth.alt" horiz-adv-x="1105" 
d="M412 725h-373v66h160v563l-160 -82v78l166 90h65v-649h142v-66zM891 -8q-72 0 -117 45q-72 75 -72 262v29q0 200 62.5 294.5t169.5 94.5q53 0 98 -25v-76q-51 31 -98 31q-70 0 -110 -64t-48 -184q60 52 129 52q76 0 126 -56.5t50 -167.5q0 -105 -53 -170t-137 -65z
M893 59q56 0 86.5 46t30.5 124q0 76 -31.5 115t-83.5 39q-70 0 -119 -55v-41q0 -228 117 -228zM256 0l297 733l283 703h71l-297 -734l-284 -702h-70z" />
    <glyph glyph-name="oneeighth.alt" horiz-adv-x="1105" 
d="M412 725h-373v66h160v563l-160 -82v78l166 90h65v-649h142v-66zM889 -8q-87 0 -139 53t-52 143q0 60 29 108t80 71q-41 23 -66.5 66t-25.5 97q0 87 50 137t124 50t124 -50t50 -137q0 -54 -25.5 -97t-66.5 -66q51 -23 79.5 -70.5t28.5 -106.5q0 -92 -51.5 -145t-138.5 -53
zM889 651q-47 0 -76 -33.5t-29 -87.5q0 -57 29.5 -95t75.5 -38t75 38t29 95q0 54 -28.5 87.5t-75.5 33.5zM889 332q-52 0 -86.5 -40t-34.5 -102q0 -58 32.5 -95.5t88.5 -37.5t88.5 37.5t32.5 95.5q0 62 -34.5 102t-86.5 40zM256 0l297 733l283 703h71l-297 -734l-284 -702
h-70z" />
    <glyph glyph-name="one.sup_alt" 
d="M444 954h-372v66h159v563l-159 -82v78l166 90h65v-649h141v-66z" />
    <glyph glyph-name="one.inf_alt" 
d="M444 -270h-372v65h159v563l-159 -82v78l166 90h65v-649h141v-65z" />
    <glyph glyph-name="zero.tab" horiz-adv-x="737" 
d="M369 -16q-149 0 -222 170.5t-73 543.5v33q0 376 72 547.5t223 171.5t223 -170t72 -545v-33q0 -374 -73 -546t-222 -172zM369 1368q-105 0 -155 -156t-50 -477v-33q0 -636 205 -636q204 0 204 632v33q0 322 -49.5 479.5t-154.5 157.5z" />
    <glyph glyph-name="one.tab" horiz-adv-x="737" 
d="M678 0h-582v82h262v1241l-256 -170v102l265 179h79v-1352h232v-82z" />
    <glyph glyph-name="two.tab" horiz-adv-x="737" 
d="M653 0h-587v59l358 680q65 124 94 212.5t29 172.5q0 108 -53.5 172t-143.5 64q-130 0 -246 -141v108q107 123 254 123q125 0 204 -88t79 -227v-9q0 -97 -32 -188t-105 -231l-326 -619h475v-88z" />
    <glyph glyph-name="three.tab" horiz-adv-x="737" 
d="M305 -16q-138 0 -229 88v98q102 -102 229 -102q120 0 188 85t68 242v13q0 154 -87 228t-253 85h-6l-2 63l322 557h-459v93h569v-62l-336 -579q70 -10 128 -34.5t108.5 -68t79 -115t28.5 -165.5v-13q0 -192 -96 -302.5t-252 -110.5z" />
    <glyph glyph-name="three.tab_alt" horiz-adv-x="737" 
d="M307 -16q-74 0 -136.5 24t-96.5 58v98q42 -40 105 -69t130 -29q115 0 181.5 85.5t66.5 237.5q0 153 -90 231.5t-254 84.5h-8v79h8q149 9 242.5 100t93.5 238q0 114 -59 180t-154 66q-129 0 -240 -111v99q38 39 104 66.5t140 27.5q141 0 221 -91.5t80 -232.5
q0 -268 -268 -376q127 -35 200.5 -128.5t73.5 -234.5q0 -182 -91.5 -292.5t-248.5 -110.5z" />
    <glyph glyph-name="four.tab" horiz-adv-x="737" 
d="M494 0v330h-441v71l428 1043h97v-1034h114v-80h-114v-330h-84zM494 410v852h-9l-346 -852h355z" />
    <glyph glyph-name="five.tab" horiz-adv-x="737" 
d="M307 -16q-59 0 -117 21t-94 54v97q97 -88 211 -88q120 0 185 101.5t65 274.5v7q0 164 -65 239.5t-170 75.5q-88 0 -158 -51l-64 41l31 678h463v-88h-385l-23 -531q58 37 148 37q65 0 120 -23.5t99 -71t69 -126t25 -180.5v-7q0 -205 -93 -332.5t-247 -127.5z" />
    <glyph glyph-name="six.tab" horiz-adv-x="737" 
d="M397 891q120 0 200.5 -108t80.5 -322v-8q0 -211 -81 -340t-210 -129q-95 0 -158 63q-137 133 -137 557v58q0 208 26 362t74.5 246t112 136t144.5 44q76 0 147 -41v-94q-78 47 -147 47q-58 0 -103.5 -34.5t-74.5 -89.5t-49 -132t-28.5 -154t-11.5 -164q103 103 215 103z
M389 63q92 0 146.5 111t54.5 277v8q0 171 -57 260.5t-144 89.5q-103 0 -207 -119v-112q0 -145 17.5 -249.5t48 -160t65.5 -80.5t76 -25z" />
    <glyph glyph-name="seven.tab" horiz-adv-x="737" 
d="M561 1346h-479v88h569v-78l-401 -1356h-90z" />
    <glyph glyph-name="eight.tab" horiz-adv-x="737" 
d="M369 -16q-132 0 -209.5 105t-77.5 276v14q0 127 48.5 223t137.5 137q-79 43 -121.5 130.5t-42.5 209.5v13q0 167 74.5 262.5t190.5 95.5t190 -95.5t74 -262.5v-13q0 -122 -42.5 -209.5t-121.5 -130.5q89 -41 137.5 -137t48.5 -223v-14q0 -171 -77 -276t-209 -105z
M369 778q82 0 128 88.5t46 214.5v9q0 129 -45.5 204.5t-128.5 75.5t-128.5 -75.5t-45.5 -204.5v-9q0 -126 46.5 -214.5t127.5 -88.5zM369 63q94 0 147 85.5t53 220.5v6q0 141 -55.5 232t-144.5 91t-145 -91.5t-56 -231.5v-6q0 -135 53.5 -220.5t147.5 -85.5z" />
    <glyph glyph-name="nine.tab" horiz-adv-x="737" 
d="M350 530q-120 0 -200 109.5t-80 327.5v8q0 215 80.5 345t209.5 130q94 0 158 -64q137 -133 137 -557v-57q0 -208 -26 -362t-74 -246t-111.5 -136t-144.5 -44q-83 0 -168 47v94q95 -53 168 -53q70 0 122.5 49.5t81.5 134.5t43.5 177.5t16.5 197.5q-98 -101 -213 -101z
M358 1370q-62 0 -108 -53t-69 -141t-23 -199v-8q0 -176 56.5 -266.5t143.5 -90.5q103 0 207 119v125q0 145 -17.5 249.5t-48 160t-65.5 80t-76 24.5z" />
    <glyph glyph-name="period.tab" horiz-adv-x="368" 
d="M109 0v184h151v-184h-151z" />
    <glyph glyph-name="comma.tab" horiz-adv-x="368" 
d="M96 -211l-24 51q60 26 84.5 63.5t19.5 96.5h-67v184h151v-161q0 -92 -37.5 -142t-126.5 -92z" />
    <glyph glyph-name="colon.tab" horiz-adv-x="368" 
d="M109 889v184h151v-184h-151zM109 0v184h151v-184h-151z" />
    <glyph glyph-name="semicolon.tab" horiz-adv-x="368" 
d="M109 889v184h151v-184h-151zM96 -211l-24 51q60 26 84.5 63.5t19.5 96.5h-67v184h151v-161q0 -92 -37.5 -142t-126.5 -92z" />
    <glyph glyph-name="twodotleader.tab" horiz-adv-x="737" 
d="M481 0v176h144v-176h-144zM113 0v176h143v-176h-143z" />
    <glyph glyph-name="periodcentered.tab" horiz-adv-x="368" 
d="M109 518v184h151v-184h-151z" />
    <glyph glyph-name="slash.tab" horiz-adv-x="737" 
d="M662 1575l-537 -1778h-78l535 1778h80z" />
    <glyph glyph-name="bar.tab" horiz-adv-x="368" 
d="M147 -203v1778h74v-1778h-74z" />
    <glyph glyph-name="underscore.tab" horiz-adv-x="737" 
d="M-4 -324v72h745v-72h-745z" />
    <glyph glyph-name="dollar.tab" horiz-adv-x="737" 
d="M451 1602l-11 -164q105 -15 189 -74v-94q-111 75 -193 88l-33 -584q144 -95 207.5 -191.5t63.5 -228.5v-4q0 -151 -88.5 -253t-229.5 -109l-12 -219h-70l13 221q-124 12 -236 90v94q122 -90 240 -102l37 641q-134 79 -200.5 169t-66.5 228v4q0 137 88.5 230.5t221.5 99.5
l10 158h70zM586 354q0 104 -45.5 180.5t-143.5 141.5l-35 -606q108 7 166 86t58 194v4zM147 1110q0 -73 25.5 -130t63 -93t98.5 -76l31 551q-96 -6 -157 -75t-61 -173v-4z" />
    <glyph glyph-name="sterling.tab" horiz-adv-x="737" 
d="M186 745v347q0 179 97 276q80 80 204 80q101 0 158 -49l-4 -86q-61 53 -156 53q-86 0 -143 -57q-68 -68 -68 -219v-345h306v-77h-306v-588h422v-80h-616v43l106 37v588h-114v77h114z" />
    <glyph glyph-name="Euro.tab" horiz-adv-x="737" 
d="M25 854v72h125q28 249 130 382.5t242 133.5q82 0 142 -37v-94q-71 45 -142 45q-107 0 -181 -113t-99 -317h317v-72h-323q-5 -49 -5 -119v-37q0 -73 2 -108h326v-72h-317q24 -212 99.5 -326t184.5 -114q76 0 144 51v-94q-65 -43 -154 -43q-142 0 -240.5 135t-128.5 391
h-122v72h116q-2 33 -2 108v37q0 80 2 119h-116z" />
    <glyph glyph-name="yen.tab" horiz-adv-x="737" 
d="M117 360h209v203h-209v72h194l-282 799h98l244 -727l243 727h95l-285 -799h197v-72h-209v-203h209v-71h-209v-289h-86v289h-209v71z" />
    <glyph glyph-name="cent.tab" horiz-adv-x="737" 
d="M449 1440v-170q57 -3 110 -29t84 -59v-90q-36 34 -89 62t-105 32v-938q54 3 105.5 30t88.5 66v-88q-30 -33 -82 -58.5t-112 -31.5v-176h-70v178q-134 21 -206.5 155.5t-72.5 381.5v20q0 247 73 382t206 157v176h70zM186 700q0 -396 193 -446v924q-193 -47 -193 -449v-29z
" />
    <glyph glyph-name="numbersign.tab" horiz-adv-x="737" 
d="M31 463h141l27 508h-127v82h131l20 381h72l-21 -381h224l20 381h72l-21 -381h138v-82h-142l-26 -508h127v-82h-131l-21 -381h-72l19 381h-223l-19 -381h-72l21 381h-137v82zM494 971h-224l-26 -508h223z" />
    <glyph glyph-name="paragraph.tab" horiz-adv-x="737" 
d="M524 0v530h-8q-224 0 -344.5 122t-120.5 331v4q0 206 121 326.5t336 120.5h106v-1434h-90z" />
    <glyph glyph-name="section.tab" horiz-adv-x="737" 
d="M461 432q66 -50 95.5 -99t29.5 -112v-4q0 -99 -71 -165t-187 -66q-92 0 -176 41l2 90q97 -51 178 -51q80 0 123 40.5t43 102.5v2q0 66 -44.5 114.5t-158.5 116.5q-143 83 -195.5 144.5t-52.5 144.5v4q0 167 229 266q-66 50 -95 99t-29 112v5q0 99 71 165t187 66
q92 0 176 -41l-2 -90q-97 51 -178 51q-80 0 -123 -40.5t-43 -102.5v-2q0 -67 44.5 -116t157.5 -116q143 -83 195.5 -144.5t52.5 -144.5v-4q0 -167 -229 -266zM340 956q-207 -81 -207 -217v-4q0 -59 42.5 -105t152.5 -112q1 0 33 -20t36 -21q207 81 207 217v4q0 59 -42 105
t-152 112l-33 20q-33 20 -37 21z" />
    <glyph glyph-name="degree.tab" horiz-adv-x="737" 
d="M369 666q-111 0 -185.5 104t-74.5 279v18q0 175 74.5 279t185.5 104t185.5 -104t74.5 -279v-18q0 -175 -74.5 -279t-185.5 -104zM369 739q84 0 134 84.5t50 225.5v18q0 142 -50 226.5t-134 84.5q-85 0 -135 -85t-50 -226v-18q0 -141 50 -225.5t135 -84.5z" />
    <glyph glyph-name="percent.tab" horiz-adv-x="737" 
d="M207 1444q84 0 133 -86t49 -228v-8q0 -144 -49 -229.5t-133 -85.5t-134 85.5t-50 227.5v8q0 142 50 229t134 87zM530 627q84 0 134.5 -86t50.5 -228v-8q0 -142 -50.5 -228.5t-134.5 -86.5t-133 85.5t-49 227.5v8q0 144 49 230t133 86zM627 1434h69l-299 -732l-286 -702
h-70l299 727zM530 557q-54 0 -81 -66.5t-27 -177.5v-10q0 -111 27 -177.5t81 -66.5q56 0 82.5 66.5t26.5 177.5v10q0 111 -26.5 177.5t-82.5 66.5zM207 1374q-56 0 -82.5 -66.5t-26.5 -177.5v-10q0 -111 26.5 -177t82.5 -66q55 0 81.5 66.5t26.5 176.5v10q0 111 -27 177.5
t-81 66.5z" />
    <glyph glyph-name="quotedbl.tab" horiz-adv-x="737" 
d="M442 936l39 498h105l-2 -19l-103 -479h-39zM174 936l39 498h104l-2 -19l-102 -479h-39z" />
    <glyph glyph-name="quotesingle.tab" horiz-adv-x="368" 
d="M133 936l41 498h102l-2 -19l-100 -479h-41z" />
    <glyph glyph-name="plus.tab" horiz-adv-x="737" 
d="M666 680h-256v-264h-82v264h-256v82h256v264h82v-264h256v-82z" />
    <glyph glyph-name="minus.tab" horiz-adv-x="737" 
d="M666 676h-594v90h594v-90z" />
    <glyph glyph-name="divide.tab" horiz-adv-x="737" 
d="M311 915v148h115v-148h-115zM666 676h-594v90h594v-90zM311 379v147h115v-147h-115z" />
    <glyph glyph-name="equal.tab" horiz-adv-x="737" 
d="M655 825h-573v84h573v-84zM655 532h-573v84h573v-84z" />
    <glyph glyph-name="multiply.tab" horiz-adv-x="737" 
d="M563 444l-194 218l-195 -218l-61 54l202 223l-202 223l61 53l195 -217l194 217l62 -53l-203 -223l203 -223z" />
    <glyph glyph-name="less.tab" horiz-adv-x="737" 
d="M618 362l-526 318v82l526 317v-102l-434 -256l434 -256v-103z" />
    <glyph glyph-name="greater.tab" horiz-adv-x="737" 
d="M645 680l-526 -318v103l434 256l-434 256v102l526 -317v-82z" />
    <glyph glyph-name="plusminus.tab" horiz-adv-x="737" 
d="M666 682h-256v-262h-82v262h-256v84h256v262h82v-262h256v-84zM666 188h-594v86h594v-86z" />
    <glyph glyph-name="space.tab" horiz-adv-x="368" 
 />
    <glyph glyph-name="NUL" horiz-adv-x="0" 
 />
    <glyph glyph-name="hcoslug" horiz-adv-x="1421" 
d="M559 37h-53q0 -25 20 -25q16 0 19 15h14q-7 -29 -37 -29q-20 0 -31.5 11t-11.5 30t12 31t29 12q42 0 39 -45zM520 72q-14 0 -14 -25h29q0 25 -15 25zM399 160q17 0 17 33q0 30 -17 30q-16 0 -16 -30q0 -33 16 -33zM430 8q16 0 16 33q0 31 -16 31t-16 -31q0 -33 16 -33z
M430 -2q-19 0 -31 11.5t-12 31.5q0 19 12 30t31 11t31 -11t12 -30t-12 -31t-31 -12zM1118 8q17 0 17 33q0 31 -17 31q-16 0 -16 -31q0 -33 16 -33zM1118 -2q-19 0 -31 11.5t-12 31.5q0 19 12 30t31 11t31 -11t12 -30t-12 -31t-31 -12zM256 152v14h14v84h-14v14h104v-41h-16
q-3 17 -7 22t-15 5h-25v-37h8q7 0 8.5 2.5t3.5 13.5h15v-47h-15q-7 16 -12 17h-8v-33h20v-14h-61zM399 150q-19 0 -31 11.5t-12 31.5q0 18 12 29t31 11t31 -11t12 -29q0 -19 -12 -31t-31 -12zM1319 -205v1639h-1217v-1639h1217zM1020 -2q-28 0 -43.5 15.5t-15.5 41.5
q0 27 16.5 44.5t38.5 17.5q18 0 33 -15l2 13h16v-45h-16q-6 19 -12.5 25.5t-18.5 6.5q-29 0 -29 -45t33 -45q25 0 29 33h16q-3 -47 -49 -47zM762 164q14 0 14 26q0 27 -14 27q-17 0 -17 -27q0 -26 17 -26zM565 0v14h13v52h-15v14h15v2q0 19 11 29t27 10q11 0 19 -4l20 4
v-107h13v-14h-47v14h10v52h-29v-52h10v-14h-47zM754 0v14h12v52h-12v14h37v-21q9 23 24 23q16 0 16 -16q0 -15 -14 -15q-12 0 -12 12v3q-6 0 -14 -19v-33h16v-14h-53zM721 150v106h-12v14h36v-55q6 18 27 18q14 0 22.5 -11t8.5 -29q0 -16 -8 -29.5t-25 -13.5q-19 0 -29 16
l-8 -16h-12zM819 154q10 0 12.5 -8t-2.5 -13q14 0 17 17l-33 67h-10v14h51v-14h-12l18 -41l17 41h-11v14h35v-14h-10l-27 -63q-13 -33 -37 -33q-22 0 -22 18q0 15 14 15zM506 877q0 26 15 42.5t40 16.5q26 0 43 -21.5t17 -56.5q0 -46 -37 -102q-30 29 -42.5 42.5t-24 35
t-11.5 43.5zM618 152v28h15q12 -18 24 -18q11 0 11 8q0 6 -25 13t-25 26q0 10 8 17t21 7q16 0 23 -10l4 10h12v-26h-14q-10 14 -21 14q-10 0 -10 -8q0 -6 24.5 -12t24.5 -25q0 -11 -7.5 -18.5t-20.5 -7.5q-12 0 -27 10l-2 -8h-15zM535 449q-46 0 -76.5 31.5t-30.5 78.5
q0 49 33 82q72 -68 151 -168q-31 -24 -77 -24zM561 250l25 4v-23h26v-14h-26v-41q0 -10 8 -10q7 0 10 14l10 -4q-6 -26 -28 -26q-25 0 -25 26v41h-14v14h14v19zM877 627q-53 -31 -95 -86q39 -45 68 -64.5t59 -19.5q54 0 88 59l15 -4q-3 -87 -49.5 -140t-114.5 -53
q-46 0 -84.5 20.5t-89.5 72.5q-84 -93 -213 -93q-93 0 -158 55t-65 136q0 129 168 186q-34 35 -49 67t-15 75q0 69 62 121.5t161 52.5q90 0 142.5 -46.5t52.5 -105.5q0 -37 -19 -69q43 2 70.5 -17t30.5 -59q53 78 123 78q43 0 72.5 -30t29.5 -77t-29.5 -79t-72.5 -32
q-58 0 -88 52zM449 152v14h12v51h-12v14h34v-20q9 22 29 22q25 0 25 -28v-39h12v-14h-45v14h8v37q0 14 -12 14q-15 0 -15 -20v-31h9v-14h-45zM913 68h37v-15h-10q-6 -12 -18 -28q7 -11 12 -11t8 11l10 -2q-7 -25 -26 -25q-15 0 -25 12q-12 -12 -31 -12q-36 0 -36 29
q0 23 26 30q-12 12 -12 25q0 11 10.5 20t24.5 9q13 0 20.5 -7.5t7.5 -17.5q0 -16 -22 -25q5 -5 12.5 -13.5t11.5 -12.5q11 11 13 18h-13v15zM879 12q7 0 16 6q-20 24 -29 33q-8 -8 -8 -18q0 -9 6 -15t15 -6zM602 86v-6h29v10q-13 0 -13 12l3 7q-3 2 -7 2q-12 0 -12 -25z
M870 88q0 -7 13 -20q10 7 10 18q0 12 -12 12q-11 0 -11 -10zM639 700q61 42 86 70q23 -23 29 -49t-2 -52.5t-29 -62.5q-68 78 -84 94zM750 37h-54q0 -25 21 -25q15 0 18 15h15q-7 -29 -37 -29q-20 0 -31.5 11t-11.5 30t12 31t29 12q42 0 39 -45zM711 72q-15 0 -15 -25h29
q0 25 -14 25zM254 0v14h16v84h-16v15h59v-15h-16v-32h45v32h-16v15h59v-15h-16v-84h16v-14h-59v14h16v37h-45v-37h16v-14h-59zM1180 27q14 0 14 -15q0 -14 -14 -14q-15 0 -15 14q0 6 4.5 10.5t10.5 4.5z" />
    <glyph glyph-name="i.dot" horiz-adv-x="327" 
d="M117 1305v143h94v-143h-94zM121 0v1075h86v-1075h-86z" />
    <glyph glyph-name="zero.num" 
d="M246 717q-193 0 -193 354v14q0 357 193 357q95 0 143.5 -85.5t48.5 -269.5v-14q0 -356 -192 -356zM246 1374q-119 0 -119 -287v-14q0 -145 31.5 -217t87.5 -72t87.5 71t31.5 216v14q0 289 -119 289z" />
    <glyph glyph-name="one.num" horiz-adv-x="399" 
d="M254 725h-72v623l-137 -76v74l143 88h66v-709z" />
    <glyph glyph-name="one.num_alt" 
d="M444 725h-372v66h159v563l-159 -82v78l166 90h65v-649h141v-66z" />
    <glyph glyph-name="two.num" 
d="M49 725v45l234 330q67 98 67 166q0 51 -32.5 78.5t-79.5 27.5q-88 0 -164 -88v84q70 74 170 74q77 0 128.5 -47t51.5 -127q0 -55 -20 -100t-62 -103l-188 -270h278v-70h-383z" />
    <glyph glyph-name="three.num" 
d="M207 717q-84 0 -144 49v80q62 -62 148 -62q58 0 99.5 34.5t41.5 103.5q0 137 -209 143h-2v49l187 250h-265v70h359v-52l-195 -258q91 -13 145 -62t54 -138q0 -96 -62 -151.5t-157 -55.5z" />
    <glyph glyph-name="four.num" 
d="M383 872v-147h-66v147h-276v52l260 514h82v-504h72v-62h-72zM317 934v389h-8l-192 -389h200z" />
    <glyph glyph-name="five.num" 
d="M215 717q-82 0 -143 43v80q63 -56 143 -56q68 0 101.5 43.5t33.5 116.5q0 77 -36 113.5t-95 36.5q-54 0 -96 -25l-49 23l22 342h297v-70h-233l-19 -217q40 14 84 14q90 0 145.5 -55.5t55.5 -159.5q0 -103 -58 -166t-153 -63z" />
    <glyph glyph-name="six.num" 
d="M248 717q-72 0 -117 45q-72 75 -72 262v29q0 200 62.5 294.5t169.5 94.5q53 0 98 -25v-76q-51 31 -98 31q-70 0 -110 -64t-48 -184q60 52 129 52q76 0 126 -56.5t50 -167.5q0 -105 -53 -170t-137 -65zM250 784q56 0 86.5 46t30.5 124q0 76 -31.5 115t-83.5 39
q-70 0 -119 -55v-41q0 -228 117 -228z" />
    <glyph glyph-name="seven.num" 
d="M182 725h-73l245 639h-293v70h367v-60z" />
    <glyph glyph-name="eight.num" 
d="M246 717q-87 0 -139 53t-52 143q0 60 29 108t80 71q-41 23 -66.5 66t-25.5 97q0 87 50 137t124 50t124 -50t50 -137q0 -54 -25.5 -97t-66.5 -66q51 -23 79.5 -70.5t28.5 -106.5q0 -92 -51.5 -145t-138.5 -53zM246 1376q-47 0 -76 -33.5t-29 -87.5q0 -57 29.5 -95
t75.5 -38t75 38t29 95q0 54 -28.5 87.5t-75.5 33.5zM246 1057q-52 0 -86.5 -40t-34.5 -102q0 -58 32.5 -95.5t88.5 -37.5t88.5 37.5t32.5 95.5q0 62 -34.5 102t-86.5 40z" />
    <glyph glyph-name="nine.num" 
d="M250 1442q72 0 117 -45q71 -74 71 -262v-29q0 -200 -62 -294.5t-169 -94.5q-61 0 -113 28v74q54 -33 113 -33q69 0 109.5 63t48.5 175q-59 -51 -129 -51q-76 0 -126.5 57.5t-50.5 169.5q0 108 53.5 175t137.5 67zM246 1040q69 0 119 56v51q0 227 -117 227
q-56 0 -86.5 -47.5t-30.5 -128.5q0 -80 31.5 -119t83.5 -39z" />
    <glyph glyph-name="zero.den" 
d="M246 -8q-193 0 -193 354v14q0 357 193 357q95 0 143.5 -85.5t48.5 -269.5v-14q0 -356 -192 -356zM246 649q-119 0 -119 -287v-14q0 -145 31.5 -217t87.5 -72t87.5 71t31.5 216v14q0 289 -119 289z" />
    <glyph glyph-name="one.den" horiz-adv-x="399" 
d="M254 0h-72v623l-137 -76v74l143 88h66v-709z" />
    <glyph glyph-name="one.den_alt" 
d="M444 0h-372v66h159v563l-159 -82v78l166 90h65v-649h141v-66z" />
    <glyph glyph-name="two.den" 
d="M49 0v45l234 330q67 98 67 166q0 51 -32.5 78.5t-79.5 27.5q-88 0 -164 -88v84q70 74 170 74q77 0 128.5 -47t51.5 -127q0 -55 -20 -100t-62 -103l-188 -270h278v-70h-383z" />
    <glyph glyph-name="three.den" 
d="M207 -8q-84 0 -144 49v80q62 -62 148 -62q58 0 99.5 34.5t41.5 103.5q0 137 -209 143h-2v49l187 250h-265v70h359v-52l-195 -258q91 -13 145 -62t54 -138q0 -96 -62 -151.5t-157 -55.5z" />
    <glyph glyph-name="four.den" 
d="M383 147v-147h-66v147h-276v52l260 514h82v-504h72v-62h-72zM317 209v389h-8l-192 -389h200z" />
    <glyph glyph-name="five.den" 
d="M215 -8q-82 0 -143 43v80q63 -56 143 -56q68 0 101.5 43.5t33.5 116.5q0 77 -36 113.5t-95 36.5q-54 0 -96 -25l-49 23l22 342h297v-70h-233l-19 -217q40 14 84 14q90 0 145.5 -55.5t55.5 -159.5q0 -103 -58 -166t-153 -63z" />
    <glyph glyph-name="six.den" 
d="M248 -8q-72 0 -117 45q-72 75 -72 262v29q0 200 62.5 294.5t169.5 94.5q53 0 98 -25v-76q-51 31 -98 31q-70 0 -110 -64t-48 -184q60 52 129 52q76 0 126 -56.5t50 -167.5q0 -105 -53 -170t-137 -65zM250 59q56 0 86.5 46t30.5 124q0 76 -31.5 115t-83.5 39
q-70 0 -119 -55v-41q0 -228 117 -228z" />
    <glyph glyph-name="seven.den" 
d="M182 0h-73l245 639h-293v70h367v-60z" />
    <glyph glyph-name="eight.den" 
d="M246 -8q-87 0 -139 53t-52 143q0 60 29 108t80 71q-41 23 -66.5 66t-25.5 97q0 87 50 137t124 50t124 -50t50 -137q0 -54 -25.5 -97t-66.5 -66q51 -23 79.5 -70.5t28.5 -106.5q0 -92 -51.5 -145t-138.5 -53zM246 651q-47 0 -76 -33.5t-29 -87.5q0 -57 29.5 -95t75.5 -38
t75 38t29 95q0 54 -28.5 87.5t-75.5 33.5zM246 332q-52 0 -86.5 -40t-34.5 -102q0 -58 32.5 -95.5t88.5 -37.5t88.5 37.5t32.5 95.5q0 62 -34.5 102t-86.5 40z" />
    <glyph glyph-name="nine.den" 
d="M250 717q72 0 117 -45q71 -74 71 -262v-29q0 -200 -62 -294.5t-169 -94.5q-61 0 -113 28v74q54 -33 113 -33q69 0 109.5 63t48.5 175q-59 -51 -129 -51q-76 0 -126.5 57.5t-50.5 169.5q0 108 53.5 175t137.5 67zM246 315q69 0 119 56v51q0 227 -117 227
q-56 0 -86.5 -47.5t-30.5 -128.5q0 -80 31.5 -119t83.5 -39z" />
    <glyph glyph-name="caron.alt" horiz-adv-x="1024" 
d="M406 1145l14 303h78v-4l-52 -299h-40z" />
    <glyph glyph-name="acute.cap" horiz-adv-x="1024" 
d="M387 1516l127 213l98 -46l-159 -167h-66z" />
    <glyph glyph-name="hungarumlaut.cap" horiz-adv-x="1024" 
d="M295 1516l127 213l92 -43l-156 -170h-63zM479 1516l127 213l92 -43l-155 -170h-64z" />
    <glyph glyph-name="grave.cap" horiz-adv-x="1024" 
d="M637 1516h-66l-159 167l98 46z" />
    <glyph glyph-name="circumflex.cap" horiz-adv-x="1024" 
d="M324 1526l147 198h82l147 -198h-86l-104 119l-104 -119h-82z" />
    <glyph glyph-name="caron.cap" horiz-adv-x="1024" 
d="M700 1724l-147 -198h-82l-147 198h86l104 -118l104 118h82z" />
    <glyph glyph-name="breve.cap" horiz-adv-x="1024" 
d="M512 1522q-79 0 -131 41t-62 120h76q23 -79 117 -79t117 79h76q-10 -79 -62 -120t-131 -41z" />
    <glyph glyph-name="tilde.cap" horiz-adv-x="1024" 
d="M367 1528l-66 16q46 133 117 133q21 0 40 -6t30 -13t36 -24q56 -37 74 -37q19 0 32.5 17.5t26.5 54.5l66 -16q-46 -133 -117 -133q-21 0 -40 6t-30 13t-36 24q-55 36 -74 36q-34 0 -59 -71z" />
    <glyph glyph-name="macron.cap" horiz-adv-x="1024" 
d="M315 1540v84h394v-84h-394z" />
    <glyph glyph-name="dieresis.cap" horiz-adv-x="1024" 
d="M567 1536v129h103v-129h-103zM354 1536v129h103v-129h-103z" />
    <glyph glyph-name="dotaccent.cap" horiz-adv-x="1024" 
d="M459 1536v129h106v-129h-106z" />
    <glyph glyph-name="ring.cap" horiz-adv-x="1024" 
d="M510 1518q-68 0 -114 43.5t-46 107.5t48 108t116 44t114 -44t46 -108t-48 -107.5t-116 -43.5zM512 1573q43 0 70.5 27.5t27.5 68.5t-27.5 68.5t-70.5 27.5t-70.5 -27.5t-27.5 -68.5t27.5 -68.5t70.5 -27.5z" />
    </font>
</defs>
</svg>
